<svg width="48" height="50" viewBox="0 0 48 50" fill="none" xmlns="http://www.w3.org/2000/svg">
<path d="M26.3609 43.7597C26.3609 44.6426 25.3743 45.3584 24.1575 45.3584C22.9407 45.3584 21.9543 44.6426 21.9543 43.7597V32.782C21.9543 31.8987 22.9407 31.183 24.1575 31.183C25.3743 31.183 26.3609 31.8987 26.3609 32.782V43.7597Z" fill="#33E6BF"/>
<path d="M31.0431 43.226C31.0431 45.2892 27.9602 46.9617 24.1574 46.9617C20.3549 46.9617 17.2721 45.2892 17.2721 43.226C17.2721 41.1629 20.3549 39.4901 24.1574 39.4901C27.9602 39.4901 31.0431 41.1629 31.0431 43.226Z" fill="#81F8DE"/>
<path d="M19.7777 43.226C19.7777 41.3948 22.2063 39.8725 25.4104 39.5527C25.0037 39.5121 24.5856 39.4901 24.1574 39.4901C20.3549 39.4901 17.2721 41.1629 17.2721 43.226C17.2721 45.2892 20.3549 46.9617 24.1574 46.9617C24.5856 46.9617 25.0037 46.9394 25.4104 46.8991C22.2063 46.5793 19.7777 45.057 19.7777 43.226Z" fill="#A6FBE8"/>
<path d="M24.1573 39.4901C23.5914 39.4901 23.042 39.528 22.516 39.5976C25.5256 39.9975 27.7598 41.4699 27.7598 43.226C27.7598 44.9821 25.5256 46.4545 22.516 46.8542C23.042 46.924 23.5914 46.9617 24.1573 46.9617C27.9601 46.9617 31.0429 45.2892 31.0429 43.226C31.0429 41.1629 27.9601 39.4901 24.1573 39.4901Z" fill="#15D7AC"/>
<path d="M35.1738 45.5087C35.1738 46.2778 34.6901 46.9009 33.9219 46.9009H14.3935C13.6253 46.9009 13.1414 46.2778 13.1414 45.5087V43.7454C13.1414 42.9763 13.6253 42.3534 14.3935 42.3534H33.9219C34.6901 42.3534 35.1738 42.9763 35.1738 43.7454V45.5087Z" fill="#33E6BF"/>
<path d="M33.9217 45.0061C33.9217 45.8139 33.3253 46.4687 32.5889 46.4687H22.8979C22.162 46.4687 21.5654 45.8139 21.5654 45.0061C21.5654 44.1982 22.162 43.543 22.8979 43.543H32.5889C33.3253 43.543 33.9217 44.1982 33.9217 45.0061Z" fill="#04BA91"/>
<path d="M17.9796 45.5087V43.7454C17.9796 42.9763 18.4635 42.3534 19.232 42.3534H14.3935C13.6253 42.3534 13.1414 42.9763 13.1414 43.7454V45.5087C13.1414 46.2778 13.6253 46.9009 14.3935 46.9009H19.232C18.4635 46.9009 17.9796 46.2778 17.9796 45.5087Z" fill="#03FFCF"/>
<path d="M33.9219 42.3534H30.6388C31.4068 42.3534 31.8907 42.9763 31.8907 43.7454V45.5087C31.8907 46.2778 31.4068 46.9009 30.6388 46.9009H33.9219C34.6902 46.9009 35.1738 46.2778 35.1738 45.5087V43.7454C35.1738 42.9763 34.6902 42.3534 33.9219 42.3534Z" fill="#04BA91"/>
<path d="M37.9283 47.5686C37.9283 48.4906 37.4946 49.2382 36.5279 49.2382H11.612C10.6453 49.2382 10.3867 48.4906 10.3867 47.5686V46.472C10.3867 45.5497 10.6453 44.8021 11.612 44.8021H36.5279C37.4946 44.8021 37.9283 45.5497 37.9283 46.472V47.5686Z" fill="#81F8DE"/>
<path d="M19.9928 47.0062C19.0263 47.0062 18.7677 47.7538 18.7677 48.6761V49.2382H36.528C37.4946 49.2382 37.9284 48.4906 37.9284 47.5686V47.0062H19.9928Z" fill="#15D7AC"/>
<path d="M15.2251 47.5686V46.472C15.2251 45.5497 15.4838 44.8021 16.4504 44.8021H11.612C10.6453 44.8021 10.3867 45.5497 10.3867 46.472V47.5686C10.3867 48.4906 10.6453 49.2382 11.612 49.2382H16.4504C15.4838 49.2382 15.2251 48.4906 15.2251 47.5686Z" fill="#A6FBE8"/>
<path d="M36.5279 44.8021H32.2577C33.2246 44.8021 33.6581 45.5497 33.6581 46.472V47.5686C33.6581 48.4906 33.2246 49.2382 32.2577 49.2382H36.5279C37.4946 49.2382 37.9283 48.4906 37.9283 47.5686V46.472C37.9283 45.5497 37.4946 44.8021 36.5279 44.8021Z" fill="#15D7AC"/>
<path d="M10.8949 13.8083V25.3739C10.8949 31.4464 16.1169 36.3689 22.559 36.3689H25.7559C32.1977 36.3689 37.42 31.4464 37.42 25.3739V13.8083H10.8949Z" fill="#81F8DE"/>
<path d="M14.5982 16.0796H10.0959V18.6728H14.5982C15.3139 18.6728 15.8941 18.0921 15.8941 17.3761C15.8941 16.66 15.3139 16.0796 14.5982 16.0796Z" fill="#33E6BF"/>
<path d="M33.7173 18.6728H38.1547V16.0796H33.7173C33.0013 16.0796 32.4209 16.66 32.4209 17.3761C32.4209 18.0921 33.0013 18.6728 33.7173 18.6728Z" fill="#04BA91"/>
<path d="M26.8146 36.322C27.1576 36.2928 27.4956 36.2487 27.8295 36.1922C22.3775 35.2697 18.2389 30.7787 18.2389 25.374V13.8084H16.2087V25.374C16.2087 31.1099 20.8689 35.8175 26.8146 36.322Z" fill="#A6FBE8"/>
<path d="M10.8949 18.7264L37.42 22.7118V14.2898H10.8949V18.7264Z" fill="#15D7AC"/>
<path d="M16.2087 14.2896V19.5248L18.2389 19.8294V14.2896H16.2087Z" fill="#81F8DE"/>
<path d="M14.7828 25.3827V13.8083H10.8949V25.3739C10.8949 31.4464 16.1169 36.3689 22.559 36.3689H23.8507C18.64 35.1276 14.7828 30.6804 14.7828 25.3827Z" fill="#A6FBE8"/>
<path d="M33.1 13.8083V25.3739C33.1 31.2688 28.1788 36.0793 21.9977 36.3556C22.1837 36.3638 22.3707 36.3689 22.5591 36.3689H25.756C32.1978 36.3689 37.4201 31.4464 37.4201 25.3739V13.8083H33.1Z" fill="#15D7AC"/>
<path d="M14.7828 14.2896H10.8949V18.7262L14.7828 19.3103V14.2896Z" fill="#81F8DE"/>
<path d="M38.836 14.4634C38.836 15.3857 38.402 16.1333 37.4351 16.1333H10.7052C9.73847 16.1333 9.47955 15.3857 9.47955 14.4634V13.3665C9.47955 12.4443 9.73847 11.6967 10.7052 11.6967H37.4351C38.402 11.6967 38.836 12.4443 38.836 13.3665V14.4634Z" fill="#33E6BF"/>
<path d="M20.5111 13.9436C19.5442 13.9436 19.2855 14.691 19.2855 15.6135V16.1328H37.4347C38.4016 16.1328 38.8356 15.3852 38.8356 14.463V13.9436H20.5111Z" fill="#04BA91"/>
<path d="M14.318 14.4634V13.3665C14.318 12.4443 14.5769 11.6967 15.5433 11.6967H10.7052C9.73847 11.6967 9.47955 12.4443 9.47955 13.3665V14.4634C9.47955 15.3857 9.73847 16.1333 10.7052 16.1333H15.5433C14.5769 16.1333 14.318 15.3857 14.318 14.4634Z" fill="#03FFCF"/>
<path d="M37.4349 11.6963H32.1648C33.1315 11.6963 33.5652 12.4439 33.5652 13.3661V14.463C33.5652 15.3852 33.1315 16.1328 32.1648 16.1328H37.4349C38.4018 16.1328 38.8358 15.3852 38.8358 14.463V13.3661C38.8358 12.4439 38.4018 11.6963 37.4349 11.6963Z" fill="#04BA91"/>
<path d="M11.9752 20.9181V24.8509C11.9752 24.8509 12.1479 26.4502 13.4871 26.796V21.3504L11.9752 20.9181Z" fill="#81F8DE"/>
<path d="M31.8471 18.0877V20.3672H33.0048C33.0048 20.3672 33.1462 18.0877 31.8471 18.0877Z" fill="#81F8DE"/>
<path d="M12.6877 14.2623C12.6877 14.8236 12.2333 15.2782 11.6725 15.2782C11.1117 15.2782 10.6575 14.8236 10.6575 14.2623V13.6575C10.6575 13.0967 11.1117 12.6421 11.6725 12.6421C12.2333 12.6421 12.6877 13.0967 12.6877 13.6575V14.2623Z" fill="#33E6BF"/>
<path d="M37.3766 14.2623C37.3766 14.8236 36.922 15.2782 36.3614 15.2782C35.8009 15.2782 35.3462 14.8236 35.3462 14.2623V13.6575C35.3462 13.0967 35.8009 12.6421 36.3614 12.6421C36.922 12.6421 37.3766 13.0967 37.3766 13.6575V14.2623Z" fill="#33E6BF"/>
<path d="M36.8582 47.3244C36.8582 47.8855 36.4038 48.3406 35.8432 48.3406C35.2827 48.3406 34.828 47.8855 34.828 47.3244V46.7196C34.828 46.1585 35.2827 45.7042 35.8432 45.7042C36.4038 45.7042 36.8582 46.1585 36.8582 46.7196V47.3244Z" fill="#81F8DE"/>
<path d="M13.7246 47.3893C13.7246 47.9504 13.2702 48.4053 12.7094 48.4053C12.1486 48.4053 11.6944 47.9504 11.6944 47.3893V46.7845C11.6944 46.2235 12.1486 45.7689 12.7094 45.7689C13.2702 45.7689 13.7246 46.2235 13.7246 46.7845V47.3893Z" fill="#81F8DE"/>
<path d="M16.3815 43.8422C16.3815 44.1477 16.0961 44.3953 15.7443 44.3953C15.3923 44.3953 15.1071 44.1477 15.1071 43.8422V43.5129C15.1071 43.2071 15.3923 42.9601 15.7443 42.9601C16.0961 42.9601 16.3815 43.2071 16.3815 43.5129V43.8422Z" fill="#33E6BF"/>
<path d="M25.6727 35.6176C25.3397 35.74 24.9999 35.8485 24.6526 35.942C25.3485 36.1301 26.0711 36.2588 26.8142 36.322L26.8155 36.3217C26.9794 36.3079 27.1418 36.2901 27.3031 36.2697L27.3349 36.266C27.501 36.2445 27.6657 36.2198 27.8294 36.1922C27.0831 36.0659 26.3627 35.8708 25.6727 35.6176Z" fill="#81F8DE"/>
<path d="M14.9993 33.0061L18.2861 33.4119L14.9945 33.78L14.5897 37.0685L14.2215 33.7755L10.9344 33.37L14.2262 33.0019L14.6313 29.7134L14.9993 33.0061Z" fill="white"/>
<path d="M9.56757 24.5167V35.859L14.8338 32.6959L15.0984 24.8037L9.56757 24.5167Z" fill="#33E6BF"/>
<path d="M9.56757 34.4569L14.8721 31.7159L14.8338 32.6954L9.56757 35.8585V34.4569Z" fill="#0439C7"/>
<path opacity="0.5" d="M9.69917 29.5401C10.008 28.3192 10.6256 29.1686 10.6256 30.9058C10.6256 32.643 10.4073 35.3546 10.4073 35.3546L10.8822 35.0103C10.8822 35.0103 10.8505 30.5199 11.0855 29.9794C11.3205 29.4389 12.5868 29.6189 12.5868 34.0456L14.8338 32.6959L15.0984 24.8037L9.56757 24.5167V30.739L9.69917 29.5401Z" fill="#082B44" fill-opacity="0.2"/>
<path d="M38.4319 24.5167V35.859L33.1657 32.6959L32.9011 24.8037L38.4319 24.5167Z" fill="#33E6BF"/>
<path d="M38.4324 34.4569L33.1276 31.7159L33.1662 32.6954L38.4324 35.8585V34.4569Z" fill="#0439C7"/>
<path opacity="0.5" d="M38.3003 29.5401C37.9915 28.3192 37.3738 29.1686 37.3738 30.9058C37.3738 32.643 37.5922 35.3546 37.5922 35.3546L37.1172 35.0103C37.1172 35.0103 37.1489 30.5199 36.9139 29.9794C36.6789 29.4389 35.4127 29.6189 35.4127 34.0456L33.1657 32.6959L32.9011 24.8037L38.4319 24.5167V30.739L38.3003 29.5401Z" fill="#082B44" fill-opacity="0.2"/>
<path d="M22.6267 32.7614V43.8764C19.2681 42.1006 14.2047 36.9275 14.2047 36.9275V29.2437L22.6267 32.7614Z" fill="#33E6BF"/>
<path d="M22.6266 41.6375V43.8765C19.268 42.1007 14.2047 36.9276 14.2047 36.9276V35.0096C15.3729 36.4991 17.8504 39.0276 22.6266 41.6375Z" fill="#0439C7"/>
<path d="M25.4906 32.7613V43.8763C28.8492 42.1005 33.9126 36.9274 33.9126 36.9274V29.2436L25.4906 32.7613Z" fill="#33E6BF"/>
<path d="M25.4906 41.6375V43.8765C28.8492 42.1007 33.9126 36.9276 33.9126 36.9276V35.0096C32.7443 36.4991 30.2668 39.0276 25.4906 41.6375Z" fill="#0439C7"/>
<path opacity="0.5" d="M14.9932 37.7101C14.9932 37.7101 14.9142 32.6089 15.7116 32.6953C16.509 32.7818 17.878 33.5926 18.1779 34.5191C18.4777 35.4455 18.3915 40.817 18.3915 40.817L18.693 41.0675C18.693 41.0675 18.3194 34.5421 18.94 34.8622C19.5609 35.1823 20.3882 35.7794 20.6761 37.2363C20.964 38.6931 21.0502 42.9312 21.0502 42.9312L22.6267 43.8764V32.7614L14.2047 29.2437V36.9275L14.9932 37.7101Z" fill="#082B44" fill-opacity="0.2"/>
<path opacity="0.5" d="M33.1239 37.7097C33.1239 37.7097 33.1894 31.7321 32.392 31.8186C31.5946 31.9051 31.5631 34.9335 31.5631 35.858C31.5631 36.8319 31.4348 39.3059 31.4348 39.3059L30.9855 39.7139C30.9855 39.7139 31.0517 32.9161 30.4308 33.2362C29.8099 33.5563 27.0882 35.6585 26.8003 37.1154C26.5124 38.5722 26.6215 43.1982 26.6215 43.1982L25.4906 43.8763V32.7613L33.9126 29.2436V36.9274L33.1239 37.7097Z" fill="#082B44" fill-opacity="0.2"/>
<path d="M27.4548 15.8298L45.9495 15.7102L44.2229 18.8138L28.4052 19.2507L27.4548 15.8298Z" fill="#81F8DE"/>
<path d="M44.2988 15.7102L42.1562 15.724L40.3224 18.8998L42.5228 18.8389L44.2988 15.7102Z" fill="#0439C7"/>
<path opacity="0.5" d="M28.2682 18.2812L44.73 17.9029L44.2231 18.8138L28.4054 19.2507L28.2682 18.2812Z" fill="#81F8DE"/>
<path opacity="0.5" d="M37.9417 15.9859C37.8028 16.1372 38.4446 17.7539 38.7078 17.7043C38.971 17.6547 44.3134 17.752 44.5524 17.587C44.7914 17.422 45.6878 16.0611 45.4922 15.8975C45.2967 15.7342 38.0752 15.8406 37.9417 15.9859Z" fill="white"/>
<path opacity="0.5" d="M37.5656 15.751C37.5656 15.751 38.2617 17.64 38.2869 18.0508C38.312 18.4616 38.0269 18.9848 38.0269 18.9848L28.4052 19.2506L27.4548 15.8295L37.5656 15.751Z" fill="#81F8DE"/>
<path d="M20.6639 15.8298L2.16925 15.7102L3.89591 18.8138L19.7135 19.2507L20.6639 15.8298Z" fill="#81F8DE"/>
<path d="M3.78033 15.7258L5.92296 15.7397L7.757 18.9156L5.55657 18.8548L3.78033 15.7258Z" fill="#0439C7"/>
<path opacity="0.5" d="M19.8502 18.2812L3.38843 17.9029L3.89536 18.8138L19.713 19.2507L19.8502 18.2812Z" fill="#81F8DE"/>
<path opacity="0.5" d="M10.0481 15.9173C10.508 16.3528 9.68428 17.8367 9.42107 17.7871C9.15785 17.7375 3.80588 17.7516 3.56687 17.5866C3.32786 17.4217 2.43151 16.0607 2.62704 15.8971C2.82257 15.7338 9.78204 15.6654 10.0481 15.9173Z" fill="white"/>
<path opacity="0.5" d="M10.5535 15.751C10.5535 15.751 9.85741 17.64 9.83226 18.0508C9.80711 18.4616 10.0922 18.9848 10.0922 18.9848L19.7139 19.2506L20.6643 15.8295L10.5535 15.751Z" fill="#81F8DE"/>
<path d="M29.5053 11.8325L48.0002 11.7128L46.2736 14.8167L30.4557 15.2536L29.5053 11.8325Z" fill="#A6FBE8"/>
<path d="M46.4605 11.7202L44.3178 11.7341L42.484 14.9098L44.6845 14.8492L46.4605 11.7202Z" fill="#0439C7"/>
<path opacity="0.5" d="M30.3187 14.2841L46.7802 13.906L46.2735 14.8169L30.4557 15.2538L30.3187 14.2841Z" fill="#81F8DE"/>
<path opacity="0.5" d="M39.9918 11.9885C39.8527 12.1399 40.4947 13.7565 40.7579 13.707C41.0212 13.6574 46.3635 13.7547 46.6025 13.5897C46.8415 13.4247 47.7379 12.0637 47.5423 11.9002C47.347 11.7368 40.1253 11.8433 39.9918 11.9885Z" fill="white"/>
<path opacity="0.5" d="M37.1994 11.784C37.1994 11.784 37.8956 13.6731 37.9207 14.0839C37.9458 14.4947 37.6608 15.0178 37.6608 15.0178L30.4557 15.2533L29.5053 11.8322L37.1994 11.784Z" fill="#A6FBE8"/>
<path d="M18.4947 11.8325L0 11.7128L1.72665 14.8167L17.5445 15.2536L18.4947 11.8325Z" fill="#A6FBE8"/>
<path d="M1.59198 11.7319L3.73461 11.7458L5.56866 14.9218L3.36821 14.8609L1.59198 11.7319Z" fill="#0439C7"/>
<path opacity="0.5" d="M17.6812 14.2841L1.2196 13.906L1.72628 14.8169L17.5442 15.2538L17.6812 14.2841Z" fill="#33E6BF"/>
<path opacity="0.5" d="M7.87927 11.92C8.33919 12.3555 7.51546 13.8393 7.25225 13.7898C6.98903 13.7402 1.63706 13.7543 1.39805 13.5893C1.15904 13.4243 0.262686 12.0633 0.458218 11.8998C0.653515 11.7364 7.61323 11.668 7.87927 11.92Z" fill="white"/>
<path opacity="0.5" d="M10.9064 11.784C10.9064 11.784 10.2103 13.6731 10.1851 14.0839C10.16 14.4947 10.445 15.0178 10.445 15.0178L17.5446 15.2535L18.495 11.8324L10.9064 11.784Z" fill="#33E6BF"/>
<path d="M11.9221 27.2924C11.8908 27.401 7.3097 25.8087 7.3097 25.8087C5.27659 22.6903 4.42725 20.2279 4.42725 20.2279H12.2511L11.9221 27.2924Z" fill="#81F8DE"/>
<path d="M5.91962 20.2281C5.91962 20.2281 7.74685 24.0017 8.08151 24.4099L12.0373 24.5159V24.2457C12.0373 24.2457 8.41616 24.2769 8.21029 24.123C8.00442 23.969 6.15133 20.2281 6.15133 20.2281H5.91962Z" fill="#395473" fill-opacity="0.2"/>
<path d="M5.91962 20.2281L8.08151 24.4099C8.08151 24.4099 7.29021 23.2877 6.80749 22.319C6.32501 21.3503 5.91962 20.2281 5.91962 20.2281Z" fill="white"/>
<path opacity="0.5" d="M6.47945 20.4848C6.78215 21.3868 7.98495 23.4354 8.23594 23.4354C8.48694 23.4354 11.3889 23.384 11.6559 22.9656C11.9228 22.5473 12.1527 20.5259 11.9219 20.4848C11.6909 20.4435 6.34431 20.082 6.47945 20.4848Z" fill="white"/>
<path opacity="0.5" d="M4.68423 20.3851C5.05766 21.2702 6.09338 23.5188 6.28632 23.5444C6.47927 23.57 7.12602 23.653 7.13565 23.3825C7.15116 22.9529 5.93896 20.4429 5.66869 20.3851C5.39843 20.3273 4.59257 20.1682 4.68423 20.3851Z" fill="white"/>
<path opacity="0.5" d="M6.47693 23.8405C6.44214 24.1195 7.48326 25.5585 7.65693 25.6744C7.83061 25.7902 11.3436 26.9239 11.5753 26.7625C11.8071 26.601 11.9278 23.6333 11.7349 23.5472C11.5417 23.461 6.51547 23.5317 6.47693 23.8405Z" fill="#33E6BF"/>
<path opacity="0.5" d="M9.62097 20.2281C9.62097 20.2281 10.251 23.6099 10.1161 26.762L11.9213 27.2926L12.2503 20.2281H9.62097Z" fill="#81F8DE"/>
<path d="M36.1938 27.2926C36.2251 27.4012 40.8062 25.809 40.8062 25.809C42.8393 22.6906 43.6887 20.2281 43.6887 20.2281H35.8648L36.1938 27.2926Z" fill="#81F8DE"/>
<path d="M42.1956 20.2283C42.1956 20.2283 40.3684 24.0019 40.0338 24.4102L36.078 24.5162V24.2459C36.078 24.2459 39.6991 24.2771 39.905 24.1232C40.1108 23.9693 41.9639 20.2283 41.9639 20.2283H42.1956Z" fill="#395473" fill-opacity="0.2"/>
<path d="M42.196 20.2283L40.0341 24.4102C40.0341 24.4102 40.8254 23.288 41.3081 22.3192C41.7909 21.3505 42.196 20.2283 42.196 20.2283Z" fill="white"/>
<path opacity="0.5" d="M41.6366 20.485C41.3339 21.387 40.1311 23.4356 39.8801 23.4356C39.6291 23.4356 36.7272 23.3842 36.4602 22.9659C36.1932 22.5475 35.9634 20.5262 36.1941 20.485C36.4249 20.4437 41.7717 20.0822 41.6366 20.485Z" fill="white"/>
<path opacity="0.5" d="M43.4319 20.3853C43.0584 21.2704 42.0227 23.519 41.8298 23.5446C41.6368 23.5703 40.9901 23.6532 40.9804 23.3827C40.9649 22.9531 42.1771 20.4432 42.4474 20.3853C42.7177 20.3275 43.5233 20.1684 43.4319 20.3853Z" fill="white"/>
<path opacity="0.5" d="M41.6394 23.8408C41.6742 24.1197 40.6331 25.5587 40.4594 25.6746C40.2858 25.7904 36.7728 26.9242 36.541 26.7627C36.3093 26.6013 36.1885 23.6335 36.3815 23.5475C36.5746 23.4612 41.6009 23.532 41.6394 23.8408Z" fill="#15D7AC"/>
<path opacity="0.5" d="M38.4941 20.2281C38.4941 20.2281 37.8641 23.6099 37.999 26.762L36.1938 27.2926L35.8648 20.2281H38.4941Z" fill="#81F8DE"/>
<path d="M24.108 3.89293L11.2997 11.2879V28.9314L24.108 36.3263L36.9165 28.9314V11.2879L24.108 3.89293Z" fill="#81F8DE"/>
<path d="M13.6161 27.5939V12.6249L24.1081 6.5674L34.6003 12.6249V27.5939L24.1081 33.6514L13.6161 27.5939Z" fill="#81F8DE"/>
<path d="M14.3887 27.1486V13.0712L24.1085 7.45932L33.8284 13.0712V27.1486L24.1085 32.7603L14.3887 27.1486Z" fill="#0439C7"/>
<path opacity="0.5" d="M11.6197 11.3346C11.4617 11.8086 12.8225 12.3919 13.7816 12.1839C14.7407 11.9759 23.7549 6.6862 23.9732 6.21312C24.0341 6.08128 24.0439 4.23148 23.9732 4.23148C23.6562 4.23124 11.697 11.1028 11.6197 11.3346Z" fill="white"/>
<path opacity="0.5" d="M36.5347 11.3346C36.6926 11.8086 35.3319 12.3919 34.3728 12.1839C33.4137 11.9759 24.4848 6.63661 24.1812 6.21312C24.0244 5.99432 23.973 4.23148 24.1812 4.23148C24.4984 4.23124 36.4576 11.1028 36.5347 11.3346Z" fill="white"/>
<path opacity="0.5" d="M11.607 21.369C11.5209 21.8966 11.3113 28.5752 11.607 28.6267C11.9026 28.6781 13.2925 27.7259 13.3696 27.2885C13.4469 26.8509 13.4725 22.2698 13.3696 21.8324C13.2669 21.3948 11.7503 20.4902 11.607 21.369Z" fill="#33E6BF"/>
<path opacity="0.5" d="M36.5599 21.369C36.6459 21.8966 36.8555 28.5752 36.5599 28.6267C36.2642 28.6781 34.8743 27.7259 34.7972 27.2885C34.7199 26.8509 34.6943 22.2698 34.7972 21.8324C34.8999 21.3948 36.4165 20.4902 36.5599 21.369Z" fill="#33E6BF"/>
<path opacity="0.5" d="M11.9283 28.8087C12.0834 29.0371 23.6184 35.8572 23.7923 35.8572C23.8797 35.8572 23.9954 34.1623 23.9954 33.9731C23.9954 33.446 13.7943 28.0286 13.6157 27.9783C13.3523 27.9043 11.7711 28.5772 11.9283 28.8087Z" fill="#33E6BF"/>
<path opacity="0.5" d="M36.3085 28.9868C36.1534 29.2152 24.4023 36.0128 24.2283 36.0128C24.1905 36.0128 24.1884 33.9035 24.2667 33.8253C24.6394 33.4525 34.368 28.0286 34.5464 27.9786C34.8101 27.9043 36.4658 28.7553 36.3085 28.9868Z" fill="url(#paint0_linear_13598_12829)"/>
<path opacity="0.5" d="M14.8335 26.7736C14.1461 22.8729 14.5291 22.6271 19.3676 20.9794C24.2061 19.3317 32.3912 15.0836 33.1096 16.928C33.828 18.7726 33.5817 26.6202 33.4184 27.0496C33.2553 27.4789 24.8059 32.3343 24.1081 32.3458C23.4103 32.3573 14.9106 27.2119 14.8335 26.7736Z" fill="#0439C7"/>
<path opacity="0.3" d="M33.6189 13.1683C33.4483 13.1269 24.6644 8.05039 24.1685 8.08799C23.698 8.12371 17.5776 10.986 15.0683 13.1488C14.3992 13.7255 14.6436 22.3378 15.2612 22.1792C15.8789 22.0206 16.339 18.5402 23.1366 16.5845C29.83 14.6588 32.7416 16.3248 33.4678 16.623C33.6732 16.7076 34.0074 13.2623 33.6189 13.1683Z" fill="white"/>
<path opacity="0.5" d="M13.6161 27.5939V12.6249L24.1081 6.5674L34.6001 12.6249V27.5939L33.8281 27.1481C33.8281 27.1481 33.8748 14.1363 33.5949 13.728C32.5968 12.2719 24.8353 8.73141 23.5613 9.12553C22.2579 9.52881 15.3567 12.467 14.5844 13.7022C14.3245 14.1182 14.3879 27.1481 14.3879 27.1481L13.6161 27.5939Z" fill="#33E6BF"/>
<path opacity="0.2" d="M26.069 14.6687C28.6831 15.8602 32.6207 15.8811 32.9813 15.6539C33.3415 15.4268 33.5813 13.7491 33.0151 13.4661C32.449 13.1829 27.9625 10.7942 26.7788 11.0516C25.5948 11.3092 25.607 14.4581 26.069 14.6687Z" fill="white"/>
<path d="M11.2997 16.6629C11.2997 16.6234 11.4104 11.6869 11.6196 11.3347C11.8288 10.9824 23.8323 4.32606 24.1813 4.23135C24.5303 4.13687 29.0269 6.73284 29.0269 6.73284L24.108 3.89293L11.2997 11.2879V16.6629Z" fill="#4879FD"/>
<path d="M28.6924 9.21408C28.6924 9.21408 34.3191 12.4152 34.3962 12.7757C34.4733 13.136 34.6 22.8099 34.6 22.8099C34.6 22.8099 34.6533 13.0375 34.6 12.6248C34.5466 12.2122 28.6924 9.21408 28.6924 9.21408Z" fill="white"/>
<path d="M13.616 20.8283C13.616 20.8283 13.4292 12.7358 13.5241 12.4733C13.619 12.2108 24.1082 6.5674 24.1082 6.5674C24.1082 6.5674 13.98 12.3574 13.7713 12.7243C13.5626 13.0912 13.616 20.8283 13.616 20.8283Z" fill="white"/>
<path d="M11.2997 28.9316L24.108 36.3265L36.9163 28.9316V24.913C36.9163 24.913 36.8091 28.4213 36.5473 28.8585C36.2855 29.2956 24.8126 35.9681 24.2281 36.0132C23.6436 36.0584 11.9141 29.0902 11.6069 28.6267C11.2997 28.1635 11.2997 19.9406 11.2997 19.9406V28.9316Z" fill="#4879FD"/>
<path d="M13.6159 23.7626C13.6159 23.7626 13.5797 27.215 13.771 27.5048C13.9626 27.7945 18.9395 30.6681 18.9395 30.6681C18.9395 30.6681 13.5473 27.8806 13.497 27.7005C13.4467 27.52 13.6159 23.7626 13.6159 23.7626Z" fill="white"/>
<path opacity="0.5" d="M17.949 30.737C17.5709 30.7379 16.5117 31.1621 16.7406 31.4127C16.9253 31.6148 23.2745 35.4648 23.9948 35.7294C24.2298 35.8157 24.2072 34.3149 23.8918 33.83C23.7567 33.6227 19.1204 30.7339 17.949 30.737Z" fill="white"/>
<path d="M28.6186 6.80542C28.3112 6.88838 29.3391 8.18238 29.8282 8.29824C30.3173 8.4141 30.9864 8.06651 30.7546 7.82844C30.5229 7.59037 29.0947 6.67687 28.6186 6.80542Z" fill="white"/>
<path d="M30.8962 8.08821C30.4301 8.213 31.2898 10.2572 31.6576 10.6207C32.0257 10.9843 35.2945 11.6216 35.2195 11.0325C35.1445 10.4433 31.5507 7.91312 30.8962 8.08821Z" fill="white"/>
<path opacity="0.5" d="M30.0147 30.7716C29.7388 31.9762 29.783 32.6865 29.9376 32.6942C30.092 32.7017 35.6931 29.3309 35.8459 29.1826C35.9986 29.0343 34.9481 28.0668 34.5154 28.1331C34.0828 28.1996 30.1176 30.3213 30.0147 30.7716Z" fill="#81F8DE"/>
<path opacity="0.5" d="M14.2966 12.9687C14.1612 12.5628 13.7471 12.5654 13.7095 13.0178C13.6719 13.4702 13.607 21.8579 13.7718 21.8706C13.9365 21.8835 14.2839 21.4718 14.2968 21.2786C14.3095 21.0856 14.3609 13.1616 14.2966 12.9687Z" fill="#81F8DE"/>
<path opacity="0.5" d="M33.9206 13.0202C33.8985 13.18 33.8176 21.0986 33.9206 21.0986C34.0235 21.0986 34.4867 20.7254 34.4867 20.5325C34.4867 20.3395 34.3709 12.8531 34.3194 12.8146C34.2679 12.7758 33.9384 12.891 33.9206 13.0202Z" fill="#33E6BF"/>
<path opacity="0.5" d="M24.1083 7.32932C24.1083 7.4849 19.5948 10.0607 19.4886 10.0607C19.3824 10.0607 19.4212 9.36572 19.5659 9.26936C19.7107 9.17277 24.0761 6.54767 24.1083 6.63462C24.1407 6.72134 24.1083 7.19983 24.1083 7.32932Z" fill="#81F8DE"/>
<path d="M33.4236 28.1942C33.1355 28.1831 32.1618 28.7493 32.2356 29.0261C32.3094 29.303 32.9054 29.6019 33.0636 29.4416C33.222 29.2814 33.6123 28.2015 33.4236 28.1942Z" fill="#395473" fill-opacity="0.2"/>
<path d="M33.7949 28.3891C33.6957 28.4805 33.4799 28.8048 33.6853 28.9632C33.891 29.1216 34.4959 28.7038 34.4066 28.5809C34.3173 28.4582 33.9227 28.2711 33.7949 28.3891Z" fill="#395473" fill-opacity="0.2"/>
<path opacity="0.5" d="M32.3785 28.7481C32.1386 29.0734 33.123 29.2891 33.2514 29.0156C33.3797 28.742 33.5851 28.1655 33.4236 28.1942C33.2622 28.2229 32.5094 28.5709 32.3785 28.7481Z" fill="#81F8DE"/>
<path d="M32.2403 28.9466C32.2403 28.9466 32.3207 29.2235 32.6126 29.3948C32.8419 29.5295 33.0394 29.4991 33.0976 29.3995C33.0976 29.3995 32.9183 29.6331 32.6201 29.4937C32.1529 29.2756 32.2403 28.9466 32.2403 28.9466Z" fill="#DAE7EF"/>
<path opacity="0.5" d="M33.9044 28.3973C33.6821 28.6368 33.8548 28.9822 33.9796 28.9627C34.1047 28.9432 34.4767 28.6974 34.4066 28.5806C34.3366 28.4638 33.9531 28.3449 33.9044 28.3973Z" fill="#81F8DE"/>
<path d="M33.7945 28.3889C33.7945 28.3889 33.59 28.6697 33.672 28.8317C33.7541 28.9936 33.8699 28.9927 33.8699 28.9927C33.8699 28.9927 33.6055 29.1464 33.5569 28.9661C33.4727 28.6542 33.7945 28.3889 33.7945 28.3889Z" fill="#DAE7EF"/>
<path d="M22.7902 7.24127C22.1002 7.0589 21.5425 7.50613 21.2401 7.84949C20.9376 8.19285 21.1063 8.39707 21.4866 8.32939C21.8671 8.26194 23.0812 7.31812 22.7902 7.24127Z" fill="#395473" fill-opacity="0.2"/>
<path opacity="0.5" d="M22.79 7.24165C22.3232 7.08231 21.7329 7.39159 21.5474 7.5561C21.362 7.72061 21.7265 8.18711 21.9778 8.0877C22.229 7.98852 23.0027 7.31427 22.79 7.24165Z" fill="#81F8DE"/>
<path d="M21.4136 7.67216C21.4136 7.67216 20.6341 8.18285 20.7215 8.43596C20.8089 8.68907 21.7436 8.22751 21.7436 8.22751C21.7436 8.22751 21.259 8.38567 21.1492 8.1704C21.0392 7.95513 21.4136 7.67216 21.4136 7.67216Z" fill="white"/>
<path d="M14.0626 27.6967C13.6955 27.7886 14.7836 28.5357 15.0409 28.5743C15.2983 28.6128 15.0445 27.9574 14.9199 27.8448C14.8282 27.7621 14.2684 27.6453 14.0626 27.6967Z" fill="white"/>
<path d="M24.0981 28.4174L10.876 20.7061C10.3649 21.8713 10.245 22.9649 10.245 22.9649L11.1077 24.4231L24.0981 31.9678L37.0886 24.4231L37.8709 22.9649C37.8709 22.9649 37.8726 21.8713 37.3974 20.7061L24.0981 28.4174Z" fill="#81F8DE"/>
<path d="M11.1078 24.4231L10.2451 22.9648L24.0982 31.0801L37.8712 22.9648L37.0889 24.4231L24.0982 31.9678L11.1078 24.4231Z" fill="#81F8DE"/>
<path opacity="0.5" d="M10.2451 22.9648L11.1078 24.4231L11.3045 24.5444L11.3 24.9787C11.3 24.9787 12.0413 25.3563 13.4974 26.1606C13.5468 26.1878 14.4123 27.102 14.4123 27.102C14.4123 27.102 23.7704 32.7605 24.1085 32.7605C24.5452 32.7605 33.8292 26.977 33.8292 26.977C33.8292 26.977 34.5521 26.3697 34.6243 26.3274L36.9168 25.127V24.5232L37.0889 24.4233L37.8712 22.9651L24.0984 31.0796L10.2451 22.9648Z" fill="#81F8DE"/>
<path opacity="0.5" d="M24.0983 28.4172V31.0802L37.8711 22.9649C37.8711 22.9649 37.8161 21.6298 37.3976 20.7062L24.0983 28.4172Z" fill="#33E6BF"/>
<path opacity="0.5" d="M11.5565 21.2912C11.3036 21.2912 11.5109 23.5302 12.2794 24.0451C13.4998 24.8627 20.8586 29.2002 21.3406 29.2053C21.6736 29.2089 21.6562 27.3069 21.5561 27.1593C21.3665 26.8796 11.9339 21.2912 11.5565 21.2912Z" fill="white"/>
<path opacity="0.5" d="M28.1871 26.1168C28.0273 26.2817 28.0492 28.3745 28.3223 28.3123C28.5954 28.25 32.7546 26.0291 34.7161 24.5889C36.6775 23.1488 36.9543 21.2498 36.513 21.2919C36.513 21.2919 28.5154 25.7779 28.1871 26.1168Z" fill="white"/>
<path d="M17.3613 27.1337C17.3613 27.1337 23.6924 30.9301 24.0978 30.9301C24.5032 30.9301 29.5576 27.8624 29.5576 27.8624C29.5576 27.8624 24.2524 31.2262 24.1079 31.2262C23.9956 31.226 17.3613 27.1337 17.3613 27.1337Z" fill="white"/>
<path opacity="0.5" d="M19.3307 6.65186C19.3307 6.65186 19.221 7.28758 19.2487 7.40532C19.2764 7.52306 20.1643 8.84549 20.1643 8.84549V9.73713L24.1431 13.4614L28.0784 9.86051L28.2514 8.9872C28.2514 8.9872 29.1336 7.59662 29.1336 7.40532C29.1336 7.21402 28.3212 6.31744 28.3212 6.31744L24.1093 3.89326L19.3307 6.65186Z" fill="#81F8DE"/>
<path d="M28.7781 7.09446L28.7577 7.06649L24.1904 0.794197L24.1667 0.761765L24.1429 0.794197L19.5754 7.06649L19.555 7.09446L19.5754 7.12243L24.1429 13.3947L24.142 13.461L24.1667 13.4272L24.1913 13.461L24.1904 13.3947L28.7577 7.12243L28.7781 7.09446Z" fill="#A6FBE8"/>
<path opacity="0.5" d="M20.5112 7.0949V7.09443L24.167 2.07382L27.8234 7.09467L24.1673 12.1155L24.167 12.1157L20.5112 7.0949Z" fill="#81F8DE"/>
<path d="M20.7021 7.09455L24.1671 2.33598L27.6324 7.09455L24.1671 11.8531L20.7021 7.09455Z" fill="#33E6BF"/>
<path opacity="0.5" d="M24.111 1.10141C23.7019 1.49318 19.8037 6.78147 19.8808 6.92695C19.9581 7.07242 21.4812 7.07548 24.4064 7.04187C27.3316 7.00803 28.537 7.0132 28.5629 6.92695C28.5883 6.8407 24.1867 1.02902 24.111 1.10141Z" fill="white"/>
<path opacity="0.5" d="M19.7569 7.11098C19.7019 7.33964 23.9641 13.1468 24.2341 13.0557C24.5042 12.9645 28.7088 7.24728 28.4256 7.09429C28.1427 6.94129 19.8074 6.90158 19.7569 7.11098Z" fill="#33E6BF"/>
<path opacity="0.5" d="M24.1373 22.0576L19.2659 24.6186L20.1961 19.1942L16.2552 15.3527L21.7016 14.5612L24.1373 9.62585L26.573 14.5612L32.0195 15.3527L28.0783 19.1942L29.0087 24.6186L24.1373 22.0576Z" fill="#209179"/>
<path d="M31.4501 15.5376L28.8217 15.1554L28.1037 15.0511L26.3971 14.8032L24.1372 10.2244L21.8773 14.8032L16.8242 15.5376L20.4806 19.1016L19.6174 24.1344L24.1372 21.7582L28.6567 24.1344L27.7935 19.1016L31.4501 15.5376Z" fill="white"/>
<path opacity="0.5" d="M16.7983 15.538L24.2421 17.4839L20.4546 19.102L16.7983 15.538Z" fill="#33E6BF"/>
<path opacity="0.5" d="M31.4243 15.538L24.2422 17.4839L27.7677 19.102L31.4243 15.538Z" fill="#33E6BF"/>
<path opacity="0.5" d="M24.1106 21.7584L24.2415 17.4837L19.5908 24.1346L24.1106 21.7584Z" fill="#33E6BF"/>
<path opacity="0.5" d="M28.6308 24.1346L24.2421 17.4837L24.1112 21.7584L28.6308 24.1346Z" fill="#33E6BF"/>
<path opacity="0.5" d="M24.1112 10.2247L24.2421 17.4838L26.3711 14.8034L24.1112 10.2247Z" fill="#A6FBE8"/>
<path opacity="0.5" d="M31.4243 15.5381L24.2422 17.484L26.3712 14.8036L31.4243 15.5381Z" fill="#A6FBE8"/>
<path opacity="0.5" d="M31.4243 15.5381L24.2422 17.484L26.3712 14.8036L31.4243 15.5381Z" fill="#A6FBE8"/>
<path opacity="0.5" d="M21.8513 14.8036L24.2421 17.484L16.7983 15.5381L21.8513 14.8036Z" fill="#A6FBE8"/>
<path opacity="0.8" d="M26.3713 16.3965C25.9958 16.7142 26.3163 16.9222 26.3163 16.9222L28.2512 16.3979C28.2512 16.3979 27.2392 15.6623 26.3713 16.3965Z" fill="white"/>
<path opacity="0.5" d="M19.6171 24.1344C19.6171 24.1344 23.0453 22.5196 24.1369 22.0698L28.6565 24.1344L24.1369 21.7582L19.6171 24.1344Z" fill="#209179"/>
<path opacity="0.5" d="M16.7986 15.5377L24.2424 17.4836L20.1553 21.0002L16.7986 15.5377Z" fill="#209179"/>
<path opacity="0.5" d="M31.4242 15.5377L24.2421 17.4836L28.1995 21.4685L31.4242 15.5377Z" fill="#33E6BF"/>
<path opacity="0.5" d="M19.6171 24.1348L24.242 17.4839L28.6565 24.1348L24.1369 23.4208L19.6171 24.1348Z" fill="#209179"/>
<path opacity="0.4" d="M22.455 14.0116C21.9743 15.3448 23.8056 16.2755 24.0521 15.8654C24.2986 15.4555 24.1421 13.1657 23.8328 12.8567C23.5238 12.5477 22.6519 13.4661 22.455 14.0116Z" fill="#F7FFFF"/>
<path opacity="0.4" d="M20.957 20.8404C21.9302 20.9725 22.4752 19.8642 22.6804 19.1016C23.0106 17.8732 19.1879 20.6005 20.957 20.8404Z" fill="#F7FFFF"/>
<path opacity="0.5" d="M24.1086 8.43288L22.7873 9.12759L23.0397 7.65616L21.9706 6.61434L23.4479 6.39954L24.1086 5.0609L24.7694 6.39954L26.2467 6.61434L25.1776 7.65616L25.4301 9.12759L24.1086 8.43288Z" fill="#81F8DE"/>
<path d="M26.0807 6.66826L25.3719 6.56533L25.1782 6.53713L24.7178 6.47038L24.1084 5.23538L23.499 6.47038L22.1364 6.66826L23.1225 7.62947L22.8896 8.98668L24.1084 8.3458L25.3274 8.98668L25.0945 7.62947L26.0807 6.66826Z" fill="white"/>
<path opacity="0.5" d="M22.1305 6.6684L24.138 7.19318L23.1166 7.6296L22.1305 6.6684Z" fill="#33E6BF"/>
<path opacity="0.5" d="M26.0755 6.6684L24.1387 7.19318L25.0894 7.6296L26.0755 6.6684Z" fill="#33E6BF"/>
<path opacity="0.5" d="M24.1023 8.3463L24.1376 7.19356L22.8835 8.98718L24.1023 8.3463Z" fill="#33E6BF"/>
<path opacity="0.5" d="M25.3215 8.98718L24.138 7.19356L24.1027 8.3463L25.3215 8.98718Z" fill="#15D7AC"/>
<path opacity="0.5" d="M24.1027 5.23567L24.138 7.19334L24.7121 6.47067L24.1027 5.23567Z" fill="#A6FBE8"/>
<path opacity="0.5" d="M26.0755 6.6688L24.1387 7.19358L24.7129 6.47092L26.0755 6.6688Z" fill="#81F8DE"/>
<path opacity="0.5" d="M26.0755 6.6688L24.1387 7.19358L24.7129 6.47092L26.0755 6.6688Z" fill="#A6FBE8"/>
<path opacity="0.5" d="M23.4933 6.47092L24.138 7.19358L22.1305 6.6688L23.4933 6.47092Z" fill="#A6FBE8"/>
<path opacity="0.8" d="M24.7118 6.9C24.6105 6.98554 24.697 7.04171 24.697 7.04171L25.2187 6.90023C25.2187 6.90023 24.9459 6.70188 24.7118 6.9Z" fill="white"/>
<path opacity="0.5" d="M22.8899 8.98649C22.8899 8.98649 23.8144 8.55101 24.1087 8.42975L25.3275 8.98649L24.1087 8.34561L22.8899 8.98649Z" fill="#81F8DE"/>
<path opacity="0.5" d="M22.1299 6.66809L24.1374 7.19288L23.0352 8.14116L22.1299 6.66809Z" fill="#81F8DE"/>
<path opacity="0.5" d="M26.0736 6.66809L24.1368 7.19288L25.204 8.2676L26.0736 6.66809Z" fill="#33E6BF"/>
<path opacity="0.5" d="M22.8899 8.98647L24.1371 7.19284L25.3277 8.98647L24.1087 8.79399L22.8899 8.98647Z" fill="#81F8DE"/>
<path opacity="0.4" d="M23.6545 6.25659C23.5248 6.61616 24.0188 6.86716 24.0853 6.75647C24.1518 6.64601 24.1095 6.02839 24.0263 5.9452C23.9431 5.862 23.7077 6.10947 23.6545 6.25659Z" fill="#F7FFFF"/>
<path opacity="0.4" d="M23.2509 8.09819C23.5134 8.13368 23.6603 7.83498 23.7155 7.62934C23.8046 7.29797 22.7738 8.03356 23.2509 8.09819Z" fill="#F7FFFF"/>
<defs>
<linearGradient id="paint0_linear_13598_12829" x1="28.5923" y1="27.4921" x2="33.0319" y2="40.6564" gradientUnits="userSpaceOnUse">
<stop stop-color="#81F8DE"/>
<stop offset="1" stop-color="white"/>
</linearGradient>
</defs>
</svg>
