<svg width="68" height="64" viewBox="0 0 68 64" fill="none" xmlns="http://www.w3.org/2000/svg">
<path d="M22.6426 25.6835V33.3013L25.5967 33.7446V25.6835H22.6426Z" fill="#584720"/>
<path d="M16.4844 35.3292V41.052C16.4844 41.052 16.7357 43.3791 18.6843 43.8823V35.9583L16.4844 35.3292Z" fill="#584720"/>
<path d="M45.4004 31.21V34.5269H47.085C47.085 34.5269 47.2907 31.21 45.4004 31.21Z" fill="#584720"/>
<path d="M17.0601 32.0476L15.7363 27.8885L17.0485 26.2351L25.9391 20.8739V10.4981L27.068 9.68282L30.6324 7.09442V24.7953L17.0601 32.0476Z" fill="#584720"/>
<path d="M15.7363 27.8892L27.068 21.3995V9.68347L25.9391 10.4987V20.8746L17.0485 26.2357L15.7363 27.8892Z" fill="#584720"/>
<path opacity="0.5" d="M27.3253 9.68315C27.2664 10.3476 27.3783 18.5929 27.7644 18.7858C28.1508 18.979 30.15 17.8471 30.3158 17.3936C30.482 16.9398 30.3835 8.11656 30.1099 8.14871C29.8364 8.18085 27.3663 9.2184 27.3253 9.68315Z" fill="white" fill-opacity="0.7"/>
<path opacity="0.5" d="M27.3921 21.5504C26.3819 22.3818 16.3077 27.8879 16.1702 28.246C15.9937 28.7056 17.3309 30.8515 17.9673 30.6716C18.604 30.492 30.594 23.6967 30.6169 23.3749C30.6401 23.0531 30.6723 21.2881 30.3826 21.1726C30.093 21.057 27.7782 21.2327 27.3921 21.5504Z" fill="#A26E3B"/>
<path d="M15.7363 28.2462L27.3046 21.5295L27.3676 9.4848L27.068 9.6828V21.3988L15.7363 27.8885V28.2462Z" fill="#395473" fill-opacity="0.2"/>
<path opacity="0.5" d="M26.0589 20.9935C25.3996 21.0362 17.174 26.3159 17.174 26.4661C17.174 26.6162 15.7244 27.5111 16.0767 27.4889C16.4289 27.4667 26.8252 21.5916 26.8393 21.3997C26.8529 21.2079 26.4142 20.9702 26.0589 20.9935Z" fill="white" fill-opacity="0.7"/>
<path d="M15.7363 28.2464C15.7363 28.2464 21.211 25.4846 24.0107 23.7217C26.8105 21.9588 27.3929 21.5512 27.3929 21.5512L15.7363 28.2464Z" fill="white" fill-opacity="0.7"/>
<path opacity="0.5" d="M25.9409 19.5428L27.0697 18.5723H27.3125L30.6341 16.756V24.7948L26.8413 26.7051L24.9844 21.4503L25.9409 20.8734V19.5428Z" fill="#584720"/>
<path d="M51.0741 32.0476L52.3979 27.8885L51.0857 26.2351L42.1951 20.8739V10.4981L41.0663 9.68282L37.4297 7.09442V24.7567L51.0741 32.0476Z" fill="#A26E3B"/>
<path d="M52.3981 27.8895L41.0664 21.3998V9.68378L42.1953 10.499V20.8749L51.0859 26.236L52.3981 27.8895Z" fill="#A26E3B"/>
<path opacity="0.5" d="M40.6202 9.68252C40.679 10.347 40.8452 18.5923 40.4588 18.7852C40.0723 18.9784 37.9285 17.7343 37.7623 17.2805C37.5961 16.8267 37.749 8.11559 38.0226 8.14773C38.2965 8.18022 40.5791 9.21777 40.6202 9.68252Z" fill="white" fill-opacity="0.7"/>
<path opacity="0.5" d="M40.741 21.5504C41.7512 22.3818 51.8254 27.8879 51.9629 28.246C52.1394 28.7056 50.8022 30.8515 50.1658 30.6716C49.5291 30.492 37.5391 23.6967 37.5162 23.3749C37.4933 23.0531 37.4608 21.2881 37.7508 21.1726C38.0401 21.057 40.3549 21.2327 40.741 21.5504Z" fill="#A26E3B"/>
<path d="M52.3969 28.2459L40.8286 21.5292L40.7656 9.48456L41.0652 9.68256V21.3986L52.3969 27.8882V28.2459Z" fill="#395473" fill-opacity="0.2"/>
<path opacity="0.5" d="M42.0756 20.9935C42.7349 21.0362 50.9605 26.3159 50.9605 26.4661C50.9605 26.6162 52.4101 27.5111 52.0578 27.4889C51.7056 27.4667 41.3093 21.5916 41.2952 21.3997C41.2816 21.2079 41.7203 20.9702 42.0756 20.9935Z" fill="white" fill-opacity="0.7"/>
<path d="M52.3968 28.2461C52.3968 28.2461 46.9221 25.4844 44.1224 23.7215C41.3226 21.9586 40.7402 21.551 40.7402 21.551L52.3968 28.2461Z" fill="white" fill-opacity="0.7"/>
<path opacity="0.5" d="M42.1952 19.5428L41.0664 18.5723H40.8236L37.502 16.756V24.7948L41.2948 26.7051L43.1517 21.4503L42.1952 20.8734V19.5428Z" fill="#584720"/>
<path d="M16.4059 44.6046C16.3604 44.7626 9.69432 42.4457 9.69432 42.4457C6.7359 37.908 5.5 34.3248 5.5 34.3248H16.8847L16.4059 44.6046Z" fill="#584720"/>
<path d="M7.67188 34.3248C7.67188 34.3248 10.3307 39.8159 10.8177 40.4099L16.5738 40.5641V40.1709C16.5738 40.1709 11.3046 40.2164 11.0051 39.9924C10.7055 39.7684 8.00905 34.3248 8.00905 34.3248H7.67188Z" fill="#395473" fill-opacity="0.2"/>
<path d="M7.67188 34.3248L10.8177 40.4099C10.8177 40.4099 9.66625 38.777 8.96384 37.3674C8.26176 35.9578 7.67188 34.3248 7.67188 34.3248Z" fill="white" fill-opacity="0.7"/>
<path opacity="0.5" d="M8.48609 34.6984C8.92655 36.0109 10.6768 38.9918 11.042 38.9918C11.4072 38.9918 15.6299 38.917 16.0184 38.3082C16.4069 37.6995 16.7414 34.7582 16.4055 34.6984C16.0694 34.6382 8.28945 34.1122 8.48609 34.6984Z" fill="white" fill-opacity="0.7"/>
<path opacity="0.5" d="M5.87391 34.5536C6.41731 35.8414 7.9244 39.1134 8.20516 39.1507C8.48592 39.188 9.42702 39.3087 9.44104 38.9151C9.46361 38.29 7.6997 34.6377 7.30643 34.5536C6.91316 34.4694 5.74054 34.2379 5.87391 34.5536Z" fill="white" fill-opacity="0.7"/>
<path opacity="0.5" d="M8.48366 39.5814C8.43305 39.9873 9.94799 42.0812 10.2007 42.2498C10.4534 42.4184 15.5653 44.0681 15.9025 43.8331C16.2396 43.5982 16.4154 39.2798 16.1346 39.1546C15.8535 39.0291 8.53975 39.132 8.48366 39.5814Z" fill="#A26E3B"/>
<path opacity="0.5" d="M13.0566 34.3248C13.0566 34.3248 13.9735 39.2458 13.7772 43.8324L16.4039 44.6046L16.8826 34.3248H13.0566Z" fill="#584720"/>
<path d="M51.7249 44.6046C51.7703 44.7626 58.4364 42.4457 58.4364 42.4457C61.3949 37.908 62.6308 34.3248 62.6308 34.3248H51.2461L51.7249 44.6046Z" fill="#584720"/>
<path d="M60.4586 34.3248C60.4586 34.3248 57.7997 39.8159 57.3127 40.4099L51.5566 40.5641V40.1709C51.5566 40.1709 56.8258 40.2164 57.1253 39.9924C57.4249 39.7684 60.1214 34.3248 60.1214 34.3248H60.4586Z" fill="#395473" fill-opacity="0.2"/>
<path d="M60.4583 34.3248L57.3125 40.4099C57.3125 40.4099 58.4639 38.777 59.1663 37.3674C59.8688 35.9578 60.4583 34.3248 60.4583 34.3248Z" fill="white" fill-opacity="0.7"/>
<path opacity="0.5" d="M59.6454 34.6984C59.205 36.0109 57.4547 38.9918 57.0895 38.9918C56.7243 38.9918 52.5016 38.917 52.1131 38.3082C51.7246 37.6995 51.3902 34.7582 51.726 34.6984C52.0618 34.6382 59.8421 34.1122 59.6454 34.6984Z" fill="white" fill-opacity="0.7"/>
<path opacity="0.5" d="M62.2568 34.5536C61.7134 35.8415 60.2063 39.1135 59.9255 39.1508C59.6448 39.188 58.7037 39.3088 58.6897 38.9152C58.6671 38.29 60.431 34.6377 60.8243 34.5536C61.2175 34.4695 62.3898 34.238 62.2568 34.5536Z" fill="white" fill-opacity="0.7"/>
<path opacity="0.5" d="M59.6482 39.5811C59.6988 39.987 58.1839 42.0809 57.9312 42.2495C57.6785 42.4181 52.5666 44.0678 52.2294 43.8328C51.8922 43.5979 51.7165 39.2795 51.9972 39.1543C52.2783 39.0288 59.5921 39.1317 59.6482 39.5811Z" fill="#A26E3B"/>
<path opacity="0.5" d="M55.0721 34.3248C55.0721 34.3248 54.1553 39.2458 54.3516 43.8324L51.7248 44.6046L51.2461 34.3248H55.0721Z" fill="#584720"/>
<path d="M34.1396 10.5566L15.502 21.3172V46.9906L34.1396 57.7511L52.7775 46.9906V21.3172L34.1396 10.5566Z" fill="#584720"/>
<path d="M18.873 45.0439V23.2621L34.1402 14.4478L49.4076 23.2621V45.0439L34.1402 53.8582L18.873 45.0439Z" fill="#584720"/>
<path d="M19.9961 44.3964V23.9121L34.1395 15.7461L48.2832 23.9121V44.3964L34.1395 52.562L19.9961 44.3964Z" fill="#855514"/>
<path opacity="0.5" d="M15.9676 21.3847C15.7377 22.0744 17.7178 22.9232 19.1134 22.6206C20.509 22.3179 33.6257 14.6208 33.9434 13.9324C34.032 13.7405 34.0464 11.0488 33.9434 11.0488C33.4821 11.0485 16.0801 21.0475 15.9676 21.3847Z" fill="white" fill-opacity="0.7"/>
<path opacity="0.5" d="M52.2229 21.3847C52.4527 22.0744 50.4727 22.9232 49.0771 22.6206C47.6815 22.3179 34.6888 14.5486 34.247 13.9324C34.0189 13.614 33.944 11.0488 34.247 11.0488C34.7087 11.0485 52.1107 21.0475 52.2229 21.3847Z" fill="white" fill-opacity="0.7"/>
<path opacity="0.5" d="M15.9487 35.986C15.8236 36.7537 15.5185 46.4719 15.9487 46.5468C16.3789 46.6217 18.4014 45.236 18.5135 44.5996C18.626 43.9629 18.6633 37.2967 18.5135 36.6603C18.3641 36.0236 16.1573 34.7073 15.9487 35.986Z" fill="#A26E3B"/>
<path opacity="0.5" d="M52.2594 35.986C52.3845 36.7537 52.6896 46.4719 52.2594 46.5468C51.8292 46.6217 49.8067 45.236 49.6946 44.5996C49.582 43.9629 49.5448 37.2967 49.6946 36.6603C49.844 36.0236 52.0508 34.7073 52.2594 35.986Z" fill="#A26E3B"/>
<path opacity="0.5" d="M16.4163 46.8116C16.6421 47.144 33.4268 57.0681 33.6799 57.0681C33.8071 57.0681 33.9754 54.6018 33.9754 54.3265C33.9754 53.5595 19.1316 45.6766 18.8717 45.6034C18.4884 45.4957 16.1876 46.4748 16.4163 46.8116Z" fill="#A26E3B"/>
<path opacity="0.5" d="M20.6449 43.8504C19.6446 38.1743 20.2021 37.8166 27.2426 35.419C34.2832 33.0214 46.1935 26.8399 47.2389 29.5237C48.2843 32.2079 47.9259 43.6271 47.6883 44.2519C47.4509 44.8767 35.1559 51.9419 34.1406 51.9586C33.1253 51.9754 20.7571 44.4882 20.6449 43.8504Z" fill="#855514"/>
<path opacity="0.3" d="M47.9793 24.0534C47.731 23.9932 34.9493 16.6062 34.2278 16.6609C33.5431 16.7129 24.6371 20.8778 20.9859 24.025C20.0123 24.8642 20.3679 37.3962 21.2666 37.1654C22.1653 36.9345 22.8349 31.8702 32.7262 29.0243C42.4659 26.2222 46.7027 28.6465 47.7594 29.0804C48.0583 29.2035 48.5445 24.1902 47.9793 24.0534Z" fill="white" fill-opacity="0.7"/>
<path opacity="0.5" d="M18.873 45.0438V23.2621L34.1402 14.4478L49.4072 23.2621V45.0438L48.2839 44.3951C48.2839 44.3951 48.3519 25.4614 47.9446 24.8674C46.4922 22.7485 35.1982 17.5967 33.3444 18.1701C31.4478 18.757 21.4057 23.0323 20.282 24.8297C19.9038 25.435 19.9961 44.3951 19.9961 44.3951L18.873 45.0438Z" fill="#A26E3B"/>
<path opacity="0.2" d="M36.9938 26.2368C40.7976 27.9706 46.5274 28.0011 47.052 27.6704C47.5762 27.34 47.9251 24.8987 47.1012 24.4869C46.2774 24.0748 39.7491 20.599 38.0266 20.9735C36.3037 21.3483 36.3215 25.9304 36.9938 26.2368Z" fill="white" fill-opacity="0.7"/>
<path d="M15.502 29.1385C15.502 29.081 15.663 21.8979 15.9674 21.3853C16.2717 20.8726 33.7384 11.1869 34.2462 11.0491C34.7541 10.9116 41.2971 14.6891 41.2971 14.6891L34.1395 10.5566L15.502 21.3172V29.1385Z" fill="#855514"/>
<path d="M40.8105 18.2993C40.8105 18.2993 48.9981 22.9573 49.1102 23.4819C49.2224 24.0062 49.4067 38.0829 49.4067 38.0829C49.4067 38.0829 49.4844 23.8629 49.4067 23.2624C49.3291 22.6619 40.8105 18.2993 40.8105 18.2993Z" fill="white" fill-opacity="0.7"/>
<path d="M18.8721 35.1996C18.8721 35.1996 18.6002 23.424 18.7384 23.0421C18.8765 22.6601 34.1395 14.4482 34.1395 14.4482C34.1395 14.4482 19.4018 22.8735 19.0981 23.4073C18.7945 23.9411 18.8721 35.1996 18.8721 35.1996Z" fill="white" fill-opacity="0.7"/>
<path d="M15.502 46.9907L34.1395 57.7512L52.7771 46.9907V41.1433C52.7771 41.1433 52.6212 46.2483 52.2402 46.8843C51.8593 47.5204 35.1648 57.2297 34.3143 57.2954C33.4638 57.3611 16.3959 47.2215 15.9489 46.5471C15.5019 45.8731 15.502 33.9078 15.502 33.9078V46.9907Z" fill="#855514"/>
<path d="M18.8722 39.4695C18.8722 39.4695 18.8195 44.4931 19.0979 44.9147C19.3766 45.3364 26.6186 49.5177 26.6186 49.5177C26.6186 49.5177 18.7723 45.4616 18.6991 45.1996C18.626 44.937 18.8722 39.4695 18.8722 39.4695Z" fill="white" fill-opacity="0.7"/>
<path opacity="0.5" d="M25.1781 49.6182C24.6279 49.6195 23.0866 50.2368 23.4197 50.6013C23.6885 50.8954 32.9273 56.4977 33.9754 56.8827C34.3174 57.0082 34.2845 54.8244 33.8256 54.1189C33.629 53.8173 26.8825 49.6137 25.1781 49.6182Z" fill="white" fill-opacity="0.3"/>
<path d="M40.7031 14.7943C40.2558 14.915 41.7516 16.7979 42.4632 16.9665C43.1749 17.1351 44.1485 16.6293 43.8113 16.2829C43.4741 15.9365 41.3959 14.6073 40.7031 14.7943Z" fill="white" fill-opacity="0.7"/>
<path d="M44.0168 16.6611C43.3387 16.8427 44.5896 19.8172 45.1248 20.3462C45.6603 20.8753 50.4169 21.8027 50.3078 20.9454C50.1987 20.088 44.9692 16.4063 44.0168 16.6611Z" fill="white" fill-opacity="0.7"/>
<path opacity="0.5" d="M42.7347 49.6683C42.3332 51.4212 42.3975 52.4547 42.6226 52.466C42.8472 52.4769 50.9975 47.572 51.2198 47.3562C51.4421 47.1404 49.9134 45.7325 49.2839 45.8289C48.6543 45.9257 42.8845 49.0131 42.7347 49.6683Z" fill="#584720"/>
<path opacity="0.5" d="M19.8627 23.7621C19.6658 23.1715 19.0632 23.1753 19.0085 23.8336C18.9537 24.4919 18.8594 36.697 19.0991 36.7154C19.3388 36.7342 19.8443 36.1351 19.8631 35.854C19.8815 35.5732 19.9564 24.0429 19.8627 23.7621Z" fill="#584720"/>
<path opacity="0.5" d="M48.4181 23.8377C48.3859 24.0702 48.2683 35.5927 48.4181 35.5927C48.5678 35.5927 49.2419 35.0496 49.2419 34.7689C49.2419 34.4881 49.0733 23.5945 48.9984 23.5385C48.9235 23.482 48.444 23.6496 48.4181 23.8377Z" fill="#A26E3B"/>
<path opacity="0.5" d="M34.1402 15.5569C34.1402 15.7833 27.5726 19.5313 27.418 19.5313C27.2634 19.5313 27.3199 18.5201 27.5305 18.3799C27.7412 18.2394 34.0934 14.4195 34.1402 14.546C34.1874 14.6722 34.1402 15.3685 34.1402 15.5569Z" fill="#584720"/>
<path d="M47.6954 45.9169C47.2761 45.9008 45.8593 46.7246 45.9667 47.1274C46.0741 47.5303 46.9414 47.9653 47.1715 47.7321C47.402 47.4988 47.97 45.9275 47.6954 45.9169Z" fill="#395473" fill-opacity="0.2"/>
<path d="M48.2353 46.2011C48.091 46.3342 47.7771 46.8061 48.076 47.0366C48.3752 47.2671 49.2554 46.659 49.1255 46.4802C48.9955 46.3017 48.4214 46.0295 48.2353 46.2011Z" fill="#395473" fill-opacity="0.2"/>
<path opacity="0.5" d="M46.1737 46.7235C45.8246 47.1968 47.2571 47.5108 47.4438 47.1127C47.6305 46.7147 47.9294 45.8758 47.6945 45.9175C47.4595 45.9592 46.3642 46.4657 46.1737 46.7235Z" fill="#584720"/>
<path d="M45.9723 47.0122C45.9723 47.0122 46.0893 47.4151 46.514 47.6644C46.8478 47.8603 47.135 47.8162 47.2198 47.6712C47.2198 47.6712 46.9589 48.0111 46.525 47.8083C45.8451 47.491 45.9723 47.0122 45.9723 47.0122Z" fill="#DAE7EF" fill-opacity="0.9"/>
<path opacity="0.5" d="M48.3943 46.2124C48.0708 46.5608 48.3222 47.0635 48.5038 47.0352C48.6857 47.0068 49.227 46.6491 49.1251 46.4791C49.0232 46.3091 48.4651 46.1361 48.3943 46.2124Z" fill="#584720"/>
<path d="M48.2353 46.2007C48.2353 46.2007 47.9378 46.6093 48.0571 46.845C48.1765 47.0806 48.3451 47.0792 48.3451 47.0792C48.3451 47.0792 47.9603 47.3029 47.8896 47.0406C47.7671 46.5868 48.2353 46.2007 48.2353 46.2007Z" fill="#DAE7EF" fill-opacity="0.9"/>
<path d="M32.2223 15.4286C31.2183 15.1632 30.4068 15.814 29.9666 16.3136C29.5265 16.8132 29.7721 17.1104 30.3254 17.0119C30.879 16.9138 32.6457 15.5404 32.2223 15.4286Z" fill="#395473" fill-opacity="0.2"/>
<path opacity="0.5" d="M32.2197 15.4287C31.5405 15.1969 30.6815 15.6469 30.4116 15.8863C30.1418 16.1257 30.6722 16.8045 31.0378 16.6598C31.4034 16.5155 32.5291 15.5344 32.2197 15.4287Z" fill="#584720"/>
<path d="M30.2184 16.055C30.2184 16.055 29.084 16.7981 29.2112 17.1664C29.3385 17.5347 30.6985 16.8631 30.6985 16.8631C30.6985 16.8631 29.9933 17.0932 29.8336 16.78C29.6736 16.4667 30.2184 16.055 30.2184 16.055Z" fill="white" fill-opacity="0.7"/>
<path d="M19.523 45.1942C18.9889 45.3279 20.5722 46.415 20.9467 46.4711C21.3212 46.5272 20.9518 45.5734 20.7706 45.4096C20.6372 45.2893 19.8226 45.1193 19.523 45.1942Z" fill="white" fill-opacity="0.7"/>
<path d="M34.1248 46.2428L14.885 35.022C14.1412 36.7175 13.9668 38.3087 13.9668 38.3087L15.2222 40.4306L34.1248 51.409L53.0274 40.4306L54.1659 38.3087C54.1659 38.3087 54.1683 36.7175 53.4768 35.022L34.1248 46.2428Z" fill="#584720"/>
<path d="M15.2222 40.4305L13.9668 38.3085L34.1248 50.1172L54.1662 38.3085L53.0278 40.4305L34.1248 51.4089L15.2222 40.4305Z" fill="#584720"/>
<path opacity="0.5" d="M13.9668 38.3085L15.2222 40.4305L15.5084 40.6069L15.5019 41.2389C15.5019 41.2389 16.5805 41.7885 18.6994 42.9587C18.7712 42.9984 20.0307 44.3286 20.0307 44.3286C20.0307 44.3286 33.6478 52.5624 34.1399 52.5624C34.7752 52.5624 48.2846 44.1467 48.2846 44.1467C48.2846 44.1467 49.3365 43.2631 49.4415 43.2015L52.7775 41.4547V40.5762L53.0278 40.4308L54.1662 38.3089L34.1251 50.1166L13.9668 38.3085Z" fill="#584720"/>
<path opacity="0.5" d="M34.125 46.2425V50.1174L54.1661 38.3087C54.1661 38.3087 54.086 36.3659 53.477 35.022L34.125 46.2425Z" fill="#A26E3B"/>
<path opacity="0.5" d="M15.8753 35.8735C15.5073 35.8735 15.809 39.1315 16.9272 39.8808C18.7031 41.0705 29.411 47.382 30.1124 47.3895C30.597 47.3946 30.5716 44.627 30.426 44.4123C30.15 44.0053 16.4245 35.8735 15.8753 35.8735Z" fill="white" fill-opacity="0.3"/>
<path opacity="0.5" d="M40.0735 42.8953C39.8409 43.1353 39.8727 46.1806 40.2701 46.09C40.6675 45.9994 46.7197 42.7677 49.5739 40.6721C52.428 38.5765 52.8308 35.8133 52.1886 35.8745C52.1886 35.8745 40.5512 42.4021 40.0735 42.8953Z" fill="white" fill-opacity="0.3"/>
<path d="M24.3203 44.3745C24.3203 44.3745 33.5328 49.8988 34.1227 49.8988C34.7126 49.8988 42.0674 45.435 42.0674 45.435C42.0674 45.435 34.3477 50.3297 34.1374 50.3297C33.9739 50.3293 24.3203 44.3745 24.3203 44.3745Z" fill="white" fill-opacity="0.7"/>
<path opacity="0.5" d="M27.1884 14.5711C27.1884 14.5711 27.0287 15.4961 27.069 15.6675C27.1094 15.8388 28.4014 17.7631 28.4014 17.7631V19.0605L34.191 24.4798L39.9174 19.2401L40.169 17.9693C40.169 17.9693 41.4528 15.9458 41.4528 15.6675C41.4528 15.3891 40.2706 14.0845 40.2706 14.0845L34.1417 10.557L27.1884 14.5711Z" fill="#584720"/>
<path d="M40.9364 15.2148L40.9067 15.1741L34.2607 6.04719L34.2262 6L34.1916 6.04719L27.5454 15.1741L27.5156 15.2148L27.5454 15.2555L34.1916 24.3825L34.1903 24.4789L34.2262 24.4297L34.2621 24.4789L34.2607 24.3825L40.9067 15.2555L40.9364 15.2148Z" fill="#A26E3B"/>
<path opacity="0.5" d="M28.9062 15.2155V15.2148L34.226 7.90918L39.5464 15.2151L34.2263 22.5211L34.226 22.5214L28.9062 15.2155Z" fill="#584720"/>
<path d="M29.1836 15.2153L34.2257 8.29102L39.2681 15.2153L34.2257 22.1396L29.1836 15.2153Z" fill="#A26E3B"/>
<path opacity="0.5" d="M34.1435 6.49463C33.5481 7.0647 27.8758 14.7598 27.988 14.9715C28.1005 15.1832 30.3168 15.1876 34.5734 15.1387C38.8299 15.0895 40.5839 15.097 40.6215 14.9715C40.6585 14.846 34.2536 6.3893 34.1435 6.49463Z" fill="white" fill-opacity="0.7"/>
<path opacity="0.5" d="M27.8094 15.2389C27.7293 15.5716 33.9314 24.0218 34.3243 23.8891C34.7172 23.7564 40.8355 15.4372 40.4234 15.2146C40.0117 14.992 27.8829 14.9342 27.8094 15.2389Z" fill="#A26E3B"/>
<path opacity="0.5" d="M34.1804 36.9882L27.092 40.7147L28.4455 32.8216L22.7109 27.2317L30.6362 26.0799L34.1804 18.8984L37.7246 26.0799L45.6499 27.2317L39.915 32.8216L41.2689 40.7147L34.1804 36.9882Z" fill="#0C0800"/>
<path d="M44.8215 27.5009L40.9968 26.9448L39.9521 26.793L37.4687 26.4322L34.1803 19.7695L30.8918 26.4322L23.5391 27.5009L28.8595 32.6869L27.6034 40.0103L34.1803 36.5526L40.7568 40.0103L39.5007 32.6869L44.8215 27.5009Z" fill="white" fill-opacity="0.4"/>
<path opacity="0.5" d="M23.5039 27.5007L34.3356 30.3322L28.8243 32.6867L23.5039 27.5007Z" fill="#522E0B"/>
<path opacity="0.5" d="M44.7865 27.5013L34.3358 30.3329L39.4658 32.6874L44.7865 27.5013Z" fill="#522E0B"/>
<path opacity="0.5" d="M34.1452 36.5527L34.3357 30.3325L27.5684 40.0104L34.1452 36.5527Z" fill="#522E0B"/>
<path opacity="0.5" d="M40.721 40.0099L34.335 30.332L34.1445 36.5522L40.721 40.0099Z" fill="#522E0B"/>
<path opacity="0.5" d="M34.1445 19.7695L34.335 30.3324L37.4329 26.4322L34.1445 19.7695Z" fill="#522E0B"/>
<path opacity="0.5" d="M44.7865 27.5009L34.3358 30.3325L37.4337 26.4323L44.7865 27.5009Z" fill="#522E0B"/>
<path opacity="0.5" d="M44.7865 27.5009L34.3358 30.3325L37.4337 26.4323L44.7865 27.5009Z" fill="#522E0B"/>
<path opacity="0.5" d="M30.8567 26.4323L34.3356 30.3325L23.5039 27.5009L30.8567 26.4323Z" fill="#522E0B"/>
<path opacity="0.8" d="M37.4335 28.7506C36.887 29.213 37.3535 29.5156 37.3535 29.5156L40.1689 28.7527C40.1689 28.7527 38.6964 27.6823 37.4335 28.7506Z" fill="white" fill-opacity="0.4"/>
<path opacity="0.5" d="M27.6035 40.0099C27.6035 40.0099 32.5919 37.6602 34.1804 37.0057L40.7569 40.0099L34.1804 36.5522L27.6035 40.0099Z" fill="#0C0800"/>
<path opacity="0.5" d="M23.502 27.5005L34.3336 30.332L28.3864 35.449L23.502 27.5005Z" fill="#0C0800"/>
<path opacity="0.5" d="M44.7847 27.501L34.334 30.3325L40.0925 36.131L44.7847 27.501Z" fill="#522E0B"/>
<path opacity="0.5" d="M27.6035 40.0109L34.3332 30.333L40.7569 40.0109L34.1804 38.972L27.6035 40.0109Z" fill="#0C0800"/>
<path opacity="0.4" d="M31.7317 25.2805C31.0323 27.2205 33.697 28.5747 34.0557 27.978C34.4144 27.3816 34.1867 24.0497 33.7366 23.6C33.287 23.1503 32.0182 24.4868 31.7317 25.2805Z" fill="#F7FFFF" fill-opacity="0.8"/>
<path opacity="0.4" d="M29.5527 35.2172C30.9688 35.4094 31.7619 33.7966 32.0604 32.6869C32.5409 30.8994 26.9783 34.868 29.5527 35.2172Z" fill="#F7FFFF" fill-opacity="0.8"/>
</svg>
