<svg width="68" height="64" viewBox="0 0 68 64" fill="none" xmlns="http://www.w3.org/2000/svg">
<path d="M15.7266 21.9815V38.1436C15.7266 46.6294 23.024 53.5083 32.0263 53.5083H36.4938C45.4957 53.5083 52.7935 46.6294 52.7935 38.1436V21.9815H15.7266Z" fill="#C3A500"/>
<path d="M20.8991 25.1551H14.6074V28.7788H20.8991C21.8993 28.7788 22.71 27.9674 22.71 26.9668C22.71 25.9661 21.8993 25.1551 20.8991 25.1551Z" fill="#FFD700"/>
<path d="M47.6183 28.7793H53.8192V25.1555H47.6183C46.6178 25.1555 45.8066 25.9666 45.8066 26.9672C45.8066 27.9678 46.6178 28.7793 47.6183 28.7793Z" fill="#04BA91"/>
<path d="M37.9714 53.4429C38.4507 53.4021 38.923 53.3405 39.3897 53.2615C31.7709 51.9724 25.9874 45.6965 25.9874 38.1438V21.9817H23.1504V38.1438C23.1504 46.1594 29.6627 52.7379 37.9714 53.4429Z" fill="#FFD700"/>
<path d="M23.1504 22.654V29.9698L25.9874 30.3955V22.654H23.1504Z" fill="#C3A500"/>
<path d="M21.1597 38.1558V21.9815H15.7266V38.1436C15.7266 46.6294 23.024 53.5083 32.0263 53.5083H33.8313C26.5498 51.7738 21.1597 45.5591 21.1597 38.1558Z" fill="#FFD700"/>
<path d="M21.1597 22.6538H15.7266V28.8536L21.1597 29.6699V22.6538Z" fill="#C3A500"/>
<path d="M17.2344 31.9171V37.413C17.2344 37.413 17.4757 39.6478 19.3471 40.1311V32.5212L17.2344 31.9171Z" fill="#C3A500"/>
<path d="M45.0039 27.9616V31.147H46.6217C46.6217 31.147 46.8193 27.9616 45.0039 27.9616Z" fill="#C3A500"/>
<path d="M18.2296 22.6155C18.2296 23.3999 17.5946 24.0352 16.8109 24.0352C16.0272 24.0352 15.3926 23.3999 15.3926 22.6155V21.7703C15.3926 20.9866 16.0272 20.3513 16.8109 20.3513C17.5946 20.3513 18.2296 20.9866 18.2296 21.7703V22.6155Z" fill="#FFD700"/>
<path d="M52.73 22.6155C52.73 23.3999 52.0946 24.0352 51.3113 24.0352C50.528 24.0352 49.8926 23.3999 49.8926 22.6155V21.7703C49.8926 20.9866 50.528 20.3513 51.3113 20.3513C52.0946 20.3513 52.73 20.9866 52.73 21.7703V22.6155Z" fill="#FFD700"/>
<path d="M36.3766 52.4586C35.9113 52.6296 35.4364 52.7812 34.9512 52.9118C35.9235 53.1747 36.9334 53.3546 37.9717 53.4429L37.9736 53.4425C38.2027 53.4232 38.4296 53.3984 38.6549 53.3698L38.6994 53.3646C38.9315 53.3346 39.1617 53.3001 39.3904 53.2615C38.3476 53.085 37.3408 52.8124 36.3766 52.4586Z" fill="#C3A500"/>
<path d="M21.4616 48.8094L26.0548 49.3765L21.455 49.8909L20.8893 54.4863L20.3747 49.8846L15.7812 49.3179L20.3814 48.8035L20.9475 44.2081L21.4616 48.8094Z" fill="white"/>
<path d="M13.8691 36.9448V52.7948L21.2283 48.3747L21.5981 37.3458L13.8691 36.9448Z" fill="#FFD700"/>
<path d="M13.8691 50.8359L21.2818 47.0056L21.2283 48.3744L13.8691 52.7945V50.8359Z" fill="#806E0C"/>
<path opacity="0.5" d="M14.0531 43.9647C14.4846 42.2586 15.3477 43.4455 15.3477 45.8731C15.3477 48.3008 15.0426 52.0901 15.0426 52.0901L15.7063 51.6089C15.7063 51.6089 15.662 45.3339 15.9904 44.5785C16.3188 43.8232 18.0883 44.0747 18.0883 50.2608L21.2283 48.3747L21.5981 37.3458L13.8691 36.9448V45.64L14.0531 43.9647Z" fill="#082B44" fill-opacity="0.2"/>
<path d="M54.2055 36.9448V52.7948L46.8464 48.3747L46.4766 37.3458L54.2055 36.9448Z" fill="#FFD700"/>
<path d="M54.2061 50.8359L46.7931 47.0056L46.8469 48.3744L54.2061 52.7945V50.8359Z" fill="#806E0C"/>
<path opacity="0.5" d="M54.0216 43.9647C53.5901 42.2586 52.727 43.4455 52.727 45.8731C52.727 48.3008 53.0321 52.0901 53.0321 52.0901L52.3683 51.6089C52.3683 51.6089 52.4127 45.3339 52.0843 44.5785C51.7559 43.8232 49.9863 44.0747 49.9863 50.2608L46.8464 48.3747L46.4766 37.3458L54.2055 36.9448V45.64L54.0216 43.9647Z" fill="#082B44" fill-opacity="0.2"/>
<path d="M32.1187 48.4675V63.9999C27.4253 61.5184 20.3496 54.2893 20.3496 54.2893V43.5518L32.1187 48.4675Z" fill="#FFD700"/>
<path d="M32.1187 60.871V63.9998C27.4253 61.5183 20.3496 54.2892 20.3496 54.2892V51.609C21.9822 53.6905 25.4443 57.2239 32.1187 60.871Z" fill="#806E0C"/>
<path d="M36.1211 48.4675V63.9999C40.8145 61.5184 47.8902 54.2893 47.8902 54.2893V43.5518L36.1211 48.4675Z" fill="#FFD700"/>
<path d="M36.1211 60.8714V64.0002C40.8145 61.5187 47.8902 54.2896 47.8902 54.2896V51.6094C46.2577 53.6909 42.7955 57.2243 36.1211 60.8714Z" fill="#806E0C"/>
<path opacity="0.5" d="M21.4515 55.3829C21.4515 55.3829 21.3411 48.2543 22.4554 48.3752C23.5697 48.4961 25.4828 49.6291 25.9018 50.9237C26.3209 52.2183 26.2003 59.7246 26.2003 59.7246L26.6217 60.0747C26.6217 60.0747 26.0995 50.9559 26.9669 51.4032C27.8346 51.8505 28.9906 52.685 29.3929 54.7209C29.7952 56.7567 29.9157 62.679 29.9157 62.679L32.1187 63.9999V48.4675L20.3496 43.5518V54.2893L21.4515 55.3829Z" fill="#082B44" fill-opacity="0.2"/>
<path opacity="0.5" d="M46.788 55.3826C46.788 55.3826 46.8797 47.0294 45.7654 47.1502C44.6511 47.2711 44.607 51.503 44.607 52.795C44.607 54.156 44.4277 57.6132 44.4277 57.6132L43.7998 58.1833C43.7998 58.1833 43.8924 48.6839 43.0247 49.1312C42.1571 49.5785 38.3537 52.5162 37.9514 54.552C37.549 56.5879 37.7014 63.0524 37.7014 63.0524L36.1211 63.9999V48.4675L47.8902 43.5518V54.2893L46.788 55.3826Z" fill="#082B44" fill-opacity="0.2"/>
<path d="M38.8654 24.8069L64.7104 24.6398L62.2975 28.9768L40.1935 29.5874L38.8654 24.8069Z" fill="#C3A500"/>
<path d="M62.4046 24.6398L59.4104 24.6592L56.8478 29.097L59.9227 29.012L62.4046 24.6398Z" fill="#806E0C"/>
<path opacity="0.5" d="M40.0021 28.233L63.0063 27.7043L62.2979 28.9772L40.1939 29.5877L40.0021 28.233Z" fill="#C3A500"/>
<path opacity="0.5" d="M53.5195 25.0247C53.3254 25.2362 54.2223 27.4954 54.5901 27.4261C54.9579 27.3568 62.4235 27.4928 62.7575 27.2622C63.0915 27.0317 64.3441 25.1298 64.0708 24.9012C63.7976 24.673 53.706 24.8218 53.5195 25.0247Z" fill="white"/>
<path opacity="0.5" d="M52.9946 24.6971C52.9946 24.6971 53.9674 27.3369 54.0025 27.911C54.0376 28.4851 53.6393 29.2161 53.6393 29.2161L40.1936 29.5876L38.8655 24.8068L52.9946 24.6971Z" fill="#C3A500"/>
<path d="M29.3743 24.8068L3.5293 24.6396L5.94218 28.9767L28.0462 29.5872L29.3743 24.8068Z" fill="#C3A500"/>
<path d="M5.78125 24.6611L8.77542 24.6805L11.3384 29.1187L8.26341 29.0337L5.78125 24.6611Z" fill="#806E0C"/>
<path opacity="0.5" d="M28.2386 28.2324L5.23438 27.7036L5.94278 28.9766L28.0468 29.5871L28.2386 28.2324Z" fill="#C3A500"/>
<path opacity="0.5" d="M14.5399 24.929C15.1826 25.5375 14.0315 27.6111 13.6637 27.5418C13.2959 27.4725 5.81688 27.4923 5.48288 27.2617C5.14888 27.0312 3.89629 25.1293 4.16953 24.9007C4.44278 24.6725 14.1681 24.5769 14.5399 24.929Z" fill="white"/>
<path opacity="0.5" d="M15.2464 24.6963C15.2464 24.6963 14.2737 27.3361 14.2385 27.9102C14.2034 28.4842 14.6018 29.2153 14.6018 29.2153L28.0474 29.5867L29.3755 24.806L15.2464 24.6963Z" fill="#C3A500"/>
<path d="M41.7323 19.2195L67.5776 19.0524L65.1648 23.3898L43.0604 24.0003L41.7323 19.2195Z" fill="#FFD700"/>
<path d="M65.4258 19.0626L62.4317 19.082L59.869 23.5199L62.944 23.4351L65.4258 19.0626Z" fill="#806E0C"/>
<path opacity="0.5" d="M42.869 22.6452L65.8729 22.1168L65.1648 23.3898L43.0605 24.0003L42.869 22.6452Z" fill="#C3A500"/>
<path opacity="0.5" d="M56.3865 19.4373C56.1921 19.6488 57.0893 21.908 57.4571 21.8387C57.825 21.7694 65.2905 21.9054 65.6245 21.6748C65.9585 21.4443 67.2111 19.5424 66.9378 19.3138C66.6649 19.0856 56.573 19.2344 56.3865 19.4373Z" fill="white"/>
<path opacity="0.5" d="M52.4842 19.1521C52.4842 19.1521 53.457 21.7919 53.4921 22.3659C53.5272 22.94 53.1289 23.6711 53.1289 23.6711L43.0603 24.0001L41.7322 19.2194L52.4842 19.1521Z" fill="#FFD700"/>
<path d="M26.345 19.2202L0.5 19.053L2.91287 23.3904L25.0172 24.0009L26.345 19.2202Z" fill="#FFD700"/>
<path d="M2.72461 19.0794L5.71878 19.0987L8.28174 23.537L5.20677 23.4519L2.72461 19.0794Z" fill="#806E0C"/>
<path opacity="0.5" d="M25.209 22.6459L2.20508 22.1175L2.91312 23.3904L25.0175 24.0009L25.209 22.6459Z" fill="#FFD700"/>
<path opacity="0.5" d="M11.5108 19.342C12.1535 19.9506 11.0024 22.0242 10.6345 21.9549C10.2667 21.8856 2.7877 21.9053 2.4537 21.6748C2.1197 21.4442 0.867117 19.5424 1.14036 19.3138C1.41327 19.0855 11.139 18.99 11.5108 19.342Z" fill="white"/>
<path opacity="0.5" d="M15.7405 19.152C15.7405 19.152 14.7677 21.7918 14.7325 22.3658C14.6974 22.9399 15.0958 23.671 15.0958 23.671L25.0169 24.0004L26.345 19.2196L15.7405 19.152Z" fill="#FFD700"/>
<path d="M17.7889 23.9639L16.5176 19.9697L17.7777 18.3818L26.3159 13.2332V3.26872L27.4 2.48578L30.8231 0V16.9991L17.7889 23.9639Z" fill="#C3A500"/>
<path d="M16.5175 19.9703L27.3998 13.738V2.48645L26.3158 3.26939V13.2339L17.7776 18.3824L16.5175 19.9703Z" fill="#C3A500"/>
<path opacity="0.5" d="M27.6469 2.48589C27.5905 3.12401 27.6978 11.0424 28.0686 11.2277C28.4397 11.4132 30.3597 10.3262 30.5189 9.89069C30.6785 9.45488 30.5839 0.98142 30.3212 1.01229C30.0585 1.04316 27.6864 2.03958 27.6469 2.48589Z" fill="white"/>
<path opacity="0.5" d="M27.712 13.8829C26.7419 14.6813 17.0671 19.9691 16.9351 20.3129C16.7656 20.7543 18.0497 22.8152 18.6609 22.6424C19.2724 22.47 30.787 15.944 30.809 15.635C30.8313 15.326 30.8622 13.631 30.584 13.52C30.3059 13.409 28.0828 13.5778 27.712 13.8829Z" fill="#FFD700"/>
<path d="M16.5175 20.3132L27.6271 13.8628L27.6875 2.29562L27.3998 2.48577V13.7373L16.5175 19.9697V20.3132Z" fill="#395473" fill-opacity="0.2"/>
<path opacity="0.5" d="M26.4305 13.3482C25.7973 13.3893 17.8979 18.4597 17.8979 18.6038C17.8979 18.748 16.5057 19.6075 16.844 19.5861C17.1823 19.5648 27.1664 13.9226 27.1799 13.7384C27.193 13.5541 26.7717 13.3259 26.4305 13.3482Z" fill="white"/>
<path d="M16.5175 20.3133C16.5175 20.3133 21.7751 17.6611 24.4638 15.9681C27.1525 14.2751 27.7118 13.8836 27.7118 13.8836L16.5175 20.3133Z" fill="white"/>
<path opacity="0.5" d="M26.317 11.9551L27.4011 11.023H27.6343L30.8242 9.27881V16.9989L27.1817 18.8334L25.3984 13.787L26.317 13.2329V11.9551Z" fill="#C3A500"/>
<path d="M50.455 23.9639L51.7263 19.9697L50.4662 18.3818L41.928 13.2332V3.26872L40.8439 2.48578L37.3516 0V16.962L50.455 23.9639Z" fill="#FFD700"/>
<path d="M51.7261 19.9702L40.8438 13.7379V2.48633L41.9278 3.26927V13.2337L50.466 18.3823L51.7261 19.9702Z" fill="#FFD700"/>
<path opacity="0.5" d="M40.4162 2.48574C40.4727 3.12385 40.6324 11.0423 40.2612 11.2275C39.8901 11.4131 37.8313 10.2183 37.6717 9.78249C37.5121 9.34668 37.6589 0.980933 37.9216 1.0118C38.1847 1.043 40.3768 2.03942 40.4162 2.48574Z" fill="white"/>
<path opacity="0.5" d="M40.5306 13.883C41.5007 14.6814 51.1755 19.9692 51.3075 20.313C51.477 20.7544 50.1929 22.8152 49.5817 22.6425C48.9702 22.4701 37.4556 15.9441 37.4336 15.6351C37.4116 15.326 37.3804 13.6311 37.6589 13.5201C37.9367 13.4091 40.1598 13.5779 40.5306 13.883Z" fill="#FFD700"/>
<path d="M51.7267 20.313L40.6171 13.8625L40.5566 2.29541L40.8443 2.48556V13.7371L51.7267 19.9694V20.313Z" fill="#395473" fill-opacity="0.2"/>
<path opacity="0.5" d="M41.8142 13.3482C42.4474 13.3893 50.3468 18.4597 50.3468 18.6038C50.3468 18.748 51.7389 19.6075 51.4007 19.5861C51.0624 19.5648 41.0782 13.9226 41.0648 13.7384C41.0516 13.5541 41.473 13.3259 41.8142 13.3482Z" fill="white"/>
<path d="M51.7258 20.3133C51.7258 20.3133 46.4682 17.6611 43.7794 15.9681C41.0907 14.2751 40.5314 13.8836 40.5314 13.8836L51.7258 20.3133Z" fill="white"/>
<path opacity="0.5" d="M41.9271 11.9551L40.843 11.023H40.6098L37.4199 9.27881V16.9989L41.0624 18.8334L42.8457 13.787L41.9271 13.2329V11.9551Z" fill="#C3A500"/>
<path d="M17.1591 40.8246C17.1154 40.9763 10.7136 38.7513 10.7136 38.7513C7.87245 34.3935 6.68555 30.9524 6.68555 30.9524H17.6188L17.1591 40.8246Z" fill="#C3A500"/>
<path d="M8.77148 30.9524C8.77148 30.9524 11.3249 36.2258 11.7926 36.7962L17.3205 36.9443V36.5667C17.3205 36.5667 12.2602 36.6103 11.9725 36.3952C11.6848 36.1801 9.09529 30.9524 9.09529 30.9524H8.77148Z" fill="#395473" fill-opacity="0.2"/>
<path d="M8.77148 30.9524L11.7926 36.7962C11.7926 36.7962 10.6868 35.228 10.0122 33.8743C9.33799 32.5206 8.77148 30.9524 8.77148 30.9524Z" fill="white"/>
<path opacity="0.5" d="M9.5543 31.3106C9.9773 32.5711 11.6581 35.4339 12.0089 35.4339C12.3596 35.4339 16.4149 35.362 16.788 34.7774C17.1611 34.1928 17.4823 31.3681 17.1598 31.3106C16.8369 31.2528 9.36546 30.7477 9.5543 31.3106Z" fill="white"/>
<path opacity="0.5" d="M7.04525 31.1724C7.5671 32.4092 9.01444 35.5515 9.28407 35.5872C9.5537 35.623 10.4575 35.739 10.4709 35.361C10.4926 34.7606 8.79865 31.2531 8.42097 31.1724C8.0433 31.0916 6.91717 30.8692 7.04525 31.1724Z" fill="white"/>
<path opacity="0.5" d="M9.5499 36.0003C9.50129 36.3901 10.9562 38.401 11.1989 38.5629C11.4416 38.7248 16.3507 40.3091 16.6746 40.0835C16.9984 39.8579 17.1672 35.7106 16.8975 35.5904C16.6276 35.4699 9.60376 35.5688 9.5499 36.0003Z" fill="#FFD700"/>
<path opacity="0.5" d="M13.9434 30.9524C13.9434 30.9524 14.8238 35.6783 14.6353 40.083L17.1579 40.8246L17.6177 30.9524H13.9434Z" fill="#C3A500"/>
<path d="M51.077 40.8246C51.1207 40.9763 57.5225 38.7513 57.5225 38.7513C60.3636 34.3935 61.5505 30.9524 61.5505 30.9524H50.6172L51.077 40.8246Z" fill="#C3A500"/>
<path d="M59.465 30.9524C59.465 30.9524 56.9116 36.2258 56.4439 36.7962L50.916 36.9443V36.5667C50.916 36.5667 55.9762 36.6103 56.2639 36.3952C56.5516 36.1801 59.1412 30.9524 59.1412 30.9524H59.465Z" fill="#395473" fill-opacity="0.2"/>
<path d="M59.4644 30.9524L56.4434 36.7962C56.4434 36.7962 57.5491 35.228 58.2237 33.8743C58.8983 32.5206 59.4644 30.9524 59.4644 30.9524Z" fill="white"/>
<path opacity="0.5" d="M58.6835 31.3109C58.2605 32.5714 56.5797 35.4342 56.2289 35.4342C55.8782 35.4342 51.8229 35.3622 51.4498 34.7776C51.0767 34.1931 50.7555 31.3684 51.078 31.3109C51.4005 31.2531 58.8723 30.748 58.6835 31.3109Z" fill="white"/>
<path opacity="0.5" d="M61.1915 31.1719C60.6697 32.4087 59.2223 35.551 58.9527 35.5868C58.6831 35.6226 57.7793 35.7385 57.7658 35.3605C57.7442 34.7601 59.4381 31.2527 59.8158 31.1719C60.1935 31.0911 61.3193 30.8687 61.1915 31.1719Z" fill="white"/>
<path opacity="0.5" d="M58.6849 36.0006C58.7335 36.3904 57.2787 38.4013 57.036 38.5632C56.7933 38.7251 51.8841 40.3094 51.5603 40.0838C51.2364 39.8582 51.0677 35.7109 51.3373 35.5907C51.6072 35.4702 58.6311 35.5691 58.6849 36.0006Z" fill="#FFD700"/>
<path opacity="0.5" d="M54.2915 30.9524C54.2915 30.9524 53.411 35.6783 53.5995 40.083L51.077 40.8246L50.6172 30.9524H54.2915Z" fill="#C3A500"/>
<path d="M34.2776 8.21738L16.3789 18.5513V43.2068L34.2776 53.5407L52.1766 43.2068V18.5513L34.2776 8.21738Z" fill="#C3A500"/>
<path d="M19.6152 41.3372V20.4191L34.277 11.9542L48.9392 20.4191V41.3372L34.277 49.8022L19.6152 41.3372Z" fill="#C3A500"/>
<path d="M20.6953 40.7154V21.0433L34.278 13.2011L47.8609 21.0433V40.7154L34.278 48.5574L20.6953 40.7154Z" fill="#806E0C"/>
<path opacity="0.5" d="M16.8262 18.6161C16.6055 19.2785 18.507 20.0936 19.8473 19.803C21.1876 19.5123 33.7843 12.1203 34.0894 11.4592C34.1745 11.275 34.1882 8.69003 34.0894 8.69003C33.6464 8.6897 16.9343 18.2923 16.8262 18.6161Z" fill="white"/>
<path opacity="0.5" d="M51.6429 18.6161C51.8636 19.2785 49.9621 20.0936 48.6218 19.803C47.2815 19.5123 34.804 12.051 34.3797 11.4592C34.1606 11.1535 34.0887 8.69003 34.3797 8.69003C34.8231 8.6897 51.5352 18.2923 51.6429 18.6161Z" fill="white"/>
<path opacity="0.5" d="M16.8091 32.6385C16.6889 33.3758 16.3959 42.7087 16.8091 42.7807C17.2222 42.8526 19.1645 41.5218 19.2722 40.9107C19.3802 40.2992 19.416 33.8973 19.2722 33.2862C19.1287 32.6746 17.0094 31.4106 16.8091 32.6385Z" fill="#FFD700"/>
<path opacity="0.5" d="M51.6772 32.6385C51.7974 33.3758 52.0903 42.7087 51.6772 42.7807C51.264 42.8526 49.3218 41.5218 49.2141 40.9107C49.106 40.2992 49.0702 33.8973 49.2141 33.2862C49.3576 32.6746 51.4769 31.4106 51.6772 32.6385Z" fill="#FFD700"/>
<path opacity="0.5" d="M17.2575 43.035C17.4743 43.3542 33.5936 52.8848 33.8366 52.8848C33.9588 52.8848 34.1204 50.5163 34.1204 50.2519C34.1204 49.5153 19.8651 41.9449 19.6155 41.8747C19.2474 41.7712 17.0378 42.7115 17.2575 43.035Z" fill="#FFD700"/>
<path opacity="0.5" d="M21.3172 40.1908C20.3566 34.7397 20.8919 34.3962 27.6534 32.0937C34.4148 29.7912 45.8529 23.8547 46.8568 26.4321C47.8608 29.0099 47.5166 39.9763 47.2884 40.5764C47.0604 41.1764 35.2529 47.9614 34.2779 47.9775C33.3028 47.9936 21.4249 40.8033 21.3172 40.1908Z" fill="#806E0C"/>
<path opacity="0.3" d="M47.5696 21.1788C47.3312 21.121 35.0563 14.0269 34.3633 14.0795C33.7058 14.1294 25.1529 18.1292 21.6464 21.1516C20.7114 21.9575 21.0529 33.9927 21.916 33.771C22.7791 33.5493 23.4221 28.6858 32.9212 25.9527C42.2749 23.2617 46.3436 25.5898 47.3584 26.0066C47.6454 26.1248 48.1125 21.3102 47.5696 21.1788Z" fill="white"/>
<path opacity="0.5" d="M19.6152 41.3372V20.4191L34.2771 11.9542L48.9388 20.4191V41.3372L47.86 40.7142C47.86 40.7142 47.9253 22.5312 47.5342 21.9607C46.1394 19.9258 35.2932 14.9782 33.5128 15.529C31.6914 16.0926 22.0475 20.1984 20.9683 21.9246C20.6051 22.5059 20.6938 40.7142 20.6938 40.7142L19.6152 41.3372Z" fill="#FFD700"/>
<path opacity="0.2" d="M37.0181 23.2756C40.671 24.9407 46.1736 24.9699 46.6774 24.6524C47.1809 24.3351 47.5159 21.9906 46.7247 21.5951C45.9336 21.1994 39.6641 17.8614 38.0099 18.221C36.3553 18.5809 36.3724 22.9814 37.0181 23.2756Z" fill="white"/>
<path d="M16.3789 26.0625C16.3789 26.0073 16.5336 19.109 16.8259 18.6167C17.1182 18.1244 33.8923 8.82265 34.38 8.6903C34.8677 8.55827 41.1513 12.186 41.1513 12.186L34.2776 8.21738L16.3789 18.5513V26.0625Z" fill="#806E0C"/>
<path d="M40.6836 15.6531C40.6836 15.6531 48.5465 20.1264 48.6542 20.6302C48.762 21.1337 48.939 34.6523 48.939 34.6523C48.939 34.6523 49.0135 20.9961 48.939 20.4194C48.8644 19.8427 40.6836 15.6531 40.6836 15.6531Z" fill="white"/>
<path d="M19.6152 31.8828C19.6152 31.8828 19.3541 20.5741 19.4868 20.2073C19.6195 19.8404 34.2774 11.9542 34.2774 11.9542C34.2774 11.9542 20.1239 20.0454 19.8323 20.558C19.5407 21.0707 19.6152 31.8828 19.6152 31.8828Z" fill="white"/>
<path d="M16.3789 43.2069L34.2776 53.5408L52.1762 43.2069V37.5913C52.1762 37.5913 52.0265 42.4939 51.6606 43.1047C51.2948 43.7156 35.2622 53.04 34.4454 53.103C33.6286 53.1661 17.2374 43.4285 16.8081 42.7809C16.3789 42.1336 16.3789 30.6426 16.3789 30.6426V43.2069Z" fill="#806E0C"/>
<path d="M19.6167 35.984C19.6167 35.984 19.5662 40.8084 19.8335 41.2133C20.1011 41.6183 27.056 45.6338 27.056 45.6338C27.056 45.6338 19.5208 41.7385 19.4506 41.4869C19.3803 41.2347 19.6167 35.984 19.6167 35.984Z" fill="white"/>
<path opacity="0.5" d="M25.671 45.73C25.1426 45.7313 23.6624 46.3241 23.9823 46.6742C24.2404 46.9566 33.1129 52.3367 34.1195 52.7065C34.4479 52.8271 34.4164 50.7298 33.9756 50.0523C33.7868 49.7626 27.3078 45.7257 25.671 45.73Z" fill="white"/>
<path d="M40.5807 12.2873C40.1511 12.4033 41.5876 14.2115 42.271 14.3734C42.9545 14.5354 43.8895 14.0496 43.5657 13.7169C43.2418 13.3843 41.2461 12.1077 40.5807 12.2873Z" fill="white"/>
<path d="M43.7631 14.0796C43.1118 14.254 44.3131 17.1105 44.8271 17.6186C45.3414 18.1267 49.9094 19.0173 49.8046 18.194C49.6998 17.3706 44.6777 13.8349 43.7631 14.0796Z" fill="white"/>
<path opacity="0.5" d="M42.5318 45.7787C42.1462 47.4621 42.2079 48.4546 42.424 48.4654C42.6398 48.476 50.467 43.7655 50.6804 43.5582C50.8939 43.351 49.4259 41.9989 48.8213 42.0915C48.2166 42.1845 42.6756 45.1494 42.5318 45.7787Z" fill="#C3A500"/>
<path opacity="0.5" d="M20.5665 20.8993C20.3773 20.3322 19.7987 20.3358 19.7461 20.968C19.6936 21.6002 19.6029 33.3214 19.8332 33.3391C20.0634 33.3572 20.5488 32.7818 20.5668 32.5118C20.5846 32.2422 20.6565 21.169 20.5665 20.8993Z" fill="#C3A500"/>
<path opacity="0.5" d="M47.9893 20.9719C47.9585 21.1953 47.8455 32.2609 47.9893 32.2609C48.1332 32.2609 48.7805 31.7394 48.7805 31.4698C48.7805 31.2001 48.6186 20.7384 48.5467 20.6846C48.4747 20.6304 48.0143 20.7913 47.9893 20.9719Z" fill="#FFD700"/>
<path opacity="0.5" d="M34.2784 13.0193C34.2784 13.2367 27.9712 16.8361 27.8227 16.8361C27.6743 16.8361 27.7285 15.865 27.9308 15.7303C28.1331 15.5953 34.2334 11.9269 34.2784 12.0485C34.3237 12.1696 34.2784 12.8383 34.2784 13.0193Z" fill="#C3A500"/>
<path d="M47.2967 42.1754C46.894 42.16 45.5334 42.9511 45.6365 43.338C45.7397 43.7249 46.5725 44.1426 46.7936 43.9187C47.0149 43.6947 47.5604 42.1856 47.2967 42.1754Z" fill="#395473" fill-opacity="0.2"/>
<path d="M47.8157 42.448C47.6771 42.5758 47.3757 43.029 47.6627 43.2503C47.9501 43.4717 48.7954 42.8878 48.6706 42.716C48.5458 42.5446 47.9944 42.2832 47.8157 42.448Z" fill="#395473" fill-opacity="0.2"/>
<path opacity="0.5" d="M45.8356 42.9499C45.5003 43.4045 46.8761 43.7059 47.0554 43.3237C47.2347 42.9414 47.5217 42.1358 47.2961 42.1758C47.0705 42.2159 46.0186 42.7023 45.8356 42.9499Z" fill="#C3A500"/>
<path d="M45.6419 43.2271C45.6419 43.2271 45.7542 43.614 46.1621 43.8534C46.4826 44.0416 46.7585 43.9992 46.8399 43.86C46.8399 43.86 46.5894 44.1864 46.1726 43.9917C45.5197 43.6869 45.6419 43.2271 45.6419 43.2271Z" fill="#DAE7EF"/>
<path opacity="0.5" d="M47.9682 42.4593C47.6576 42.7939 47.8989 43.2767 48.0733 43.2495C48.248 43.2222 48.7679 42.8787 48.6701 42.7155C48.5722 42.5522 48.0362 42.3861 47.9682 42.4593Z" fill="#C3A500"/>
<path d="M47.8145 42.4478C47.8145 42.4478 47.5288 42.8403 47.6434 43.0666C47.7581 43.2929 47.92 43.2915 47.92 43.2915C47.92 43.2915 47.5505 43.5063 47.4825 43.2544C47.3649 42.8186 47.8145 42.4478 47.8145 42.4478Z" fill="#DAE7EF"/>
<path d="M32.4364 12.896C31.4722 12.6411 30.6928 13.2661 30.2702 13.7459C29.8475 14.2257 30.0833 14.5111 30.6147 14.4165C31.1464 14.3223 32.843 13.0034 32.4364 12.896Z" fill="#395473" fill-opacity="0.2"/>
<path opacity="0.5" d="M32.4361 12.8965C31.7838 12.6738 30.9589 13.106 30.6997 13.3359C30.4406 13.5658 30.95 14.2177 31.3011 14.0788C31.6521 13.9402 32.7333 12.998 32.4361 12.8965Z" fill="#C3A500"/>
<path d="M30.5119 13.4978C30.5119 13.4978 29.4225 14.2114 29.5447 14.5651C29.6669 14.9188 30.973 14.2738 30.973 14.2738C30.973 14.2738 30.2958 14.4949 30.1424 14.194C29.9887 13.8932 30.5119 13.4978 30.5119 13.4978Z" fill="white"/>
<path d="M20.2394 41.4816C19.7264 41.6101 21.247 42.6541 21.6066 42.7079C21.9662 42.7618 21.6116 41.8459 21.4375 41.6885C21.3094 41.5729 20.5271 41.4097 20.2394 41.4816Z" fill="white"/>
<path d="M34.2631 42.4888L15.7861 31.7128C15.0718 33.3411 14.9043 34.8692 14.9043 34.8692L16.1099 36.907L34.2631 47.4502L52.4163 36.907L53.5096 34.8692C53.5096 34.8692 53.5119 33.3411 52.8478 31.7128L34.2631 42.4888Z" fill="#C3A500"/>
<path d="M16.1099 36.9071L14.9043 34.8693L34.2631 46.2098L53.5099 34.8693L52.4166 36.9071L34.2631 47.4502L16.1099 36.9071Z" fill="#C3A500"/>
<path opacity="0.5" d="M14.9043 34.8693L16.1099 36.9071L16.3848 37.0765L16.3786 37.6835C16.3786 37.6835 17.4144 38.2112 19.4492 39.3351C19.5182 39.3732 20.7278 40.6507 20.7278 40.6507C20.7278 40.6507 33.805 48.558 34.2776 48.558C34.8877 48.558 47.8615 40.476 47.8615 40.476C47.8615 40.476 48.8717 39.6273 48.9725 39.5682L52.1762 37.8907V37.047L52.4166 36.9074L53.5099 34.8696L34.2634 46.2091L14.9043 34.8693Z" fill="#C3A500"/>
<path opacity="0.5" d="M34.2638 42.4886V46.2099L53.5103 34.8693C53.5103 34.8693 53.4334 33.0036 52.8485 31.7129L34.2638 42.4886Z" fill="#FFD700"/>
<path opacity="0.5" d="M16.7366 32.5307C16.3832 32.5307 16.6729 35.6595 17.7468 36.3791C19.4523 37.5216 29.7356 43.5829 30.4092 43.5901C30.8746 43.595 30.8503 40.9372 30.7104 40.7309C30.4453 40.3401 17.264 32.5307 16.7366 32.5307Z" fill="white"/>
<path opacity="0.5" d="M39.9779 39.274C39.7545 39.5046 39.7851 42.4291 40.1667 42.3421C40.5483 42.2551 46.3606 39.1515 49.1016 37.139C51.8425 35.1265 52.2294 32.4729 51.6126 32.5317C51.6126 32.5317 40.4367 38.8005 39.9779 39.274Z" fill="white"/>
<path d="M24.8477 40.6948C24.8477 40.6948 33.6949 46 34.2614 46C34.8279 46 41.8911 41.7132 41.8911 41.7132C41.8911 41.7132 34.4775 46.4138 34.2755 46.4138C34.1185 46.4135 24.8477 40.6948 24.8477 40.6948Z" fill="white"/>
<path opacity="0.5" d="M27.6012 12.0729C27.6012 12.0729 27.4479 12.9613 27.4866 13.1258C27.5254 13.2903 28.7661 15.1383 28.7661 15.1383V16.3843L34.3262 21.5888L39.8256 16.5568L40.0673 15.3364C40.0673 15.3364 41.3001 13.3931 41.3001 13.1258C41.3001 12.8585 40.1648 11.6056 40.1648 11.6056L34.2789 8.21796L27.6012 12.0729Z" fill="#C3A500"/>
<path d="M40.8047 12.6909L40.7761 12.6518L34.3937 3.88672L34.3605 3.8414L34.3273 3.88672L27.9446 12.6518L27.916 12.6909L27.9446 12.73L34.3273 21.4951L34.326 21.5877L34.3605 21.5404L34.395 21.5877L34.3937 21.4951L40.7761 12.73L40.8047 12.6909Z" fill="#FFD700"/>
<path opacity="0.5" d="M29.252 12.6915V12.6908L34.3608 5.6749L39.4703 12.6912L34.3611 19.7075L34.3608 19.7078L29.252 12.6915Z" fill="#C3A500"/>
<path d="M29.5176 12.6909L34.3597 6.04111L39.2022 12.6909L34.3597 19.3406L29.5176 12.6909Z" fill="#FFD700"/>
<path opacity="0.5" d="M34.2822 4.31646C33.7104 4.86393 28.263 12.2539 28.3707 12.4572C28.4788 12.6605 30.6072 12.6648 34.695 12.6178C38.7828 12.5705 40.4673 12.5778 40.5034 12.4572C40.5389 12.3367 34.388 4.21531 34.2822 4.31646Z" fill="white"/>
<path opacity="0.5" d="M28.198 12.7141C28.1212 13.0336 34.0773 21.1488 34.4546 21.0213C34.832 20.8939 40.7077 12.9045 40.3119 12.6907C39.9165 12.4769 28.2686 12.4214 28.198 12.7141Z" fill="#FFD700"/>
<path opacity="0.5" d="M34.3175 33.6009L27.5101 37.1796L28.8099 29.5995L23.3027 24.2312L30.9138 23.1251L34.3175 16.2283L37.7212 23.1251L45.3322 24.2312L39.8247 29.5995L41.1249 37.1796L34.3175 33.6009Z" fill="#403709"/>
<path d="M44.5363 24.4896L40.8633 23.9556L39.86 23.8098L37.475 23.4633L34.317 17.0648L31.1589 23.4633L24.0977 24.4896L29.2071 29.47L28.0009 36.503L34.317 33.1824L40.6327 36.503L39.4265 29.47L44.5363 24.4896Z" fill="white" fill-opacity="0.7"/>
<path opacity="0.5" d="M24.0625 24.4894L34.4648 27.2087L29.172 29.4699L24.0625 24.4894Z" fill="#FFD700"/>
<path opacity="0.5" d="M44.5012 24.4896L34.4648 27.2088L39.3914 29.47L44.5012 24.4896Z" fill="#FFD700"/>
<path opacity="0.5" d="M34.2809 33.1823L34.4639 27.2087L27.9648 36.5029L34.2809 33.1823Z" fill="#FFD700"/>
<path opacity="0.5" d="M40.597 36.5029L34.4642 27.2087L34.2812 33.1823L40.597 36.5029Z" fill="#FFD700"/>
<path opacity="0.5" d="M34.2812 17.0648L34.4642 27.2089L37.4393 23.4633L34.2812 17.0648Z" fill="#FFD700"/>
<path opacity="0.5" d="M44.5012 24.4895L34.4648 27.2088L37.4399 23.4632L44.5012 24.4895Z" fill="#FFD700"/>
<path opacity="0.5" d="M44.5012 24.4895L34.4648 27.2088L37.4399 23.4632L44.5012 24.4895Z" fill="#FFD700"/>
<path opacity="0.5" d="M31.1238 23.4634L34.4648 27.209L24.0625 24.4897L31.1238 23.4634Z" fill="#FFD700"/>
<path opacity="0.8" d="M37.4405 25.6897C36.9157 26.1337 37.3637 26.4243 37.3637 26.4243L40.0675 25.6916C40.0675 25.6916 38.6534 24.6637 37.4405 25.6897Z" fill="white" fill-opacity="0.7"/>
<path opacity="0.5" d="M28 36.5026C28 36.5026 32.7906 34.246 34.3161 33.6174L40.6319 36.5026L34.3161 33.1819L28 36.5026Z" fill="#403709"/>
<path opacity="0.5" d="M24.0625 24.4896L34.4648 27.2088L28.7533 32.1229L24.0625 24.4896Z" fill="#403709"/>
<path opacity="0.5" d="M44.5012 24.4896L34.4648 27.2088L39.995 32.7775L44.5012 24.4896Z" fill="#FFD700"/>
<path opacity="0.5" d="M28 36.5035L34.4629 27.2093L40.6319 36.5035L34.3161 35.5057L28 36.5035Z" fill="#403709"/>
<path opacity="0.4" d="M31.9673 22.3571C31.2957 24.2202 33.8547 25.5207 34.1992 24.9476C34.5437 24.3749 34.325 21.1751 33.8928 20.7432C33.4609 20.3114 32.2425 21.5948 31.9673 22.3571Z" fill="#F7FFFF"/>
<path opacity="0.4" d="M29.8731 31.9C31.2331 32.0845 31.9947 30.5357 32.2814 29.47C32.7428 27.7534 27.4008 31.5646 29.8731 31.9Z" fill="#F7FFFF"/>
<path opacity="0.5" d="M34.2767 14.5613L32.4303 15.5321L32.783 13.4759L31.2891 12.02L33.3535 11.7199L34.2767 9.84921L35.2002 11.7199L37.2646 12.02L35.7706 13.4759L36.1234 15.5321L34.2767 14.5613Z" fill="#C3A500"/>
<path d="M37.0313 12.0952L36.0408 11.9514L35.7702 11.912L35.1269 11.8187L34.2753 10.0929L33.4237 11.8187L31.5195 12.0952L32.8976 13.4384L32.5721 15.335L34.2753 14.4395L35.9788 15.335L35.6533 13.4384L37.0313 12.0952Z" fill="white"/>
<path opacity="0.5" d="M31.5137 12.0947L34.319 12.828L32.8917 13.4379L31.5137 12.0947Z" fill="#FFD700"/>
<path opacity="0.5" d="M37.0268 12.0948L34.3203 12.8282L35.6487 13.438L37.0268 12.0948Z" fill="#FFD700"/>
<path opacity="0.5" d="M34.2696 14.4396L34.3188 12.8287L32.5664 15.3352L34.2696 14.4396Z" fill="#FFD700"/>
<path opacity="0.5" d="M35.9727 15.3352L34.3188 12.8287L34.2695 14.4396L35.9727 15.3352Z" fill="#FFD700"/>
<path opacity="0.5" d="M34.2695 10.0929L34.3188 12.8286L35.1211 11.8187L34.2695 10.0929Z" fill="#FFD700"/>
<path opacity="0.5" d="M37.0268 12.0955L34.3203 12.8288L35.1226 11.8189L37.0268 12.0955Z" fill="#C3A500"/>
<path opacity="0.5" d="M37.0268 12.0955L34.3203 12.8288L35.1226 11.8189L37.0268 12.0955Z" fill="#FFD700"/>
<path opacity="0.5" d="M33.4182 11.8187L34.319 12.8286L31.5137 12.0953L33.4182 11.8187Z" fill="#FFD700"/>
<path opacity="0.8" d="M35.1214 12.4188C34.9798 12.5383 35.1007 12.6168 35.1007 12.6168L35.8298 12.4191C35.8298 12.4191 35.4485 12.1419 35.1214 12.4188Z" fill="white"/>
<path opacity="0.5" d="M32.5742 15.3346C32.5742 15.3346 33.8662 14.7261 34.2774 14.5566L35.9806 15.3346L34.2774 14.4391L32.5742 15.3346Z" fill="#C3A500"/>
<path opacity="0.5" d="M31.5118 12.0946L34.3172 12.828L32.7769 14.1531L31.5118 12.0946Z" fill="#C3A500"/>
<path opacity="0.5" d="M37.0229 12.0946L34.3164 12.828L35.8077 14.3298L37.0229 12.0946Z" fill="#FFD700"/>
<path opacity="0.5" d="M32.5742 15.3347L34.3171 12.8282L35.9809 15.3347L34.2774 15.0657L32.5742 15.3347Z" fill="#C3A500"/>
<path opacity="0.4" d="M33.6435 11.5201C33.4622 12.0226 34.1525 12.3733 34.2455 12.2186C34.3384 12.0643 34.2793 11.2012 34.163 11.0849C34.0468 10.9687 33.7177 11.3145 33.6435 11.5201Z" fill="#F7FFFF"/>
<path opacity="0.4" d="M33.0793 14.093C33.4462 14.1425 33.6514 13.7251 33.7286 13.4378C33.8531 12.9747 32.4127 14.0026 33.0793 14.093Z" fill="#F7FFFF"/>
</svg>
