<svg width="68" height="64" viewBox="0 0 68 64" fill="none" xmlns="http://www.w3.org/2000/svg">
<path d="M20.0866 26.6934H13.5352V30.4668H20.0866C21.1281 30.4668 21.9723 29.6218 21.9723 28.5799C21.9723 27.538 21.1281 26.6934 20.0866 26.6934Z" fill="#C0C0C0"/>
<path d="M47.9079 30.467H54.3648V26.6936H47.9079C46.8661 26.6936 46.0215 27.5382 46.0215 28.5801C46.0215 29.622 46.8661 30.467 47.9079 30.467Z" fill="#04BA91"/>
<path d="M22.4297 24.0892V31.7069L25.3839 32.1503V24.0892H22.4297Z" fill="#8394A5"/>
<path d="M16.2695 33.735V39.4578C16.2695 39.4578 16.5208 41.7849 18.4694 42.2881V34.3641L16.2695 33.735Z" fill="#8394A5"/>
<path d="M45.1875 29.6157V32.9326H46.8721C46.8721 32.9326 47.0778 29.6157 45.1875 29.6157Z" fill="#8394A5"/>
<path d="M31.5987 43.1187V59.2923C26.7116 56.7084 19.3438 49.1809 19.3438 49.1809V38L31.5987 43.1187Z" fill="#C0C0C0"/>
<path d="M31.5986 56.0343V59.2923C26.7115 56.7083 19.3436 49.1808 19.3436 49.1808V46.39C21.0436 48.5574 24.6487 52.2367 31.5986 56.0343Z" fill="#969696"/>
<path d="M35.7657 43.1186V59.2923C40.6529 56.7083 48.0207 49.1808 48.0207 49.1808V37.9999L35.7657 43.1186Z" fill="#C0C0C0"/>
<path d="M35.7657 56.0343V59.2923C40.6529 56.7083 48.0207 49.1808 48.0207 49.1808V46.39C46.3208 48.5574 42.7157 52.2367 35.7657 56.0343Z" fill="#969696"/>
<path opacity="0.5" d="M20.4911 50.3196C20.4911 50.3196 20.3762 42.8967 21.5365 43.0226C22.6968 43.1484 24.6888 44.3282 25.1252 45.6763C25.5615 47.0244 25.436 54.8405 25.436 54.8405L25.8748 55.2051C25.8748 55.2051 25.3311 45.7098 26.2342 46.1756C27.1377 46.6414 28.3414 47.5103 28.7604 49.6302C29.1793 51.7501 29.3048 57.9169 29.3048 57.9169L31.5987 59.2923V43.1187L19.3438 38V49.1809L20.4911 50.3196Z" fill="#082B44" fill-opacity="0.2"/>
<path opacity="0.5" d="M46.8731 50.3192C46.8731 50.3192 46.9685 41.6211 45.8082 41.747C44.6479 41.8728 44.602 46.2795 44.602 47.6248C44.602 49.0419 44.4153 52.6419 44.4153 52.6419L43.7614 53.2356C43.7614 53.2356 43.8579 43.344 42.9544 43.8097C42.0509 44.2755 38.0905 47.3345 37.6716 49.4544C37.2527 51.5743 37.4113 58.3057 37.4113 58.3057L35.7657 59.2923V43.1186L48.0207 37.9999V49.1808L46.8731 50.3192Z" fill="#082B44" fill-opacity="0.2"/>
<path d="M38.7949 26.3309L65.7069 26.1568L63.1944 30.6729L40.1778 31.3086L38.7949 26.3309Z" fill="#8394A5"/>
<path d="M63.3057 26.1568L60.1879 26.177L57.5195 30.7981L60.7214 30.7095L63.3057 26.1568Z" fill="#969696"/>
<path opacity="0.5" d="M39.9786 29.8984L63.9326 29.3478L63.1949 30.6733L40.1783 31.309L39.9786 29.8984Z" fill="#8394A5"/>
<path opacity="0.5" d="M54.0556 26.558C53.8535 26.7782 54.7875 29.1306 55.1705 29.0585C55.5535 28.9863 63.3272 29.1279 63.675 28.8878C64.0228 28.6478 65.3271 26.6674 65.0426 26.4294C64.7581 26.1917 54.2499 26.3466 54.0556 26.558Z" fill="white"/>
<path opacity="0.5" d="M53.5073 26.2165C53.5073 26.2165 54.5203 28.9653 54.5569 29.563C54.5934 30.1608 54.1786 30.922 54.1786 30.922L40.1779 31.3088L38.7949 26.3307L53.5073 26.2165Z" fill="#8394A5"/>
<path d="M28.912 26.3309L2 26.1568L4.5125 30.6729L27.5291 31.3086L28.912 26.3309Z" fill="#8394A5"/>
<path d="M4.34375 26.1793L7.46153 26.1994L10.1303 30.8209L6.92839 30.7323L4.34375 26.1793Z" fill="#969696"/>
<path opacity="0.5" d="M27.7293 29.8978L3.77539 29.3472L4.51304 30.6727L27.5296 31.3084L27.7293 29.8978Z" fill="#8394A5"/>
<path opacity="0.5" d="M13.4657 26.4579C14.135 27.0916 12.9364 29.2508 12.5534 29.1787C12.1703 29.1065 4.38258 29.127 4.03479 28.887C3.687 28.6469 2.3827 26.6665 2.66722 26.4285C2.95175 26.1909 13.0786 26.0913 13.4657 26.4579Z" fill="white"/>
<path opacity="0.5" d="M14.2002 26.2159C14.2002 26.2159 13.1873 28.9647 13.1507 29.5624C13.1141 30.1602 13.529 30.9214 13.529 30.9214L27.5297 31.3082L28.9127 26.3301L14.2002 26.2159Z" fill="#8394A5"/>
<path d="M26.7925 27.3117L23.9901 25.1734L24.0923 23.4718L27.4905 15.8066L22.6841 8.94236L23.0533 7.88009L24.2123 4.51656L32.4119 16.2268L26.7925 27.3117Z" fill="#8394A5"/>
<path d="M23.9901 25.174L28.4805 15.6315L23.0532 7.88065L22.6841 8.94292L27.4905 15.8072L24.0922 23.4723L23.9901 25.174Z" fill="#8394A5"/>
<path opacity="0.5" d="M23.2225 7.7613C23.4914 8.22812 27.3849 13.6311 27.7296 13.5799C28.0748 13.5287 28.873 11.8538 28.7727 11.4769C28.6724 11.0997 24.5201 5.30823 24.354 5.45622C24.1879 5.60422 23.0344 7.43483 23.2225 7.7613Z" fill="white"/>
<path opacity="0.5" d="M28.7647 15.5811C28.4815 16.599 24.3674 24.9083 24.4423 25.2089C24.5385 25.5947 26.4171 26.3949 26.7548 25.9811C27.0929 25.5674 31.8772 15.5177 31.7433 15.2942C31.6096 15.0706 30.8133 13.8881 30.5681 13.9458C30.323 14.0035 28.873 15.1921 28.7647 15.5811Z" fill="#C0C0C0"/>
<path d="M24.1556 25.4101L28.6973 15.6078L23.1595 7.61038L23.053 7.88014L28.4803 15.631L23.9899 25.1735L24.1556 25.4101Z" fill="#395473" fill-opacity="0.2"/>
<path opacity="0.5" d="M27.6255 15.8309C27.2091 16.1646 24.2131 23.4678 24.2827 23.5671C24.3522 23.6664 23.8078 24.93 24.0305 24.7521C24.2532 24.5743 28.4095 15.8716 28.3299 15.7382C28.2501 15.6049 27.8498 15.6509 27.6255 15.8309Z" fill="white"/>
<path d="M24.1561 25.4102C24.1561 25.4102 26.4986 21.0471 27.5342 18.5839C28.5697 16.1208 28.7662 15.5813 28.7662 15.5813L24.1561 25.4102Z" fill="white"/>
<path opacity="0.5" d="M26.8749 14.9259L27.1721 13.7609L27.3327 13.6485L28.6888 10.9083L32.4126 16.2264L30.7883 19.2471L27.1257 16.6309L27.4912 15.8062L26.8749 14.9259Z" fill="#8394A5"/>
<path d="M40.909 27.3286L43.7114 25.1903L43.6092 23.4886L40.2109 15.8235L45.0173 8.95922L44.6482 7.89696L43.4414 4.5L35.2597 16.1847L40.909 27.3286Z" fill="#C0C0C0"/>
<path d="M43.7096 25.1908L39.2193 15.6483L44.6465 7.89746L45.0156 8.95973L40.2092 15.824L43.6075 23.4891L43.7096 25.1908Z" fill="#C0C0C0"/>
<path opacity="0.5" d="M44.3542 7.69054C44.0853 8.15737 40.3758 13.6892 40.0308 13.6377C39.6856 13.5866 38.8436 11.7704 38.9439 11.3932C39.0442 11.016 43.1806 5.32389 43.3467 5.47189C43.5128 5.62027 44.5423 7.36407 44.3542 7.69054Z" fill="white"/>
<path opacity="0.5" d="M38.9357 15.5973C39.2189 16.6152 43.333 24.9245 43.2581 25.2251C43.1619 25.6109 41.2833 26.4111 40.9456 25.9973C40.6075 25.5836 35.8232 15.5339 35.9571 15.3104C36.091 15.0869 36.8871 13.9042 37.1325 13.9621C37.3774 14.0197 38.8274 15.2082 38.9357 15.5973Z" fill="#C0C0C0"/>
<path d="M43.545 25.4267L39.0032 15.6244L44.541 7.62695L44.6475 7.89672L39.2203 15.6476L43.7107 25.1901L43.545 25.4267Z" fill="#395473" fill-opacity="0.2"/>
<path opacity="0.5" d="M40.0763 15.8476C40.4927 16.1812 43.4886 23.4844 43.4191 23.5837C43.3495 23.6831 43.894 24.9466 43.6713 24.7688C43.4485 24.5909 39.2922 15.8882 39.3718 15.7548C39.4516 15.6216 39.852 15.6676 40.0763 15.8476Z" fill="white"/>
<path d="M43.5457 25.4266C43.5457 25.4266 41.2032 21.0635 40.1676 18.6003C39.132 16.1371 38.9355 15.5977 38.9355 15.5977L43.5457 25.4266Z" fill="white"/>
<path opacity="0.5" d="M40.8276 14.943L40.5304 13.778L40.3698 13.6655L39.0137 10.9253L35.2899 16.2434L36.9142 19.2642L40.5768 16.648L40.2113 15.8232L40.8276 14.943Z" fill="#8394A5"/>
<path d="M16.193 43.0102C16.1475 43.1681 9.48143 40.8513 9.48143 40.8513C6.52301 36.3136 5.28711 32.7304 5.28711 32.7304H16.6718L16.193 43.0102Z" fill="#8394A5"/>
<path d="M7.45898 32.7304C7.45898 32.7304 10.1178 38.2215 10.6048 38.8155L16.3609 38.9697V38.5765C16.3609 38.5765 11.0918 38.6219 10.7922 38.3979C10.4926 38.174 7.79616 32.7304 7.79616 32.7304H7.45898Z" fill="#395473" fill-opacity="0.2"/>
<path d="M7.45898 32.7304L10.6048 38.8155C10.6048 38.8155 9.45336 37.1826 8.75095 35.773C8.04887 34.3633 7.45898 32.7304 7.45898 32.7304Z" fill="white"/>
<path opacity="0.5" d="M8.2732 33.1039C8.71366 34.4164 10.4639 37.3974 10.8291 37.3974C11.1943 37.3974 15.417 37.3225 15.8055 36.7138C16.194 36.1051 16.5285 33.1638 16.1926 33.1039C15.8565 33.0437 8.07656 32.5178 8.2732 33.1039Z" fill="white"/>
<path opacity="0.5" d="M5.66102 32.9591C6.20442 34.247 7.71151 37.519 7.99227 37.5563C8.27303 37.5935 9.21413 37.7143 9.22815 37.3206C9.25072 36.6955 7.48681 33.0432 7.09354 32.9591C6.70027 32.875 5.52765 32.6435 5.66102 32.9591Z" fill="white"/>
<path opacity="0.5" d="M8.27077 37.987C8.22016 38.3929 9.7351 40.4868 9.98782 40.6554C10.2405 40.824 15.3524 42.4737 15.6896 42.2387C16.0268 42.0038 16.2025 37.6853 15.9218 37.5602C15.6407 37.4347 8.32685 37.5376 8.27077 37.987Z" fill="#C0C0C0"/>
<path opacity="0.5" d="M12.8438 32.7304C12.8438 32.7304 13.7606 37.6514 13.5643 42.238L16.191 43.0102L16.6698 32.7304H12.8438Z" fill="#8394A5"/>
<path d="M51.512 43.0102C51.5575 43.1681 58.2236 40.8513 58.2236 40.8513C61.182 36.3136 62.4179 32.7304 62.4179 32.7304H51.0332L51.512 43.0102Z" fill="#8394A5"/>
<path d="M60.2457 32.7304C60.2457 32.7304 57.5868 38.2215 57.0999 38.8155L51.3438 38.9697V38.5765C51.3438 38.5765 56.6129 38.6219 56.9125 38.3979C57.212 38.174 59.9085 32.7304 59.9085 32.7304H60.2457Z" fill="#395473" fill-opacity="0.2"/>
<path d="M60.2454 32.7304L57.0996 38.8155C57.0996 38.8155 58.251 37.1826 58.9535 35.773C59.6559 34.3633 60.2454 32.7304 60.2454 32.7304Z" fill="white"/>
<path opacity="0.5" d="M59.4325 33.1034C58.9921 34.4159 57.2418 37.3969 56.8766 37.3969C56.5114 37.3969 52.2887 37.322 51.9002 36.7133C51.5117 36.1046 51.1773 33.1633 51.5131 33.1034C51.8489 33.0433 59.6292 32.5173 59.4325 33.1034Z" fill="white"/>
<path opacity="0.5" d="M62.0439 32.9587C61.5005 34.2466 59.9934 37.5186 59.7127 37.5559C59.4319 37.5931 58.4908 37.7139 58.4768 37.3202C58.4542 36.6951 60.2181 33.0428 60.6114 32.9587C61.0047 32.8746 62.1769 32.6431 62.0439 32.9587Z" fill="white"/>
<path opacity="0.5" d="M59.4353 37.9866C59.4859 38.3925 57.971 40.4865 57.7183 40.6551C57.4656 40.8236 52.3537 42.4733 52.0165 42.2384C51.6793 42.0035 51.5036 37.685 51.7843 37.5598C52.0655 37.4343 59.3792 37.5373 59.4353 37.9866Z" fill="#C0C0C0"/>
<path opacity="0.5" d="M54.8592 32.7304C54.8592 32.7304 53.9424 37.6514 54.1387 42.238L51.512 43.0102L51.0332 32.7304H54.8592Z" fill="#8394A5"/>
<path d="M33.9267 8.96191L15.2891 19.7225V45.3958L33.9267 56.1564L52.5646 45.3958V19.7225L33.9267 8.96191Z" fill="#8394A5"/>
<path d="M18.6602 43.4491V21.6674L33.9273 12.853L49.1947 21.6674V43.4491L33.9273 52.2635L18.6602 43.4491Z" fill="#8394A5"/>
<path d="M19.7832 42.8016V22.3174L33.9266 14.1514L48.0703 22.3174V42.8016L33.9266 50.9673L19.7832 42.8016Z" fill="#969696"/>
<path opacity="0.5" d="M15.7547 19.7899C15.5249 20.4797 17.5049 21.3285 18.9005 21.0258C20.2961 20.7232 33.4129 13.026 33.7305 12.3376C33.8191 12.1458 33.8335 9.4541 33.7305 9.4541C33.2692 9.45376 15.8672 19.4527 15.7547 19.7899Z" fill="white"/>
<path opacity="0.5" d="M52.01 19.7899C52.2398 20.4797 50.2598 21.3285 48.8642 21.0258C47.4686 20.7232 34.476 12.9539 34.0341 12.3376C33.806 12.0193 33.7311 9.4541 34.0341 9.4541C34.4958 9.45376 51.8978 19.4527 52.01 19.7899Z" fill="white"/>
<path opacity="0.5" d="M15.7358 34.3912C15.6107 35.159 15.3056 44.8772 15.7358 44.9521C16.166 45.027 18.1885 43.6413 18.3006 43.0049C18.4132 42.3681 18.4504 35.702 18.3006 35.0656C18.1512 34.4288 15.9444 33.1126 15.7358 34.3912Z" fill="#C0C0C0"/>
<path opacity="0.5" d="M52.0465 34.3912C52.1716 35.159 52.4767 44.8772 52.0465 44.9521C51.6163 45.027 49.5938 43.6413 49.4817 43.0049C49.3692 42.3681 49.3319 35.702 49.4817 35.0656C49.6311 34.4288 51.8379 33.1126 52.0465 34.3912Z" fill="#C0C0C0"/>
<path opacity="0.5" d="M16.2035 45.2169C16.4292 45.5493 33.2139 55.4734 33.467 55.4734C33.5942 55.4734 33.7625 53.0071 33.7625 52.7318C33.7625 51.9648 18.9187 44.0819 18.6588 44.0087C18.2755 43.901 15.9747 44.8801 16.2035 45.2169Z" fill="#C0C0C0"/>
<path opacity="0.5" d="M20.4301 42.2557C19.4298 36.5796 19.9872 36.2219 27.0278 33.8243C34.0684 31.4267 45.9786 25.2452 47.024 27.929C48.0695 30.6132 47.7111 42.0324 47.4734 42.6572C47.2361 43.2819 34.9411 50.3471 33.9258 50.3639C32.9104 50.3806 20.5422 42.8935 20.4301 42.2557Z" fill="#969696"/>
<path opacity="0.3" d="M47.7664 22.4587C47.5181 22.3985 34.7365 15.0115 34.0149 15.0662C33.3303 15.1182 24.4242 19.2831 20.773 22.4303C19.7994 23.2695 20.155 35.8015 21.0537 35.5706C21.9524 35.3398 22.622 30.2755 32.5133 27.4296C42.253 24.6275 46.4898 27.0517 47.5465 27.4857C47.8454 27.6088 48.3316 22.5955 47.7664 22.4587Z" fill="white"/>
<path opacity="0.5" d="M18.6602 43.4491V21.6674L33.9273 12.853L49.1944 21.6674V43.4491L48.071 42.8004C48.071 42.8004 48.139 23.8667 47.7317 23.2726C46.2794 21.1538 34.9853 16.0019 33.1315 16.5754C31.2349 17.1622 21.1928 21.4376 20.0691 23.235C19.6909 23.8403 19.7832 42.8004 19.7832 42.8004L18.6602 43.4491Z" fill="#C0C0C0"/>
<path opacity="0.2" d="M36.781 24.6421C40.5847 26.3759 46.3145 26.4063 46.8391 26.0756C47.3633 25.7453 47.7122 23.3039 46.8884 22.8922C46.0645 22.4801 39.5362 19.0043 37.8137 19.3788C36.0909 19.7536 36.1086 24.3357 36.781 24.6421Z" fill="white"/>
<path d="M15.2891 27.5438C15.2891 27.4863 15.4501 20.3031 15.7545 19.7905C16.0588 19.2779 33.5255 9.59217 34.0333 9.45436C34.5412 9.31688 41.0842 13.0943 41.0842 13.0943L33.9267 8.96191L15.2891 19.7225V27.5438Z" fill="#969696"/>
<path d="M40.5977 16.7046C40.5977 16.7046 48.7852 21.3626 48.8974 21.8872C49.0095 22.4115 49.1938 36.4881 49.1938 36.4881C49.1938 36.4881 49.2715 22.2682 49.1938 21.6677C49.1162 21.0672 40.5977 16.7046 40.5977 16.7046Z" fill="white"/>
<path d="M18.6611 33.6049C18.6611 33.6049 18.3893 21.8293 18.5274 21.4473C18.6656 21.0653 33.9286 12.8535 33.9286 12.8535C33.9286 12.8535 19.1909 21.2787 18.8872 21.8126C18.5835 22.3464 18.6611 33.6049 18.6611 33.6049Z" fill="white"/>
<path d="M15.2891 45.3959L33.9267 56.1565L52.5643 45.3959V39.5485C52.5643 39.5485 52.4083 44.6535 52.0274 45.2896C51.6464 45.9256 34.9519 55.635 34.1014 55.7006C33.2509 55.7663 16.183 45.6268 15.736 44.9524C15.289 44.2784 15.2891 32.313 15.2891 32.313V45.3959Z" fill="#969696"/>
<path d="M18.6593 37.8747C18.6593 37.8747 18.6066 42.8983 18.885 43.32C19.1637 43.7416 26.4057 47.923 26.4057 47.923C26.4057 47.923 18.5594 43.8668 18.4862 43.6048C18.4131 43.3422 18.6593 37.8747 18.6593 37.8747Z" fill="white"/>
<path opacity="0.5" d="M24.9652 48.0234C24.415 48.0248 22.8737 48.6421 23.2068 49.0066C23.4756 49.3007 32.7144 54.9029 33.7625 55.288C34.1045 55.4135 34.0716 53.2297 33.6127 52.5242C33.4161 52.2225 26.6696 48.019 24.9652 48.0234Z" fill="white"/>
<path d="M40.4902 13.1996C40.0429 13.3203 41.5387 15.2032 42.2503 15.3718C42.962 15.5404 43.9356 15.0346 43.5984 14.6882C43.2612 14.3418 41.183 13.0125 40.4902 13.1996Z" fill="white"/>
<path d="M43.8039 15.0663C43.1258 15.2479 44.3767 18.2224 44.9119 18.7515C45.4475 19.2805 50.204 20.2079 50.0949 19.3506C49.9858 18.4933 44.7563 14.8116 43.8039 15.0663Z" fill="white"/>
<path opacity="0.5" d="M42.5218 48.0736C42.1204 49.8265 42.1846 50.86 42.4097 50.8713C42.6343 50.8822 50.7846 45.9773 51.0069 45.7615C51.2292 45.5457 49.7006 44.1378 49.071 44.2342C48.4414 44.331 42.6716 47.4183 42.5218 48.0736Z" fill="#8394A5"/>
<path opacity="0.5" d="M19.6498 22.1674C19.4529 21.5768 18.8503 21.5806 18.7956 22.2389C18.7409 22.8972 18.6465 35.1022 18.8862 35.1207C19.1259 35.1395 19.6314 34.5404 19.6502 34.2593C19.6686 33.9785 19.7435 22.4482 19.6498 22.1674Z" fill="#8394A5"/>
<path opacity="0.5" d="M48.2052 22.243C48.173 22.4755 48.0554 33.998 48.2052 33.998C48.355 33.998 49.029 33.4549 49.029 33.1742C49.029 32.8934 48.8604 21.9998 48.7855 21.9437C48.7106 21.8873 48.2312 22.0549 48.2052 22.243Z" fill="#C0C0C0"/>
<path opacity="0.5" d="M33.9273 13.9622C33.9273 14.1886 27.3597 17.9366 27.2051 17.9366C27.0506 17.9366 27.107 16.9254 27.3177 16.7852C27.5283 16.6446 33.8805 12.8248 33.9273 12.9513C33.9745 13.0775 33.9273 13.7738 33.9273 13.9622Z" fill="#8394A5"/>
<path d="M19.3102 43.5995C18.776 43.7332 20.3593 44.8203 20.7338 44.8764C21.1083 44.9325 20.7389 43.9787 20.5577 43.8149C20.4243 43.6945 19.6097 43.5246 19.3102 43.5995Z" fill="white"/>
<path d="M33.9119 44.6484L14.6721 33.4276C13.9283 35.1231 13.7539 36.7143 13.7539 36.7143L15.0093 38.8362L33.9119 49.8146L52.8145 38.8362L53.953 36.7143C53.953 36.7143 53.9554 35.1231 53.2639 33.4276L33.9119 44.6484Z" fill="#8394A5"/>
<path d="M15.0093 38.8361L13.7539 36.7142L33.9119 48.5229L53.9533 36.7142L52.8149 38.8361L33.9119 49.8145L15.0093 38.8361Z" fill="#8394A5"/>
<path opacity="0.5" d="M13.7539 36.7142L15.0093 38.8361L15.2955 39.0126L15.289 39.6445C15.289 39.6445 16.3676 40.1941 18.4865 41.3643C18.5583 41.404 19.8178 42.7343 19.8178 42.7343C19.8178 42.7343 33.4349 50.968 33.927 50.968C34.5624 50.968 48.0717 42.5524 48.0717 42.5524C48.0717 42.5524 49.1236 41.6687 49.2286 41.6071L52.5646 39.8603V38.9818L52.8149 38.8365L53.9533 36.7145L33.9122 48.5222L13.7539 36.7142Z" fill="#8394A5"/>
<path opacity="0.5" d="M33.9121 44.6481V48.523L53.9532 36.7143C53.9532 36.7143 53.8731 34.7715 53.2641 33.4276L33.9121 44.6481Z" fill="#C0C0C0"/>
<path opacity="0.5" d="M15.6624 34.2791C15.2944 34.2791 15.5961 37.5371 16.7143 38.2864C18.4902 39.4761 29.1981 45.7876 29.8995 45.7951C30.3841 45.8003 30.3588 43.0327 30.2131 42.8179C29.9371 42.4109 16.2116 34.2791 15.6624 34.2791Z" fill="white"/>
<path opacity="0.5" d="M39.8606 41.3009C39.628 41.5409 39.6599 44.5862 40.0572 44.4956C40.4546 44.405 46.5069 41.1733 49.361 39.0777C52.2151 36.9821 52.6179 34.2189 51.9757 34.2801C51.9757 34.2801 40.3383 40.8077 39.8606 41.3009Z" fill="white"/>
<path d="M24.1094 42.7801C24.1094 42.7801 33.3218 48.3044 33.9117 48.3044C34.5016 48.3044 41.8565 43.8406 41.8565 43.8406C41.8565 43.8406 34.1368 48.7353 33.9264 48.7353C33.763 48.7349 24.1094 42.7801 24.1094 42.7801Z" fill="white"/>
<path opacity="0.5" d="M33.9695 35.3935L26.881 39.12L28.2346 31.2268L22.5 25.6369L30.4252 24.4852L33.9695 17.3037L37.5137 24.4852L45.4389 25.6369L39.704 31.2268L41.0579 39.12L33.9695 35.3935Z" fill="#30373E"/>
<path d="M44.6105 25.9062L40.7859 25.3501L39.7412 25.1983L37.2578 24.8375L33.9693 18.1748L30.6809 24.8375L23.3281 25.9062L28.6486 31.0922L27.3925 38.4156L33.9693 34.9579L40.5458 38.4156L39.2898 31.0922L44.6105 25.9062Z" fill="white"/>
<path opacity="0.5" d="M23.293 25.9059L34.1247 28.7375L28.6134 31.092L23.293 25.9059Z" fill="#C0C0C0"/>
<path opacity="0.5" d="M44.5756 25.9066L34.1249 28.7382L39.2548 31.0927L44.5756 25.9066Z" fill="#C0C0C0"/>
<path opacity="0.5" d="M33.9343 34.958L34.1247 28.7378L27.3574 38.4157L33.9343 34.958Z" fill="#C0C0C0"/>
<path opacity="0.5" d="M40.5101 38.4152L34.1241 28.7373L33.9336 34.9575L40.5101 38.4152Z" fill="#C0C0C0"/>
<path opacity="0.5" d="M33.9336 18.1748L34.1241 28.7377L37.222 24.8375L33.9336 18.1748Z" fill="#C0C0C0"/>
<path opacity="0.5" d="M44.5756 25.9062L34.1249 28.7377L37.2228 24.8375L44.5756 25.9062Z" fill="#C0C0C0"/>
<path opacity="0.5" d="M44.5756 25.9062L34.1249 28.7377L37.2228 24.8375L44.5756 25.9062Z" fill="#C0C0C0"/>
<path opacity="0.5" d="M30.6457 24.8375L34.1247 28.7377L23.293 25.9062L30.6457 24.8375Z" fill="#C0C0C0"/>
<path opacity="0.8" d="M37.2225 27.1559C36.6761 27.6183 37.1425 27.9209 37.1425 27.9209L39.958 27.158C39.958 27.158 38.4855 26.0876 37.2225 27.1559Z" fill="white"/>
<path opacity="0.5" d="M27.3926 38.4152C27.3926 38.4152 32.381 36.0655 33.9694 35.411L40.5459 38.4152L33.9694 34.9575L27.3926 38.4152Z" fill="#30373E"/>
<path opacity="0.5" d="M23.291 25.9058L34.1227 28.7373L28.1754 33.8543L23.291 25.9058Z" fill="#30373E"/>
<path opacity="0.5" d="M44.5738 25.9062L34.123 28.7378L39.8815 34.5363L44.5738 25.9062Z" fill="#C0C0C0"/>
<path opacity="0.5" d="M27.3926 38.4161L34.1223 28.7383L40.5459 38.4161L33.9694 37.3772L27.3926 38.4161Z" fill="#30373E"/>
<path opacity="0.4" d="M31.5207 23.6858C30.8214 25.6258 33.486 26.98 33.8448 26.3832C34.2035 25.7868 33.9758 22.455 33.5257 22.0053C33.076 21.5556 31.8073 22.892 31.5207 23.6858Z" fill="#F7FFFF"/>
<path opacity="0.4" d="M29.3418 33.6225C30.7579 33.8147 31.5509 32.2019 31.8495 31.0922C32.3299 29.3047 26.7674 33.2733 29.3418 33.6225Z" fill="#F7FFFF"/>
</svg>
