<?xml version="1.0" encoding="UTF-8"?>
<svg xmlns="http://www.w3.org/2000/svg" version="1.1" xmlns:xlink="http://www.w3.org/1999/xlink" viewBox="0 0 92 62">
  <defs>
    <style>
      .cls-1 {
        fill: url(#linear-gradient-2);
      }

      .cls-2, .cls-3, .cls-4 {
        fill: #fff;
      }

      .cls-5 {
        fill: url(#linear-gradient-10);
      }

      .cls-5, .cls-3, .cls-6, .cls-7, .cls-4, .cls-8, .cls-9 {
        isolation: isolate;
      }

      .cls-5, .cls-9 {
        opacity: .7;
      }

      .cls-3, .cls-6 {
        opacity: .3;
      }

      .cls-10 {
        fill: url(#linear-gradient-3);
      }

      .cls-11 {
        fill: url(#linear-gradient-5);
      }

      .cls-6, .cls-8 {
        fill: #963c20;
      }

      .cls-12 {
        fill: url(#linear-gradient-8);
      }

      .cls-7 {
        fill: url(#linear-gradient-4);
        opacity: .4;
      }

      .cls-4 {
        opacity: .5;
      }

      .cls-13 {
        fill: url(#linear-gradient-9);
      }

      .cls-8 {
        opacity: .6;
      }

      .cls-14 {
        fill: url(#linear-gradient-6);
      }

      .cls-9 {
        fill: url(#linear-gradient-7);
      }

      .cls-15 {
        fill: url(#linear-gradient);
      }
    </style>
    <linearGradient id="linear-gradient" x1="46.1" y1="-1992.6" x2="46.1" y2="-1940.3" gradientTransform="translate(0 -1930) scale(1 -1)" gradientUnits="userSpaceOnUse">
      <stop offset="0" stop-color="#f77f5c"/>
      <stop offset=".4" stop-color="#e5552f"/>
      <stop offset=".5" stop-color="#e65a33"/>
      <stop offset=".6" stop-color="#e9693e"/>
      <stop offset=".8" stop-color="#ef8150"/>
      <stop offset="1" stop-color="#f6a36a"/>
      <stop offset="1" stop-color="#f7a66c"/>
    </linearGradient>
    <linearGradient id="linear-gradient-2" x1="46.1" y1="-1931.1" x2="46.1" y2="-1983.6" gradientTransform="translate(0 -1930) scale(1 -1)" gradientUnits="userSpaceOnUse">
      <stop offset="0" stop-color="#a44c34"/>
      <stop offset=".2" stop-color="#964832"/>
      <stop offset=".4" stop-color="#e9693e"/>
      <stop offset=".7" stop-color="#ef8150"/>
      <stop offset="1" stop-color="#f6a36a"/>
      <stop offset="1" stop-color="#f7a66c"/>
    </linearGradient>
    <linearGradient id="linear-gradient-3" x1="46.1" y1="-1984.8" x2="46.1" y2="-1937.2" gradientTransform="translate(0 -1930) scale(1 -1)" gradientUnits="userSpaceOnUse">
      <stop offset="0" stop-color="#dd785b"/>
      <stop offset=".4" stop-color="#c9654a"/>
      <stop offset=".5" stop-color="#d16b4e"/>
      <stop offset=".6" stop-color="#c0694c"/>
      <stop offset=".8" stop-color="#ce805d"/>
      <stop offset="1" stop-color="#df9e71"/>
      <stop offset="1" stop-color="#d69a6e"/>
    </linearGradient>
    <linearGradient id="linear-gradient-4" x1="34.5" y1="-1975.8" x2="34.5" y2="-1990.6" gradientTransform="translate(0 -1930) scale(1 -1)" gradientUnits="userSpaceOnUse">
      <stop offset="0" stop-color="#653627"/>
      <stop offset="1" stop-color="#fff"/>
    </linearGradient>
    <linearGradient id="linear-gradient-5" x1="46" y1="-1940.7" x2="46" y2="-1978.6" gradientTransform="translate(0 -1930) scale(1 -1)" gradientUnits="userSpaceOnUse">
      <stop offset="0" stop-color="#f77f5c"/>
      <stop offset=".4" stop-color="#b86a55"/>
      <stop offset=".5" stop-color="#d17e67"/>
      <stop offset=".6" stop-color="#d37150"/>
      <stop offset=".8" stop-color="#e4845a"/>
      <stop offset="1" stop-color="#e09c6d"/>
      <stop offset="1" stop-color="#e29f6f"/>
    </linearGradient>
    <linearGradient id="linear-gradient-6" x1="46.1" y1="-1983.3" x2="46.1" y2="-1966.4" gradientTransform="translate(0 -1930) scale(1 -1)" gradientUnits="userSpaceOnUse">
      <stop offset="0" stop-color="#a37953"/>
      <stop offset="1" stop-color="#ffc14f"/>
    </linearGradient>
    <linearGradient id="linear-gradient-7" x1="59.1" y1="-1962.1" x2="59.1" y2="-1981.6" gradientTransform="translate(0 -1930) scale(1 -1)" gradientUnits="userSpaceOnUse">
      <stop offset="0" stop-color="#97462d"/>
      <stop offset="1" stop-color="#fff"/>
    </linearGradient>
    <linearGradient id="linear-gradient-8" x1="46" y1="-1931.7" x2="46" y2="-1969.6" gradientTransform="translate(0 -1930) scale(1 -1)" gradientUnits="userSpaceOnUse">
      <stop offset="0" stop-color="#c97f69"/>
      <stop offset=".4" stop-color="#c3644b"/>
      <stop offset=".5" stop-color="#b46048"/>
      <stop offset=".6" stop-color="#ce7050"/>
      <stop offset=".8" stop-color="#dc8f6d"/>
      <stop offset="1" stop-color="#e6a171"/>
      <stop offset="1" stop-color="#e39e6d"/>
    </linearGradient>
    <linearGradient id="linear-gradient-9" x1="46.1" y1="-1975.2" x2="46.1" y2="-1958.3" gradientTransform="translate(0 -1930) scale(1 -1)" gradientUnits="userSpaceOnUse">
      <stop offset="0" stop-color="#98744b"/>
      <stop offset="1" stop-color="#ffc14f"/>
    </linearGradient>
    <linearGradient id="linear-gradient-10" x1="59.1" y1="-1954" x2="59.1" y2="-1973.5" gradientTransform="translate(0 -1930) scale(1 -1)" gradientUnits="userSpaceOnUse">
      <stop offset="0" stop-color="#c14500"/>
      <stop offset="1" stop-color="#fff"/>
    </linearGradient>
  </defs>
  <!-- Generator: Adobe Illustrator 28.7.1, SVG Export Plug-In . SVG Version: 1.2.0 Build 142)  -->
  <g>
    <g id="Layer_1">
      <g id="Layer_1-2" data-name="Layer_1">
        <g id="Layer_1-2">
          <g id="Layer_1-2-2" data-name="Layer_1-2">
            <g id="Layer_1-2-2">
              <path class="cls-15" d="M46.1.5l-24.1,13.9v33.2l24.1,13.9,24.1-13.9V14.4L46.1.5Z"/>
              <path class="cls-1" d="M26.4,45.1v-28.1l19.7-11.4,19.7,11.4v28.1l-19.7,11.4s-19.7-11.4-19.7-11.4Z"/>
              <path class="cls-10" d="M27.8,44.3v-26.5l18.3-10.6,18.3,10.6v26.5l-18.3,10.6s-18.3-10.6-18.3-10.6Z"/>
              <path class="cls-4" d="M69.5,14.5c.3.9-2.3,2-4.1,1.6s-18.6-10.4-19.2-11.2-.4-3.7,0-3.7c.6,0,23.1,12.9,23.2,13.4h0Z"/>
              <path class="cls-7" d="M23.2,47.4c.3.4,22,13.3,22.3,13.3s.4-3.2.4-3.5c0-1-19.2-11.2-19.5-11.3-.5,0-3.5,1.1-3.2,1.6h0Z"/>
              <path class="cls-3" d="M64,18c-.3,0-16.8-9.6-17.8-9.6s-12.4,5.4-17.1,9.5c-1.3,1.1-.8,17.3.4,17s2-6.8,14.8-10.5c12.6-3.6,18.1-.5,19.4,0,.4.2,1-6.3.3-6.5h0Z"/>
              <path class="cls-2" d="M54.7,10.5s10.6,6,10.7,6.7.4,18.9.4,18.9v-19.1c0-.8-11.1-6.4-11.1-6.4h0ZM26.4,32.4s-.4-15.2-.2-15.7,19.9-11.1,19.9-11.1c0,0-19,10.9-19.4,11.6s-.3,15.2-.3,15.2ZM26.4,37.9s0,6.5.3,7c.4.5,9.7,5.9,9.7,5.9,0,0-10.1-5.2-10.2-5.6,0-.3.2-7.4.2-7.4h0Z"/>
              <path class="cls-6" d="M57.2,51.1c-.5,2.3-.4,3.6,0,3.6s10.8-6.3,11.1-6.6c.3-.3-1.7-2.1-2.5-2s-8.3,4.1-8.5,5h-.1ZM27.7,17.6c-.3-.8-1-.8-1.1,0,0,.9-.2,16.6,0,16.6s1-.7,1-1.1v-15.6h0ZM64.6,17.7c0,.3-.2,15.2,0,15.2s1.1-.7,1.1-1.1-.2-14.4-.3-14.5c0,0-.7,0-.8.4ZM46.1,7c0,.3-8.5,5.1-8.7,5.1s0-1.3,0-1.5,8.5-5.1,8.5-5v1.3h.2,0Z"/>
              <path class="cls-11" d="M46.1,46.6l-24.9-14.5c-1,2.2-1.2,4.2-1.2,4.2l1.6,2.7,24.4,14.2,24.4-14.2,1.5-2.7s0-2.1-.9-4.2l-25,14.5h.1Z"/>
              <path class="cls-14" d="M21.7,39.1l-1.6-2.7,26,15.3,25.9-15.3-1.5,2.7-24.4,14.2-24.4-14.2Z"/>
              <path class="cls-8" d="M20.1,36.4l1.6,2.7.4.2v.8s1.4.7,4.1,2.2l1.7,1.8s17.6,10.6,18.2,10.6,18.3-10.9,18.3-10.9c0,0,1.4-1.1,1.5-1.2l4.3-2.3v-1.1l.3-.2,1.5-2.7-25.9,15.3-26-15.3h0Z"/>
              <path class="cls-9" d="M46.1,46.6v5l25.9-15.3s0-2.5-.9-4.2c0,0-25,14.5-25,14.5Z"/>
              <path class="cls-4" d="M53.8,42.3c-.3.3-.3,4.2.3,4.1.5,0,8.3-4.3,12-7s4.2-6.3,3.4-6.2c0,0-15,8.4-15.7,9.1Z"/>
              <path class="cls-2" d="M33.4,44.2s11.9,7.1,12.7,7.1,10.3-5.8,10.3-5.8c0,0-10,6.3-10.2,6.3s-12.7-7.7-12.7-7.7h-.1,0Z"/>
              <path class="cls-12" d="M46.1,38.5l-24.9-14.5c-1,2.2-1.2,4.2-1.2,4.2l1.6,2.7,24.4,14.2,24.4-14.2,1.5-2.7s0-2.1-.9-4.2l-25,14.5h.1Z"/>
              <path class="cls-13" d="M21.7,31l-1.6-2.7,26,15.3,25.9-15.3-1.5,2.7-24.4,14.2-24.4-14.2Z"/>
              <path class="cls-8" d="M20.1,28.3l1.6,2.7.4.2v.8s1.4.7,4.1,2.2l1.7,1.8s17.6,10.6,18.2,10.6,18.3-10.9,18.3-10.9c0,0,1.4-1.1,1.5-1.2l4.3-2.3v-1.1l.3-.2,1.5-2.7-25.9,15.3-26-15.3h0Z"/>
              <path class="cls-5" d="M46.1,38.5v5l25.9-15.3s0-2.5-.9-4.2c0,0-25,14.5-25,14.5Z"/>
              <path class="cls-4" d="M53.8,34.2c-.3.3-.3,4.2.3,4.1.5,0,8.3-4.3,12-7s4.2-6.3,3.4-6.2c0,0-15,8.4-15.7,9.1Z"/>
              <path class="cls-2" d="M33.4,36.1s11.9,7.1,12.7,7.1,10.3-5.8,10.3-5.8c0,0-10,6.3-10.2,6.3s-12.7-7.7-12.7-7.7h-.1,0Z"/>
            </g>
          </g>
        </g>
      </g>
    </g>
  </g>
</svg>