<svg width="22" height="22" viewBox="0 0 22 22" fill="none" xmlns="http://www.w3.org/2000/svg">
<path d="M14.1998 11.8784L15.5044 19.2202C15.519 19.3067 15.5069 19.3955 15.4696 19.4749C15.4324 19.5543 15.3718 19.6204 15.2959 19.6644C15.2201 19.7084 15.1326 19.7282 15.0453 19.7211C14.9579 19.7141 14.8747 19.6805 14.8069 19.6249L11.7241 17.3111C11.5753 17.2 11.3945 17.1399 11.2087 17.1399C11.023 17.1399 10.8422 17.2 10.6934 17.3111L7.60542 19.6241C7.53767 19.6796 7.45461 19.7131 7.36732 19.7201C7.28003 19.7272 7.19267 19.7075 7.11688 19.6636C7.04109 19.6197 6.98049 19.5537 6.94316 19.4745C6.90582 19.3953 6.89353 19.3066 6.90792 19.2202L8.21164 11.8784M16.3724 7.66764C16.3724 10.5211 14.0592 12.8343 11.2057 12.8343C8.35226 12.8343 6.03906 10.5211 6.03906 7.66764C6.03906 4.81417 8.35226 2.50098 11.2057 2.50098C14.0592 2.50098 16.3724 4.81417 16.3724 7.66764Z" stroke="#FFC25C" stroke-width="1.72222" stroke-linecap="round" stroke-linejoin="round"/>
</svg>
