<svg width="16" height="16" viewBox="0 0 16 16" fill="none" xmlns="http://www.w3.org/2000/svg">
<path fill-rule="evenodd" clip-rule="evenodd" d="M7.25045 15.5927C6.97462 15.9091 6.4945 15.9419 6.17814 15.6661L0.260679 10.5073C0.0218368 10.2991 -0.0627751 9.96449 0.0484892 9.66778C0.159651 9.37108 0.443283 9.17449 0.760152 9.17449L14.9468 9.17449C15.3665 9.17449 15.7068 9.51477 15.7068 9.93449C15.7068 10.3542 15.3665 10.6945 14.9468 10.6945L2.78844 10.6945L7.17698 14.5204C7.49335 14.7962 7.52628 15.2763 7.25045 15.5927Z" fill="white"/>
<path fill-rule="evenodd" clip-rule="evenodd" d="M8.45649 0.407187C8.73232 0.0908245 9.21234 0.0579933 9.5287 0.333823L15.4462 5.4926C15.685 5.70084 15.7696 6.03534 15.6584 6.33215C15.5472 6.62885 15.2636 6.82544 14.9468 6.82544L0.760122 6.82544C0.3404 6.82544 0.000123054 6.48516 0.00012309 6.06544C0.000123127 5.64572 0.3404 5.30544 0.760122 5.30544L12.9185 5.30544L8.52986 1.4795C8.21349 1.20367 8.18066 0.723651 8.45649 0.407187Z" fill="white"/>
</svg>
