<svg width="108" height="108" viewBox="0 0 108 108" fill="none" xmlns="http://www.w3.org/2000/svg">
<rect x="1" y="0.5" width="106" height="107" rx="19.5" fill="#11284A" fill-opacity="0.6"/>
<rect x="1" y="0.5" width="106" height="107" rx="19.5" stroke="#11284A"/>
<path d="M88.9113 68.2208L84.7957 64.6773V48.3093C84.7957 47.1483 84.3185 46.039 83.4758 45.2405L59.1863 16.4356C57.5555 14.8899 55.0008 14.8899 53.3695 16.4356L29.0805 45.2405C28.2378 46.039 27.7606 47.1488 27.7606 48.3093V65.7704L23.5938 68.2208H23.5215V92.2056H27.7606V92.9366C27.7606 92.9479 27.7606 92.9597 27.7606 92.9715C27.7744 94.6683 29.2261 96.0059 30.9229 96.0059H81.632C83.3292 96.0059 84.7804 94.6687 84.7947 92.9715C84.7952 92.9597 84.7952 92.9484 84.7952 92.9366V92.2056H88.9605V68.2208H88.9113Z" fill="#183156"/>
<path d="M19.0391 64.9796L26.6485 60.5039H79.2797L84.4781 64.9796H19.0391Z" fill="#4879FD"/>
<path d="M80.3129 89.6534V45.0261C80.3129 43.8656 79.8357 42.7557 78.993 41.9573L54.704 13.1524C53.0732 11.6067 50.518 11.6067 48.8872 13.1524L24.5982 41.9573C23.7555 42.7557 23.2783 43.8656 23.2783 45.0261V89.6534C23.2783 89.6652 23.2783 89.6765 23.2783 89.6883C23.2921 91.3851 24.7438 92.7227 26.4411 92.7227H77.1502C78.8474 92.7227 80.2986 91.3855 80.3129 89.6883C80.3129 89.6765 80.3129 89.6647 80.3129 89.6534Z" fill="#042D9A"/>
<path d="M62.2947 33.6738L52.8961 22.0034C52.6363 21.6807 52.2157 21.6782 51.9535 21.998L42.3777 33.6684C41.9497 34.1899 42.2473 35.0931 42.8465 35.0931H47.7513V49.3846C47.7513 49.7285 48.0302 50.0074 48.3741 50.0074H56.2939C56.6378 50.0074 56.9168 49.7285 56.9168 49.3846V35.0931H61.8215C62.4182 35.0931 62.7168 34.1978 62.2947 33.6738Z" fill="#33E6BF"/>
<path d="M84.4781 64.9375H19.0391V88.9228H84.4781V64.9375Z" fill="#4B7BFA"/>
<path d="M39.7002 78.9998V73.49H40.7156V78.9998H39.7002Z" fill="#F0F4FC"/>
<path d="M42.0044 78.9998V74.9068H42.9883V75.4106C43.185 75.08 43.5865 74.836 44.1138 74.836C45.019 74.836 45.6172 75.505 45.6172 76.3079V78.9998H44.6333V76.6227C44.6333 76.0954 44.2713 75.7726 43.8147 75.7726C43.3188 75.7726 42.9883 76.1268 42.9883 76.6227V78.9998H42.0044Z" fill="#F0F4FC"/>
<path d="M46.7079 78.9998V74.9068H47.6918V78.9998H46.7079ZM46.5426 73.6396C46.5426 73.2618 46.8181 72.9941 47.1959 72.9941C47.5658 72.9941 47.8492 73.2618 47.8492 73.6396C47.8492 74.0095 47.5658 74.2771 47.1959 74.2771C46.8181 74.2771 46.5426 74.0095 46.5426 73.6396Z" fill="#F0F4FC"/>
<path d="M49.1208 78.9998V75.8041H48.4282V74.9068H49.1444V73.8993H50.1047V74.9068H51.1122V75.8041H50.1047V78.0553H51.128V78.9998H49.1208Z" fill="#F0F4FC"/>
<path d="M52.0194 78.9998V74.9068H53.0033V78.9998H52.0194ZM51.8541 73.6396C51.8541 73.2618 52.1296 72.9941 52.5074 72.9941C52.8774 72.9941 53.1607 73.2618 53.1607 73.6396C53.1607 74.0095 52.8774 74.2771 52.5074 74.2771C52.1296 74.2771 51.8541 74.0095 51.8541 73.6396Z" fill="#F0F4FC"/>
<path d="M55.2982 79.0785C54.4953 79.0785 53.8892 78.5669 53.8892 77.8034C53.8892 77.0556 54.4087 76.5598 55.3297 76.5047L56.4552 76.4338V76.3945C56.4552 76.1032 56.1483 75.7176 55.5815 75.7176C54.9991 75.7176 54.7472 76.0875 54.6606 76.3394L53.8735 75.9379C54.1175 75.3555 54.6606 74.836 55.6051 74.836C56.8488 74.836 57.4391 75.7176 57.4391 76.4811V78.9998H56.4552V78.5669C56.2585 78.8739 55.8334 79.0785 55.2982 79.0785ZM54.8889 77.764C54.8889 78.0395 55.1171 78.2127 55.4398 78.2127C55.9672 78.2127 56.471 77.8664 56.471 77.3626V77.2367L55.3926 77.3075C55.0935 77.3311 54.8889 77.4886 54.8889 77.764Z" fill="#F0F4FC"/>
<path d="M58.8291 78.9998V75.8041H58.1365V74.9068H58.8527V73.8993H59.813V74.9068H60.8205V75.8041H59.813V78.0553H60.8363V78.9998H58.8291Z" fill="#F0F4FC"/>
<path d="M63.5381 79.0707C62.2078 79.0707 61.405 78.134 61.405 76.9533C61.405 75.7569 62.2629 74.836 63.5302 74.836C64.8289 74.836 65.5688 75.8356 65.5688 76.914V77.3075H62.3967C62.5227 77.9215 62.9792 78.197 63.5381 78.197C64.1678 78.197 64.5456 77.8349 64.6558 77.5594L65.4035 77.9923C65.2461 78.3859 64.6636 79.0707 63.5381 79.0707ZM62.4204 76.5204H64.5456C64.522 76.1583 64.1835 75.6861 63.5223 75.6861C63.0264 75.6861 62.5699 75.9694 62.4204 76.5204Z" fill="#F0F4FC"/>
<path d="M73.9482 73.2305L74.6974 74.7487C74.7545 74.8643 74.8652 74.9445 74.9931 74.9631L76.6682 75.2067C76.9899 75.2534 77.1183 75.6489 76.8856 75.8757L75.6735 77.0574C75.581 77.1474 75.5387 77.2773 75.5608 77.4047L75.8471 79.0729C75.9022 79.3936 75.5657 79.6376 75.2779 79.4866L73.7795 78.699C73.6653 78.639 73.5286 78.639 73.4144 78.699L71.916 79.4866C71.6282 79.6376 71.2917 79.3936 71.3468 79.0729L71.6331 77.4047C71.6547 77.2773 71.6129 77.1474 71.5204 77.0574L70.3083 75.8757C70.0756 75.6489 70.204 75.2534 70.5257 75.2067L72.2008 74.9631C72.3287 74.9445 72.4389 74.8643 72.496 74.7487L73.2452 73.2305C73.3889 72.9388 73.8046 72.9388 73.9482 73.2305Z" fill="white"/>
<path d="M32.018 73.2305L32.7673 74.7487C32.8243 74.8643 32.935 74.9445 33.0624 74.9631L34.7375 75.2067C35.0593 75.2534 35.1877 75.6489 34.955 75.8757L33.7428 77.0574C33.6503 77.1474 33.608 77.2773 33.6301 77.4047L33.9165 79.0729C33.9716 79.3936 33.6351 79.6376 33.3473 79.4866L31.8488 78.699C31.7347 78.639 31.5979 78.639 31.4838 78.699L29.9853 79.4866C29.6975 79.6376 29.361 79.3936 29.4161 79.0729L29.7024 77.4047C29.7241 77.2773 29.6823 77.1474 29.5898 77.0574L28.3776 75.8757C28.1449 75.6489 28.2733 75.2534 28.595 75.2067L30.2701 74.9631C30.398 74.9445 30.5082 74.8643 30.5653 74.7487L31.3145 73.2305C31.4587 72.9388 31.8744 72.9388 32.018 73.2305Z" fill="white"/>
<path d="M72.6101 45.0037L68.2406 39.5781C68.12 39.428 67.9242 39.427 67.8022 39.5756L63.3506 45.0013C63.1518 45.2438 63.2901 45.6634 63.5685 45.6634H65.8487V52.3076C65.8487 52.4675 65.9786 52.5974 66.138 52.5974H69.8197C69.9796 52.5974 70.1095 52.468 70.1095 52.3076V45.6634H72.3897C72.6676 45.6634 72.8063 45.2472 72.6101 45.0037Z" fill="#4B7BFA"/>
<path d="M41.0671 45.0037L36.6976 39.5781C36.5771 39.428 36.3813 39.427 36.2593 39.5756L31.8076 45.0013C31.6089 45.2438 31.7471 45.6634 32.0256 45.6634H34.3057V52.3076C34.3057 52.4675 34.4351 52.5974 34.595 52.5974H38.2768C38.4366 52.5974 38.5665 52.468 38.5665 52.3076V45.6634H40.8467C41.1241 45.6634 41.2634 45.2472 41.0671 45.0037Z" fill="#4B7BFA"/>
</svg>
