<svg width="25" height="25" viewBox="0 0 25 25" fill="none" xmlns="http://www.w3.org/2000/svg">
<path d="M18.75 22.334H4.75C4.21957 22.334 3.71086 22.1233 3.33579 21.7482C2.96071 21.3731 2.75 20.8644 2.75 20.334V6.33398M22.75 13.334L21.454 12.038C21.002 11.5861 20.3891 11.3323 19.75 11.3323C19.1109 11.3323 18.498 11.5861 18.046 12.038L11.75 18.334M14.75 8.33398C14.75 9.43855 13.8546 10.334 12.75 10.334C11.6454 10.334 10.75 9.43855 10.75 8.33398C10.75 7.22941 11.6454 6.33398 12.75 6.33398C13.8546 6.33398 14.75 7.22941 14.75 8.33398ZM8.75 2.33398H20.75C21.8546 2.33398 22.75 3.22941 22.75 4.33398V16.334C22.75 17.4386 21.8546 18.334 20.75 18.334H8.75C7.64543 18.334 6.75 17.4386 6.75 16.334V4.33398C6.75 3.22941 7.64543 2.33398 8.75 2.33398Z" stroke="white" stroke-width="1.5" stroke-linecap="round" stroke-linejoin="round"/>
</svg>
