<?xml version="1.0" encoding="UTF-8"?>
<svg xmlns="http://www.w3.org/2000/svg" version="1.1" viewBox="0 0 24 24">
  <defs>
    <style>
      .cls-1 {
        fill: #15d7ac;
      }

      .cls-2 {
        fill: #4879fd;
      }
    </style>
  </defs>
  <polygon class="cls-1" points="10.9 4.4 6.5 4.4 6.5 0 4.4 0 4.4 4.4 0 4.4 0 6.5 4.4 6.5 4.4 10.9 6.5 10.9 6.5 6.5 10.9 6.5 10.9 4.4"/>
  <rect class="cls-2" width="2.2" height="2.2"/>
  <path class="cls-2" d="M24,10.9h-10.9V0h10.9v10.9ZM15.3,8.7h6.5V2.2h-6.5v6.5Z"/>
  <rect class="cls-2" x="17.5" y="4.4" width="2.2" height="2.2"/>
  <path class="cls-2" d="M10.9,24H0v-10.9h10.9v10.9ZM2.2,21.8h6.5v-6.5H2.2v6.5Z"/>
  <rect class="cls-2" x="4.4" y="17.5" width="2.2" height="2.2"/>
  <path class="cls-2" d="M24,24h-10.9v-10.9h10.9v10.9ZM15.3,21.8h6.5v-6.5h-6.5v6.5Z"/>
  <rect class="cls-2" x="17.5" y="17.5" width="2.2" height="2.2"/>
</svg>