<svg width="439" height="310" viewBox="0 0 439 310" fill="none" xmlns="http://www.w3.org/2000/svg">
<g clip-path="url(#clip0_2013_21269)">
<rect x="0.5" width="438" height="310" rx="12" fill="#061B3A"/>
<g filter="url(#filter0_f_2013_21269)">
<ellipse cx="129" cy="330.5" rx="241.5" ry="192.5" fill="url(#paint0_radial_2013_21269)"/>
</g>
<g filter="url(#filter1_f_2013_21269)">
<circle cx="429" cy="-21.5" r="192.5" fill="url(#paint1_radial_2013_21269)"/>
</g>
<path d="M516 -22C516 25.7699 477.051 64.5 429 64.5C380.949 64.5 342 25.7699 342 -22C342 -69.7699 380.949 -108.5 429 -108.5C477.051 -108.5 516 -69.7699 516 -22Z" stroke="#33E6BF" stroke-opacity="0.27"/>
<path d="M582 -22C582 61.6665 513.504 129.5 429 129.5C344.496 129.5 276 61.6665 276 -22C276 -105.667 344.496 -173.5 429 -173.5C513.504 -173.5 582 -105.667 582 -22Z" stroke="#33E6BF" stroke-opacity="0.27"/>
</g>
<defs>
<filter id="filter0_f_2013_21269" x="-125.2" y="125.3" width="508.4" height="410.4" filterUnits="userSpaceOnUse" color-interpolation-filters="sRGB">
<feFlood flood-opacity="0" result="BackgroundImageFix"/>
<feBlend mode="normal" in="SourceGraphic" in2="BackgroundImageFix" result="shape"/>
<feGaussianBlur stdDeviation="6.35" result="effect1_foregroundBlur_2013_21269"/>
</filter>
<filter id="filter1_f_2013_21269" x="223.8" y="-226.7" width="410.4" height="410.4" filterUnits="userSpaceOnUse" color-interpolation-filters="sRGB">
<feFlood flood-opacity="0" result="BackgroundImageFix"/>
<feBlend mode="normal" in="SourceGraphic" in2="BackgroundImageFix" result="shape"/>
<feGaussianBlur stdDeviation="6.35" result="effect1_foregroundBlur_2013_21269"/>
</filter>
<radialGradient id="paint0_radial_2013_21269" cx="0" cy="0" r="1" gradientUnits="userSpaceOnUse" gradientTransform="translate(129 330.5) rotate(89.8052) scale(184.501 231.464)">
<stop stop-color="#0439C7" stop-opacity="0.71"/>
<stop offset="1" stop-color="#02122A" stop-opacity="0"/>
</radialGradient>
<radialGradient id="paint1_radial_2013_21269" cx="0" cy="0" r="1" gradientUnits="userSpaceOnUse" gradientTransform="translate(429 -21.5) rotate(89.8661) scale(214.001)">
<stop stop-color="#0439C7" stop-opacity="0.71"/>
<stop offset="1" stop-color="#02122A" stop-opacity="0"/>
</radialGradient>
<clipPath id="clip0_2013_21269">
<rect x="0.5" width="438" height="310" rx="12" fill="white"/>
</clipPath>
</defs>
</svg>
