<svg width="25" height="24" viewBox="0 0 25 24" fill="none" xmlns="http://www.w3.org/2000/svg">
<g filter="url(#filter0_d_2217_1171)">
<path d="M8.75024 11.334H12.7502M10.7502 15.334V8.83398C10.7502 8.17094 11.0136 7.53506 11.4825 7.06622C11.9513 6.59738 12.5872 6.33398 13.2502 6.33398C13.9133 6.33398 14.5492 6.59738 15.018 7.06622C15.4869 7.53506 15.7502 8.17094 15.7502 8.83398M8.75024 15.334H15.7502M4.60019 7.95408C4.45423 7.29661 4.47665 6.61292 4.66535 5.96642C4.85405 5.31992 5.20294 4.73153 5.67966 4.2558C6.15638 3.78008 6.7455 3.43243 7.3924 3.24508C8.0393 3.05773 8.72303 3.03675 9.38019 3.18408C9.7419 2.61838 10.2402 2.15284 10.8291 1.83037C11.4181 1.50789 12.0787 1.33887 12.7502 1.33887C13.4216 1.33887 14.0823 1.50789 14.6712 1.83037C15.2602 2.15284 15.7585 2.61838 16.1202 3.18408C16.7784 3.03611 17.4633 3.05699 18.1112 3.2448C18.7591 3.4326 19.349 3.78122 19.826 4.25824C20.3031 4.73525 20.6517 5.32515 20.8395 5.97308C21.0273 6.62101 21.0482 7.30591 20.9002 7.96408C21.4659 8.32579 21.9314 8.82408 22.2539 9.41303C22.5764 10.002 22.7454 10.6626 22.7454 11.3341C22.7454 12.0055 22.5764 12.6662 22.2539 13.2551C21.9314 13.8441 21.4659 14.3424 20.9002 14.7041C21.0475 15.3612 21.0265 16.045 20.8392 16.6919C20.6518 17.3388 20.3042 17.9279 19.8285 18.4046C19.3527 18.8813 18.7644 19.2302 18.1179 19.4189C17.4713 19.6076 16.7877 19.63 16.1302 19.4841C15.769 20.0519 15.2703 20.5195 14.6803 20.8434C14.0904 21.1673 13.4282 21.3371 12.7552 21.3371C12.0822 21.3371 11.42 21.1673 10.8301 20.8434C10.2401 20.5195 9.74143 20.0519 9.38019 19.4841C8.72303 19.6314 8.0393 19.6104 7.3924 19.4231C6.7455 19.2357 6.15638 18.8881 5.67966 18.4124C5.20294 17.9366 4.85405 17.3482 4.66535 16.7017C4.47665 16.0552 4.45423 15.3716 4.60019 14.7141C4.03015 14.3533 3.56061 13.8543 3.23524 13.2633C2.90988 12.6723 2.73926 12.0087 2.73926 11.3341C2.73926 10.6595 2.90988 9.99583 3.23524 9.40487C3.56061 8.81391 4.03015 8.31484 4.60019 7.95408Z" stroke="white" stroke-width="1.5" stroke-linecap="round" stroke-linejoin="round" shape-rendering="crispEdges"/>
</g>
<defs>
<filter id="filter0_d_2217_1171" x="-2.01074" y="0.588867" width="29.5059" height="29.498" filterUnits="userSpaceOnUse" color-interpolation-filters="sRGB">
<feFlood flood-opacity="0" result="BackgroundImageFix"/>
<feColorMatrix in="SourceAlpha" type="matrix" values="0 0 0 0 0 0 0 0 0 0 0 0 0 0 0 0 0 0 127 0" result="hardAlpha"/>
<feOffset dy="4"/>
<feGaussianBlur stdDeviation="2"/>
<feComposite in2="hardAlpha" operator="out"/>
<feColorMatrix type="matrix" values="0 0 0 0 0 0 0 0 0 0 0 0 0 0 0 0 0 0 0.25 0"/>
<feBlend mode="normal" in2="BackgroundImageFix" result="effect1_dropShadow_2217_1171"/>
<feBlend mode="normal" in="SourceGraphic" in2="effect1_dropShadow_2217_1171" result="shape"/>
</filter>
</defs>
</svg>
