<svg width="39" height="39" viewBox="0 0 39 39" fill="none" xmlns="http://www.w3.org/2000/svg">
<path d="M25.8337 33.584V30.4173C25.8337 28.7376 25.1664 27.1267 23.9787 25.939C22.7909 24.7512 21.18 24.084 19.5003 24.084H10.0003C8.32062 24.084 6.70971 24.7512 5.52198 25.939C4.33425 27.1267 3.66699 28.7376 3.66699 30.4173V33.584M35.3337 33.5838V30.4171C35.3326 29.0139 34.8656 27.6507 34.0058 26.5416C33.1461 25.4326 31.9424 24.6404 30.5837 24.2896M25.8337 5.28963C27.196 5.63844 28.4035 6.43074 29.2658 7.54162C30.128 8.65251 30.5961 10.0188 30.5961 11.425C30.5961 12.8313 30.128 14.1976 29.2658 15.3085C28.4035 16.4194 27.196 17.2117 25.8337 17.5605M21.0837 11.4173C21.0837 14.9151 18.2481 17.7507 14.7503 17.7507C11.2525 17.7507 8.41699 14.9151 8.41699 11.4173C8.41699 7.91951 11.2525 5.08398 14.7503 5.08398C18.2481 5.08398 21.0837 7.91951 21.0837 11.4173Z" stroke="#4879FD" stroke-width="2" stroke-linecap="round" stroke-linejoin="round"/>
</svg>
