<svg class="navbar-logo" width="50" height="50" viewBox="0 0 50 50" fill="none" xmlns="http://www.w3.org/2000/svg">
                <g clip-path="url(#clip0_12494_3956)">
                    <path d="M24 1C10.7452 1 0 11.7454 0 24.9996C0 38.2538 10.7452 49 24 49C37.2548 49 48 38.2546 48 24.9996C48 11.7446 37.2548 1 24 1ZM24 45.9969C12.4042 45.9969 3.0038 36.5964 3.0038 24.9996C3.0038 13.4029 12.4042 4.00307 24 4.00307C35.5958 4.00307 44.9962 13.4036 44.9962 24.9996C44.9962 36.5956 35.5958 45.9969 24 45.9969Z" fill="white"></path>
                    <path d="M7.32617 16.518C5.9798 19.1593 5.29688 22.0127 5.29688 24.9994C5.29688 27.1543 5.65783 29.2561 6.37038 31.2597L13.8429 28.2504C13.5076 27.2034 13.3377 26.1135 13.3377 24.9994C13.3377 23.2975 13.7275 21.6705 14.4954 20.1635C15.1097 18.9582 15.9618 17.8675 16.9831 16.9725L12.1402 10.5376C10.1483 12.1748 8.49324 14.2283 7.32617 16.518Z" fill="white"></path>
                    <path d="M29.9404 16.1432L34.9033 9.80026C33.4579 8.76181 31.8808 7.93854 30.2031 7.34916C28.2151 6.65062 26.1281 6.2959 24.0006 6.2959C21.8731 6.2959 19.9038 6.63113 17.9673 7.29068C16.3395 7.84499 14.8013 8.61993 13.3848 9.59912L18.2276 16.0333C19.9474 14.9215 21.9276 14.3368 24.0006 14.3368C26.0735 14.3368 28.1839 14.959 29.9404 16.1432Z" fill="white"></path>
                    <path d="M32.7408 18.8959L41.0365 17.272C40.9461 17.0724 40.851 16.8736 40.7528 16.6756C39.6348 14.4295 38.0444 12.3986 36.129 10.7622L31.166 17.1059C31.7546 17.6415 32.2847 18.2442 32.7408 18.8959Z" fill="white"></path>
                    <path d="M41.8079 19.2578L34.5934 23.7811C34.6394 24.1826 34.6621 24.5888 34.6621 24.9997C34.6621 26.1964 34.4672 27.3627 34.082 28.4775L41.4851 31.6529C42.2936 29.5339 42.7029 27.2995 42.7029 24.9997C42.7029 23.021 42.4027 21.0993 41.8079 19.2578Z" fill="white"></path>
                    <path d="M39.6053 18.9824L33.5111 20.1752L26.8183 21.4858C25.5974 20.5081 23.9018 20.1939 22.3434 20.8106C20.0295 21.7259 18.896 24.343 19.8112 26.6569C20.7265 28.9708 23.3436 30.1044 25.6575 29.1891C27.0865 28.6239 28.0649 27.4085 28.3884 26.0169L34.3188 22.2981L39.6053 18.9832V18.9824Z" fill="white"></path>
                </g>
            </svg>