<svg xmlns="http://www.w3.org/2000/svg" width="42" height="49" fill="none"><g clip-path="url(#a)"><path fill="#056DE2" d="M41.368 34.147v-19.17a6.345 6.345 0 0 0-3.172-5.494l-14.34-8.278a6.344 6.344 0 0 0-6.344 0L3.172 9.483A6.345 6.345 0 0 0 0 14.977v19.17a6.345 6.345 0 0 0 3.172 5.494l14.34 8.28a6.344 6.344 0 0 0 6.343 0l14.34-8.28a6.345 6.345 0 0 0 3.172-5.494Z"/><path fill="#000" d="M33.489 15.163v6.86l-12.805-7.392-7.099 4.099v2.66h13.76v6.137h-13.76v2.51l7.1 4.098 12.804-7.392v6.86l-12.804 7.392v.001L7.88 33.604v-18.44L20.684 7.77l12.805 7.392Z"/></g><defs><clipPath id="a"><path fill="#fff" d="M0 .354h41.368V48.77H0z"/></clipPath></defs></svg>