<?xml version="1.0" encoding="UTF-8"?><svg id="CIRCLE_OUTLINE_BLACK" xmlns="http://www.w3.org/2000/svg" xmlns:xlink="http://www.w3.org/1999/xlink" viewBox="0 0 512 512"><defs><linearGradient id="Degradado_sin_nombre_5" x1="480.0244" y1="6463.42295" x2="64.44534" y2="6071.42473" gradientTransform="translate(0 6508.11017) scale(1 -1)" gradientUnits="userSpaceOnUse"><stop offset="0" stop-color="#d615eb"/><stop offset="1" stop-color="#8436f5"/></linearGradient><linearGradient id="Degradado_sin_nombre_5-2" x1="521.28854" y1="6334.48859" x2="116.72009" y2="6022.92236" xlink:href="#Degradado_sin_nombre_5"/><linearGradient id="Degradado_sin_nombre_5-3" x1="430.93882" y1="6425.58616" x2="77.74894" y2="6080.17842" xlink:href="#Degradado_sin_nombre_5"/><linearGradient id="Degradado_sin_nombre_5-4" x1="432.86829" y1="6412.52239" x2="83.39533" y2="6068.92059" xlink:href="#Degradado_sin_nombre_5"/><linearGradient id="Degradado_sin_nombre_5-5" x1="353.96508" y1="6496.34589" x2="17.1732" y2="6140.07753" xlink:href="#Degradado_sin_nombre_5"/></defs><circle cx="256" cy="256" r="256" fill="url(#Degradado_sin_nombre_5)"/><circle cx="255.99972" cy="255.99972" r="226.0426" fill="#1b1821"/><path d="M310.9888,291.62951h-46.20885v-27.72452h120.14449v27.72452h-46.21083v66.54293h46.21083v27.72483h-120.14449v-27.72483h46.20885v-66.54293Z" fill="url(#Degradado_sin_nombre_5-2)"/><path d="M292.5056,125.27673v76.5113l17.75501,17.75588h46.93904v-94.26718h27.72478v121.99283h-86.87502l-33.26947-33.2709v-88.72193h27.72565Z" fill="url(#Degradado_sin_nombre_5-3)"/><path d="M248.14449,263.90499v88.72079l-33.2709,33.27148h-86.87359v-66.5401h27.72565v38.81528h46.93674l17.75645-17.75501v-48.78791h-31.42257v-27.72452h59.14822Z" fill="url(#Degradado_sin_nombre_5-4)"/><path d="M128,125.27673h121.99282v85.02529h-32.25571l32.25571,36.96725h-39.74002l-32.256-36.96725h-22.27115v36.96753h-27.72565v-64.69321h25.8048l-25.8048-29.57396v-27.72566ZM167.74002,153.00239l25.8048,29.57396h28.72235v-29.57396h-54.52715Z" fill="url(#Degradado_sin_nombre_5-5)" fill-rule="evenodd"/></svg>