<svg xmlns="http://www.w3.org/2000/svg" width="46" height="46" fill="none"><path fill="url(#a)" d="M42.301 27.955a14.262 14.262 0 0 1-1.088 5.492 14.287 14.287 0 0 1-3.109 4.656 14.286 14.286 0 0 1-4.657 3.11 14.265 14.265 0 0 1-5.48 1.09h-.07a14.37 14.37 0 0 1-8.465-2.78c-2.45-1.805-4.292-4.403-5.208-7.401a14.205 14.205 0 0 1-.616-4.162V17.38a3.753 3.753 0 0 1 1.107-2.668 3.765 3.765 0 0 1 5.33.003 3.763 3.763 0 0 1 1.107 2.664v10.577a6.755 6.755 0 0 0 1.999 4.81 6.762 6.762 0 0 0 3.481 1.853 6.782 6.782 0 0 0 3.927-.388 6.782 6.782 0 0 0 3.05-2.501 6.77 6.77 0 0 0 1.154-3.775V6.805a3.756 3.756 0 0 1 1.104-2.667 3.77 3.77 0 0 1 1.222-.818 3.8 3.8 0 0 1 2.886 0A3.77 3.77 0 0 1 42.3 6.804v21.151zM12.572 12.568a6.769 6.769 0 0 0-1.996 4.811v21.152a3.746 3.746 0 0 1-1.105 2.667c-1.424 1.426-3.91 1.426-5.335 0a3.75 3.75 0 0 1-1.104-2.667v-21.15a14.358 14.358 0 0 1 3.488-9.37 14.356 14.356 0 0 1 18.537-2.746 14.34 14.34 0 0 1 2.928 2.456l.022-.026.02.076a14.329 14.329 0 0 1 3.085 5.447l.059.193c.374 1.291.564 2.626.565 3.967v10.576a3.777 3.777 0 0 1-2.327 3.483 3.774 3.774 0 0 1-1.402.28v.006c-.019 0-.036-.005-.055-.005-.24 0-.481-.016-.721-.064a3.542 3.542 0 0 1-.407-.112v-.019c-.09-.029-.184-.044-.272-.081a3.776 3.776 0 0 1-2.327-3.483v-9.578h-.002v-1.004a6.812 6.812 0 0 0-4.23-6.294 6.562 6.562 0 0 0-2.612-.51 6.77 6.77 0 0 0-4.809 1.994zM43.337 1.996A6.772 6.772 0 0 0 38.531.002h-.003A6.773 6.773 0 0 0 33.725 2a6.775 6.775 0 0 0-1.989 4.804v.764A17.4 17.4 0 0 0 11.586.992a17.317 17.317 0 0 0-8.394 6.355A17.316 17.316 0 0 0 0 17.379v21.152c0 1.817.708 3.525 1.993 4.81a6.756 6.756 0 0 0 4.811 1.994 6.758 6.758 0 0 0 4.81-1.993 6.758 6.758 0 0 0 1.994-4.811v-.759a17.408 17.408 0 0 0 20.144 6.57 17.315 17.315 0 0 0 8.39-6.354 17.315 17.315 0 0 0 3.191-10.028V6.803a6.773 6.773 0 0 0-1.996-4.807z"/><defs><linearGradient id="a" x1="-2" x2="45.075" y1="45" y2="-5.43" gradientUnits="userSpaceOnUse"><stop offset=".05" stop-color="#fff"/><stop offset=".38" stop-color="#A7B3FF"/><stop offset="1" stop-color="#74A4FF"/></linearGradient></defs></svg>