<?xml version="1.0" encoding="UTF-8"?>
<!DOCTYPE svg PUBLIC "-//W3C//DTD SVG 1.1//EN" "http://www.w3.org/Graphics/SVG/1.1/DTD/svg11.dtd">
<svg xmlns="http://www.w3.org/2000/svg" version="1.1" width="256px" height="256px" style="shape-rendering:geometricPrecision; text-rendering:geometricPrecision; image-rendering:optimizeQuality; fill-rule:evenodd; clip-rule:evenodd" xmlns:xlink="http://www.w3.org/1999/xlink">
<g><path style="opacity:0.934" fill="#de9d39" d="M 117.5,-0.5 C 125.833,-0.5 134.167,-0.5 142.5,-0.5C 149.286,0.657536 155.952,2.3242 162.5,4.5C 165.57,7.56378 168.237,10.8971 170.5,14.5C 155.297,9.2324 139.631,6.56574 123.5,6.5C 121.5,4.16667 119.5,1.83333 117.5,-0.5 Z"/></g>
<g><path style="opacity:0.921" fill="#e8b859" d="M 112.5,-0.5 C 114.167,-0.5 115.833,-0.5 117.5,-0.5C 119.5,1.83333 121.5,4.16667 123.5,6.5C 108.95,7.01853 94.9504,10.0185 81.5,15.5C 80.5849,13.2459 79.2516,11.2459 77.5,9.5C 88.718,4.5377 100.385,1.20437 112.5,-0.5 Z"/></g>
<g><path style="opacity:1" fill="#010000" d="M 123.5,6.5 C 139.631,6.56574 155.297,9.2324 170.5,14.5C 182.252,18.8731 192.919,25.0398 202.5,33C 198.29,34.6086 194.29,36.4419 190.5,38.5C 184.651,40.5973 178.985,42.9306 173.5,45.5C 156.594,52.1291 139.928,59.1291 123.5,66.5C 112.701,70.71 102.034,75.21 91.5,80C 105.137,94.6379 119.137,108.971 133.5,123C 134.996,123.507 136.163,123.007 137,121.5C 144.334,112.003 151.834,102.67 159.5,93.5C 169.071,82.0246 178.405,70.358 187.5,58.5C 191.513,54.4851 195.179,50.1518 198.5,45.5C 201.137,42.0226 204.137,39.1892 207.5,37C 222.683,50.5557 234.016,66.7224 241.5,85.5C 244.986,96.9289 247.319,108.596 248.5,120.5C 248.771,137.675 246.104,154.342 240.5,170.5C 234.77,184.973 226.77,197.973 216.5,209.5C 207.743,218.37 198.077,226.037 187.5,232.5C 177.059,238.204 166.059,242.537 154.5,245.5C 137.868,248.816 121.201,249.15 104.5,246.5C 85.1082,242.471 67.7749,234.138 52.5,221.5C 54.9044,220.157 57.2377,218.823 59.5,217.5C 68.4655,214.345 77.1322,210.679 85.5,206.5C 96.8914,202.597 107.891,197.93 118.5,192.5C 134.786,186.352 150.786,179.685 166.5,172.5C 170.037,171.733 173.371,170.4 176.5,168.5C 177.521,167.998 177.688,167.332 177,166.5C 163.167,152.667 149.333,138.833 135.5,125C 134.833,124.333 134.167,124.333 133.5,125C 130.553,127.436 128.22,130.269 126.5,133.5C 115.162,144.838 104.162,156.505 93.5,168.5C 86.1595,175.841 79.1595,183.508 72.5,191.5C 66.1584,197.843 60.1584,204.509 54.5,211.5C 52.1862,213.477 49.8528,215.477 47.5,217.5C 27.0164,199.534 14.0164,177.201 8.5,150.5C 6.61062,137.506 6.27729,124.506 7.5,111.5C 9.62683,97.1201 13.9602,83.4535 20.5,70.5C 27.2754,58.7117 35.6087,48.0451 45.5,38.5C 56.1437,28.8369 68.1437,21.1703 81.5,15.5C 94.9504,10.0185 108.95,7.01853 123.5,6.5 Z"/></g>
<g><path style="opacity:0.96" fill="#dc9229" d="M 162.5,4.5 C 201.622,15.7806 229.455,40.114 246,77.5C 248.213,82.3045 249.713,87.3045 250.5,92.5C 247.536,90.0381 244.703,87.3714 242,84.5C 241.601,84.7284 241.435,85.0618 241.5,85.5C 234.016,66.7224 222.683,50.5557 207.5,37C 204.137,39.1892 201.137,42.0226 198.5,45.5C 197.062,41.7264 194.395,39.3931 190.5,38.5C 194.29,36.4419 198.29,34.6086 202.5,33C 192.919,25.0398 182.252,18.8731 170.5,14.5C 168.237,10.8971 165.57,7.56378 162.5,4.5 Z"/></g>
<g><path style="opacity:0.914" fill="#f6cc6f" d="M 77.5,9.5 C 79.2516,11.2459 80.5849,13.2459 81.5,15.5C 68.1437,21.1703 56.1437,28.8369 45.5,38.5C 43.5,37.1667 41.8333,35.5 40.5,33.5C 50.9499,22.7639 63.2832,14.7639 77.5,9.5 Z"/></g>
<g><path style="opacity:1" fill="#050301" d="M 182.5,55.5 C 173.261,66.3162 164.261,77.3162 155.5,88.5C 148.545,97.2932 141.378,105.96 134,114.5C 123.137,103.971 112.637,93.1374 102.5,82C 111.526,78.1517 120.526,74.3184 129.5,70.5C 145.504,63.8307 161.504,57.1641 177.5,50.5C 181.705,48.3858 186.039,46.8858 190.5,46C 187.707,49.1051 185.04,52.2717 182.5,55.5 Z"/></g>
<g><path style="opacity:1" fill="#db9d3a" d="M 190.5,38.5 C 194.395,39.3931 197.062,41.7264 198.5,45.5C 195.179,50.1518 191.513,54.4851 187.5,58.5C 186.078,57.075 184.411,56.075 182.5,55.5C 185.04,52.2717 187.707,49.1051 190.5,46C 186.039,46.8858 181.705,48.3858 177.5,50.5C 176.92,48.2512 175.587,46.5846 173.5,45.5C 178.985,42.9306 184.651,40.5973 190.5,38.5 Z"/></g>
<g><path style="opacity:1" fill="#e0b054" d="M 173.5,45.5 C 175.587,46.5846 176.92,48.2512 177.5,50.5C 161.504,57.1641 145.504,63.8307 129.5,70.5C 128.292,67.9558 126.292,66.6225 123.5,66.5C 139.928,59.1291 156.594,52.1291 173.5,45.5 Z"/></g>
<g><path style="opacity:0.91" fill="#f8b967" d="M 40.5,33.5 C 41.8333,35.5 43.5,37.1667 45.5,38.5C 35.6087,48.0451 27.2754,58.7117 20.5,70.5C 19.1667,68.5 17.5,66.8333 15.5,65.5C 21.5494,53.1092 29.8828,42.4426 40.5,33.5 Z"/></g>
<g><path style="opacity:1" fill="#f1c76d" d="M 123.5,66.5 C 126.292,66.6225 128.292,67.9558 129.5,70.5C 120.526,74.3184 111.526,78.1517 102.5,82C 112.637,93.1374 123.137,103.971 134,114.5C 141.378,105.96 148.545,97.2932 155.5,88.5C 157.587,89.5846 158.92,91.2512 159.5,93.5C 151.834,102.67 144.334,112.003 137,121.5C 136.163,123.007 134.996,123.507 133.5,123C 119.137,108.971 105.137,94.6379 91.5,80C 102.034,75.21 112.701,70.71 123.5,66.5 Z"/></g>
<g><path style="opacity:1" fill="#e1b255" d="M 182.5,55.5 C 184.411,56.075 186.078,57.075 187.5,58.5C 178.405,70.358 169.071,82.0246 159.5,93.5C 158.92,91.2512 157.587,89.5846 155.5,88.5C 164.261,77.3162 173.261,66.3162 182.5,55.5 Z"/></g>
<g><path style="opacity:0.916" fill="#e3a240" d="M 15.5,65.5 C 17.5,66.8333 19.1667,68.5 20.5,70.5C 13.9602,83.4535 9.62683,97.1201 7.5,111.5C 5.16667,109.833 3.16667,107.833 1.5,105.5C 3.20494,91.0482 7.8716,77.7149 15.5,65.5 Z"/></g>
<g><path style="opacity:0.966" fill="#e2a13b" d="M 250.5,92.5 C 252.676,99.0476 254.342,105.714 255.5,112.5C 255.5,117.167 255.5,121.833 255.5,126.5C 253.167,124.5 250.833,122.5 248.5,120.5C 247.319,108.596 244.986,96.9289 241.5,85.5C 241.435,85.0618 241.601,84.7284 242,84.5C 244.703,87.3714 247.536,90.0381 250.5,92.5 Z"/></g>
<g><path style="opacity:1" fill="#f6c66f" d="M 166.5,172.5 C 164.251,171.92 162.585,170.587 161.5,168.5C 162.974,167.325 164.64,166.325 166.5,165.5C 156.348,154.847 146.014,144.347 135.5,134C 133.203,134.112 131.536,135.278 130.5,137.5C 128.833,136.5 127.5,135.167 126.5,133.5C 128.22,130.269 130.553,127.436 133.5,125C 134.167,124.333 134.833,124.333 135.5,125C 149.333,138.833 163.167,152.667 177,166.5C 177.688,167.332 177.521,167.998 176.5,168.5C 173.371,170.4 170.037,171.733 166.5,172.5 Z"/></g>
<g><path style="opacity:1" fill="#030201" d="M 161.5,168.5 C 145.429,174.406 129.763,181.073 114.5,188.5C 102.86,192.597 91.5271,197.264 80.5,202.5C 75.4116,204.39 70.4116,206.224 65.5,208C 69.4158,204.59 72.7492,200.757 75.5,196.5C 83.5066,188.493 91.1733,180.159 98.5,171.5C 109.505,160.495 120.172,149.161 130.5,137.5C 131.536,135.278 133.203,134.112 135.5,134C 146.014,144.347 156.348,154.847 166.5,165.5C 164.64,166.325 162.974,167.325 161.5,168.5 Z"/></g>
<g><path style="opacity:0.929" fill="#d08c21" d="M 1.5,105.5 C 3.16667,107.833 5.16667,109.833 7.5,111.5C 6.27729,124.506 6.61062,137.506 8.5,150.5C 8.65668,151.873 8.49001,153.207 8,154.5C 5.63029,151.961 3.13029,149.628 0.5,147.5C 0.784479,145.585 0.451145,143.919 -0.5,142.5C -0.5,132.5 -0.5,122.5 -0.5,112.5C 0.166667,110.167 0.833333,107.833 1.5,105.5 Z"/></g>
<g><path style="opacity:0.923" fill="#e4b354" d="M 248.5,120.5 C 250.833,122.5 253.167,124.5 255.5,126.5C 255.5,131.833 255.5,137.167 255.5,142.5C 254.295,148.019 253.129,153.685 252,159.5C 250.829,164.857 248.996,169.857 246.5,174.5C 244.754,172.748 242.754,171.415 240.5,170.5C 246.104,154.342 248.771,137.675 248.5,120.5 Z"/></g>
<g><path style="opacity:1" fill="#ebac58" d="M 126.5,133.5 C 127.5,135.167 128.833,136.5 130.5,137.5C 120.172,149.161 109.505,160.495 98.5,171.5C 97.078,170.075 95.4113,169.075 93.5,168.5C 104.162,156.505 115.162,144.838 126.5,133.5 Z"/></g>
<g><path style="opacity:0.948" fill="#d37e26" d="M 0.5,147.5 C 3.13029,149.628 5.63029,151.961 8,154.5C 8.49001,153.207 8.65668,151.873 8.5,150.5C 14.0164,177.201 27.0164,199.534 47.5,217.5C 49.8528,215.477 52.1862,213.477 54.5,211.5C 55.4194,214.089 57.086,216.089 59.5,217.5C 57.2377,218.823 54.9044,220.157 52.5,221.5C 67.7749,234.138 85.1082,242.471 104.5,246.5C 103.127,246.343 101.793,246.51 100.5,247C 103.039,249.37 105.372,251.87 107.5,254.5C 59.3993,245.036 25.8993,217.703 7,172.5C 4.11065,164.336 1.94399,156.002 0.5,147.5 Z"/></g>
<g><path style="opacity:1" fill="#d59633" d="M 93.5,168.5 C 95.4113,169.075 97.078,170.075 98.5,171.5C 91.1733,180.159 83.5066,188.493 75.5,196.5C 74.925,194.589 73.925,192.922 72.5,191.5C 79.1595,183.508 86.1595,175.841 93.5,168.5 Z"/></g>
<g><path style="opacity:1" fill="#ebac58" d="M 161.5,168.5 C 162.585,170.587 164.251,171.92 166.5,172.5C 150.786,179.685 134.786,186.352 118.5,192.5C 117.5,190.833 116.167,189.5 114.5,188.5C 129.763,181.073 145.429,174.406 161.5,168.5 Z"/></g>
<g><path style="opacity:0.914" fill="#f6cb6d" d="M 240.5,170.5 C 242.754,171.415 244.754,172.748 246.5,174.5C 241.184,189.816 232.851,203.149 221.5,214.5C 219.5,213.167 217.833,211.5 216.5,209.5C 226.77,197.973 234.77,184.973 240.5,170.5 Z"/></g>
<g><path style="opacity:1" fill="#d39430" d="M 114.5,188.5 C 116.167,189.5 117.5,190.833 118.5,192.5C 107.891,197.93 96.8914,202.597 85.5,206.5C 83.2512,205.92 81.5846,204.587 80.5,202.5C 91.5271,197.264 102.86,192.597 114.5,188.5 Z"/></g>
<g><path style="opacity:1" fill="#cc871f" d="M 72.5,191.5 C 73.925,192.922 74.925,194.589 75.5,196.5C 72.7492,200.757 69.4158,204.59 65.5,208C 70.4116,206.224 75.4116,204.39 80.5,202.5C 81.5846,204.587 83.2512,205.92 85.5,206.5C 77.1322,210.679 68.4655,214.345 59.5,217.5C 57.086,216.089 55.4194,214.089 54.5,211.5C 60.1584,204.509 66.1584,197.843 72.5,191.5 Z"/></g>
<g><path style="opacity:0.911" fill="#f9bb68" d="M 216.5,209.5 C 217.833,211.5 219.5,213.167 221.5,214.5C 213.024,223.979 203.357,231.979 192.5,238.5C 190.833,236.5 189.167,234.5 187.5,232.5C 198.077,226.037 207.743,218.37 216.5,209.5 Z"/></g>
<g><path style="opacity:0.934" fill="#e5a446" d="M 187.5,232.5 C 189.167,234.5 190.833,236.5 192.5,238.5C 181.19,244.937 169.19,249.603 156.5,252.5C 155.04,250.537 153.373,248.704 151.5,247C 152.737,246.768 153.737,246.268 154.5,245.5C 166.059,242.537 177.059,238.204 187.5,232.5 Z"/></g>
<g><path style="opacity:0.953" fill="#d39024" d="M 154.5,245.5 C 153.737,246.268 152.737,246.768 151.5,247C 153.373,248.704 155.04,250.537 156.5,252.5C 151.715,253.509 147.048,254.509 142.5,255.5C 132.5,255.5 122.5,255.5 112.5,255.5C 111.081,254.549 109.415,254.216 107.5,254.5C 105.372,251.87 103.039,249.37 100.5,247C 101.793,246.51 103.127,246.343 104.5,246.5C 121.201,249.15 137.868,248.816 154.5,245.5 Z"/></g>
</svg>
